<?xml version="1.0" standalone="no"?>
<!DOCTYPE svg PUBLIC "-//W3C//DTD SVG 1.1//EN" "http://www.w3.org/Graphics/SVG/1.1/DTD/svg11.dtd" >
<svg>
<metadata>
Created by FontForge 20120731 at Wed Feb 15 10:23:37 2017
 By www-data
Copyright (C) 1996, 2009 Hoefler &#38; Frere-Jones. http://www.typography.com
</metadata>
<defs>
<font id="Whitney-Light" horiz-adv-x="360" >
  <font-face 
    font-family="Whitney Light"
    font-weight="300"
    font-stretch="normal"
    units-per-em="1000"
    panose-1="0 0 0 0 0 0 0 0 0 0"
    ascent="800"
    descent="-200"
    x-height="470"
    cap-height="690"
    bbox="-94 -257 1141 1015"
    underline-thickness="50"
    underline-position="-50"
    stemh="42"
    stemv="47"
    unicode-range="U+0020-FB04"
  />
<missing-glyph horiz-adv-x="500" 
d="M0 -200v1000h500v-1000h-500zM71 750l179 -390l179 390h-358zM50 -76l172 376l-172 376v-752zM450 676l-172 -376l172 -376v752zM250 240l-179 -390h358z" />
    <glyph glyph-name="f_f" unicode="ff" horiz-adv-x="576" 
d="M269 666c-9 2 -17 3 -36 3c-48 0 -77 -24 -77 -82v-117h99l7 -40h-106v-430h-46v430h-73v40h73v119c0 81 43 123 121 123c15 0 22 0 31 -1zM557 666c-9 2 -17 3 -36 3c-48 0 -77 -24 -77 -82v-117h99l7 -40h-106v-430h-46v430h-73v40h73v119c0 81 43 123 121 123
c15 0 22 0 31 -1z" />
    <glyph glyph-name="fi" unicode="fi" horiz-adv-x="514" 
d="M269 666c-9 2 -17 3 -36 3c-48 0 -77 -24 -77 -82v-117h99l7 -40h-106v-430h-46v430h-73v40h73v119c0 81 43 123 121 123c15 0 22 0 31 -1zM441 638c0 -21 -18 -41 -40 -41s-41 20 -41 41c0 22 19 40 41 40s40 -18 40 -40zM424 0h-46v470h46v-470z" />
    <glyph glyph-name="fl" unicode="fl" horiz-adv-x="514" 
d="M269 666c-9 2 -17 3 -36 3c-48 0 -77 -24 -77 -82v-117h99l7 -40h-106v-430h-46v430h-73v40h73v119c0 81 43 123 121 123c15 0 22 0 31 -1zM424 0h-46v705l46 10v-715z" />
    <glyph glyph-name="f_f_i" unicode="ffi" horiz-adv-x="802" 
d="M269 666c-9 2 -17 3 -36 3c-48 0 -77 -24 -77 -82v-117h99l7 -40h-106v-430h-46v430h-73v40h73v119c0 81 43 123 121 123c15 0 22 0 31 -1zM557 666c-9 2 -17 3 -36 3c-48 0 -77 -24 -77 -82v-117h99l7 -40h-106v-430h-46v430h-73v40h73v119c0 81 43 123 121 123
c15 0 22 0 31 -1zM729 638c0 -21 -18 -41 -40 -41s-41 20 -41 41c0 22 19 40 41 40s40 -18 40 -40zM712 0h-46v470h46v-470z" />
    <glyph glyph-name="f_f_l" unicode="ffl" horiz-adv-x="802" 
d="M269 666c-9 2 -17 3 -36 3c-48 0 -77 -24 -77 -82v-117h99l7 -40h-106v-430h-46v430h-73v40h73v119c0 81 43 123 121 123c15 0 22 0 31 -1zM557 666c-9 2 -17 3 -36 3c-48 0 -77 -24 -77 -82v-117h99l7 -40h-106v-430h-46v430h-73v40h73v119c0 81 43 123 121 123
c15 0 22 0 31 -1zM712 0h-46v705l46 10v-715z" />
    <glyph glyph-name=".notdef" horiz-adv-x="500" 
d="M0 -200v1000h500v-1000h-500zM71 750l179 -390l179 390h-358zM50 -76l172 376l-172 376v-752zM450 676l-172 -376l172 -376v752zM250 240l-179 -390h358z" />
    <glyph glyph-name="A" unicode="A" horiz-adv-x="694" 
d="M47 0l274 694h52l274 -690l-48 -11l-95 243h-315l-92 -236h-50zM346 640l-141 -361h282z" />
    <glyph glyph-name="B" unicode="B" horiz-adv-x="549" 
d="M490 196c0 -126 -98 -196 -236 -196h-154v690h154c134 0 205 -66 205 -167c0 -76 -46 -131 -110 -157c86 -23 141 -76 141 -170zM410 521c0 79 -55 126 -158 126h-104v-265h105c104 0 157 64 157 139zM441 191c0 105 -76 150 -187 150h-106v-298h110
c111 0 183 57 183 148z" />
    <glyph glyph-name="C" unicode="C" horiz-adv-x="643" 
d="M585 58c-52 -40 -126 -71 -211 -71c-181 0 -309 144 -309 357c0 210 130 359 317 359c74 0 140 -24 192 -60l-9 -49c-57 41 -117 66 -184 66c-163 0 -266 -130 -266 -314c0 -185 104 -316 263 -316c75 0 144 30 200 74z" />
    <glyph glyph-name="D" unicode="D" horiz-adv-x="699" 
d="M634 346c0 -217 -148 -346 -359 -346h-175v690h178c221 0 356 -137 356 -344zM584 345c0 196 -124 302 -307 302h-129v-604h132c182 0 304 103 304 302z" />
    <glyph glyph-name="E" unicode="E" horiz-adv-x="508" 
d="M459 0h-359v690h349v-44h-301v-263h241l7 -44h-248v-295h311v-44z" />
    <glyph glyph-name="F" unicode="F" horiz-adv-x="477" 
d="M435 646h-287v-274h233l7 -44h-240v-328h-48v690h335v-44z" />
    <glyph glyph-name="G" unicode="G" horiz-adv-x="691" 
d="M602 59c-67 -45 -135 -72 -222 -72c-191 0 -315 147 -315 357s129 359 310 359c80 0 147 -23 200 -61l-9 -50c-52 42 -114 68 -192 68c-156 0 -259 -127 -259 -315c0 -187 102 -316 267 -316c69 0 122 19 172 52v225h-172l-7 44h227v-291z" />
    <glyph glyph-name="H" unicode="H" horiz-adv-x="707" 
d="M607 0h-48v340h-411v-340h-48v690h48v-307h411v307h48v-690z" />
    <glyph glyph-name="I" unicode="I" horiz-adv-x="264" 
d="M156 0h-48v690h48v-690z" />
    <glyph glyph-name="J" unicode="J" horiz-adv-x="359" 
d="M262 166c0 -116 -68 -172 -164 -172c-22 0 -44 3 -60 7l-7 46c20 -6 45 -10 68 -10c72 0 115 42 115 124v529h48v-524z" />
    <glyph glyph-name="K" unicode="K" horiz-adv-x="603" 
d="M580 5l-56 -12l-376 368v-361h-48v690h48v-318l347 318h65l-356 -321z" />
    <glyph glyph-name="L" unicode="L" horiz-adv-x="465" 
d="M435 0h-335v690h48v-646h280z" />
    <glyph glyph-name="M" unicode="M" horiz-adv-x="913" 
d="M828 0h-48l-47 621l-257 -625h-40l-257 625l-47 -621h-46l56 690h59l256 -631l257 631h58z" />
    <glyph glyph-name="M.alt" horiz-adv-x="886" 
d="M785 0h-48v608l-275 -611h-40l-275 611v-608h-46v690h60l282 -634l282 634h60v-690z" />
    <glyph glyph-name="N" unicode="N" horiz-adv-x="707" 
d="M607 0h-38l-423 617v-617h-46v690h49l412 -600v600h46v-690z" />
    <glyph glyph-name="O" unicode="O" horiz-adv-x="744" 
d="M679 346c0 -210 -131 -359 -308 -359s-306 148 -306 357c0 210 131 359 308 359s306 -148 306 -357zM629 344c0 186 -105 316 -258 316c-152 0 -256 -130 -256 -314c0 -186 105 -316 258 -316c152 0 256 130 256 314z" />
    <glyph glyph-name="P" unicode="P" horiz-adv-x="527" 
d="M480 500c0 -131 -102 -200 -236 -200h-96v-300h-48v690h158c137 0 222 -69 222 -190zM430 498c0 98 -61 149 -174 149h-108v-304h98c114 0 184 52 184 155z" />
    <glyph glyph-name="Q" unicode="Q" horiz-adv-x="747" 
d="M679 346c0 -190 -104 -329 -259 -353l232 -90l-8 -49l-355 142c-134 54 -224 155 -224 348c0 210 131 359 308 359s306 -148 306 -357zM629 343c0 188 -105 317 -258 317s-256 -127 -256 -315s105 -317 258 -317s256 128 256 315z" />
    <glyph glyph-name="Q.alt" horiz-adv-x="748" 
d="M694 30l-11 -44l-108 84c-54 -53 -124 -83 -204 -83c-177 0 -306 148 -306 357c0 210 131 359 308 359s306 -148 306 -357c0 -98 -29 -183 -78 -246zM629 344c0 186 -105 316 -258 316s-256 -128 -256 -314s105 -316 258 -316c68 0 125 23 168 66l-190 144l57 10
l159 -124c40 54 62 129 62 218z" />
    <glyph glyph-name="R" unicode="R" horiz-adv-x="564" 
d="M536 4l-51 -11l-229 316h-108v-309h-48v690h163c135 0 217 -72 217 -186c0 -107 -80 -172 -170 -189zM430 502c0 90 -58 145 -170 145h-112v-296h99c112 0 183 57 183 151z" />
    <glyph glyph-name="S" unicode="S" horiz-adv-x="512" 
d="M454 178c0 -117 -97 -186 -211 -186c-74 0 -134 19 -176 41l7 49c39 -24 101 -47 172 -47c88 0 158 54 158 140c0 72 -40 113 -145 158c-134 57 -181 103 -181 197c0 98 83 168 188 168c64 0 115 -14 149 -34l-7 -48c-40 23 -85 39 -144 39c-83 0 -137 -55 -137 -123
c0 -70 39 -104 147 -150c123 -52 180 -105 180 -204z" />
    <glyph glyph-name="T" unicode="T" horiz-adv-x="562" 
d="M532 646h-227v-646h-48v646h-224v44h493z" />
    <glyph glyph-name="U" unicode="U" horiz-adv-x="674" 
d="M589 260c0 -161 -95 -270 -254 -270c-158 0 -250 111 -250 265v435h48v-428c0 -135 71 -229 204 -229c131 0 204 89 204 224v433h48v-430z" />
    <glyph glyph-name="U.alt" horiz-adv-x="693" 
d="M560 0l-13 87c-68 -59 -145 -95 -223 -95c-138 0 -229 70 -229 229v469h48v-466c0 -127 68 -189 184 -189c81 0 150 40 218 102v553h48v-690h-33z" />
    <glyph glyph-name="V" unicode="V" horiz-adv-x="683" 
d="M636 690l-274 -694h-44l-271 690l47 11l247 -643l245 636h50z" />
    <glyph glyph-name="W" unicode="W" horiz-adv-x="1033" 
d="M979 690l-209 -692h-44l-211 626l-208 -626h-43l-209 688l48 11l186 -626l202 619h51l206 -619l183 619h48z" />
    <glyph glyph-name="W.alt" horiz-adv-x="1011" 
d="M965 690l-260 -692h-43l-158 424l-157 -424h-43l-257 688l50 11l231 -633l152 421l-74 201l50 11l230 -633l228 626h51z" />
    <glyph glyph-name="X" unicode="X" horiz-adv-x="635" 
d="M587 5l-47 -10l-224 330l-219 -325h-52l244 359l-222 325l47 10l202 -299l199 295h52l-223 -329z" />
    <glyph glyph-name="Y" unicode="Y" horiz-adv-x="621" 
d="M580 690l-246 -394v-296h-48v295l-245 392l51 10l219 -360l214 353h55z" />
    <glyph glyph-name="Z" unicode="Z" horiz-adv-x="600" 
d="M544 0h-484v33l420 615h-392l-6 42h457v-33l-420 -615h419z" />
    <glyph glyph-name="a" unicode="a" horiz-adv-x="481" 
d="M404 0h-33l-11 63c-49 -43 -107 -73 -166 -73c-79 0 -142 40 -142 125c0 105 80 161 306 182v41c0 66 -39 98 -104 98c-54 0 -109 -15 -161 -42l-6 44c53 24 107 41 169 41c96 0 148 -49 148 -139v-340zM358 106v152c-194 -21 -258 -62 -258 -139c0 -60 43 -88 96 -88
c50 0 111 30 162 75z" />
    <glyph glyph-name="b" unicode="b" horiz-adv-x="524" 
d="M470 248c0 -171 -101 -254 -226 -254c-61 0 -116 14 -161 32v679l47 10v-312c36 41 82 77 148 77c104 0 192 -74 192 -232zM421 246c0 124 -60 191 -144 191c-56 0 -100 -33 -147 -86v-294c30 -12 69 -22 120 -22c94 0 171 66 171 211z" />
    <glyph glyph-name="c" unicode="c" horiz-adv-x="464" 
d="M417 47c-43 -36 -95 -57 -158 -57c-115 0 -207 90 -207 245c0 156 93 245 210 245c59 0 111 -21 152 -52l-9 -48c-47 40 -91 59 -145 59c-91 0 -159 -74 -159 -204c0 -121 66 -204 163 -204c51 0 98 18 147 60z" />
    <glyph glyph-name="d" unicode="d" horiz-adv-x="526" 
d="M443 0h-34l-12 69c-37 -43 -82 -79 -150 -79c-104 0 -193 74 -193 232c0 171 102 255 216 255c48 0 89 -9 126 -25v253l47 10v-715zM396 119v287c-37 19 -78 30 -125 30c-93 0 -168 -67 -168 -212c0 -123 61 -191 145 -191c57 0 102 34 148 86z" />
    <glyph glyph-name="e" unicode="e" horiz-adv-x="484" 
d="M431 59c-43 -39 -105 -69 -172 -69c-124 0 -207 92 -207 245c0 150 83 245 197 245c120 0 183 -105 183 -235v-10h-332c0 -120 56 -204 161 -204c57 0 117 30 163 72zM249 441c-82 0 -137 -63 -148 -167h282c-3 92 -52 167 -134 167z" />
    <glyph glyph-name="f" unicode="f" horiz-adv-x="288" 
d="M269 666c-9 2 -17 3 -36 3c-48 0 -77 -24 -77 -82v-117h99l7 -40h-106v-430h-46v430h-73v40h73v119c0 81 43 123 121 123c15 0 22 0 31 -1z" />
    <glyph glyph-name="g" unicode="g" horiz-adv-x="501" 
d="M457 -40c0 -85 -98 -138 -219 -138c-120 0 -210 43 -210 122c0 47 39 93 114 128c-27 14 -40 31 -40 50c0 25 16 42 46 61c-51 25 -86 74 -86 139c0 98 81 158 169 158c45 0 86 -14 117 -40l116 38l9 -52l-101 -11c20 -25 32 -57 32 -93c0 -98 -80 -158 -171 -158
c-16 0 -31 1 -45 5c-27 -15 -38 -26 -38 -38c0 -21 21 -30 110 -47l36 -7c108 -21 161 -51 161 -117zM241 43c-23 4 -40 8 -56 12c-74 -31 -109 -67 -109 -109c0 -57 74 -86 166 -86c99 0 168 41 168 94c0 43 -36 63 -133 82zM357 322c0 67 -51 121 -126 121
c-74 0 -121 -51 -121 -121c0 -67 47 -121 123 -121c77 0 124 52 124 121z" />
    <glyph glyph-name="g.alt" horiz-adv-x="526" 
d="M443 6c0 -121 -69 -184 -189 -184c-61 0 -118 14 -172 35l9 45c54 -26 109 -38 168 -38c94 0 137 50 137 140v73c-34 -39 -79 -78 -149 -78c-104 0 -193 74 -193 228c0 166 102 250 227 250c62 0 117 -15 162 -32v-439zM396 128v286c-30 11 -69 22 -121 22
c-95 0 -172 -65 -172 -207c0 -122 61 -187 145 -187c57 0 102 34 148 86z" />
    <glyph glyph-name="h" unicode="h" horiz-adv-x="520" 
d="M443 0h-47v327c0 71 -34 110 -101 110c-52 0 -106 -30 -165 -85v-352h-47v705l47 10v-315c57 49 108 80 170 80c97 0 143 -54 143 -147v-333z" />
    <glyph glyph-name="i" unicode="i" horiz-adv-x="226" 
d="M153 638c0 -21 -18 -41 -40 -41s-41 20 -41 41c0 22 19 40 41 40s40 -18 40 -40zM136 0h-46v470h46v-470z" />
    <glyph glyph-name="j" unicode="j" horiz-adv-x="226" 
d="M153 638c0 -21 -18 -41 -40 -41s-41 20 -41 41c0 22 19 40 41 40s40 -18 40 -40zM136 -83c0 -67 -41 -95 -92 -95c-11 0 -27 1 -36 2l-7 43c14 -2 23 -3 36 -3c33 0 53 16 53 58v548h46v-553z" />
    <glyph glyph-name="k" unicode="k" horiz-adv-x="454" 
d="M435 5l-52 -12l-253 259v-252h-47v705l47 10v-451l223 206h67l-237 -211z" />
    <glyph glyph-name="l" unicode="l" horiz-adv-x="226" 
d="M136 0h-46v705l46 10v-715z" />
    <glyph glyph-name="m" unicode="m" horiz-adv-x="822" 
d="M745 0h-47v327c0 71 -31 110 -99 110c-50 0 -103 -29 -162 -83v-354h-46v327c0 71 -31 110 -99 110c-50 0 -104 -29 -162 -82v-355h-47v470h34l12 -68c56 48 107 78 168 78c74 0 116 -30 132 -85c59 52 112 85 176 85c97 0 140 -54 140 -147v-333z" />
    <glyph glyph-name="n" unicode="n" horiz-adv-x="520" 
d="M443 0h-47v327c0 71 -34 110 -101 110c-52 0 -106 -30 -165 -85v-352h-47v470h34l12 -71c57 50 109 81 171 81c97 0 143 -55 143 -149v-331z" />
    <glyph glyph-name="o" unicode="o" horiz-adv-x="519" 
d="M467 235c0 -155 -93 -245 -208 -245c-117 0 -207 90 -207 245c0 156 93 245 207 245c118 0 208 -89 208 -245zM418 235c0 130 -69 204 -159 204s-158 -71 -158 -204c0 -130 69 -204 158 -204c90 0 159 70 159 204z" />
    <glyph glyph-name="p" unicode="p" horiz-adv-x="526" 
d="M472 248c0 -171 -102 -254 -216 -254c-47 0 -89 9 -126 24v-189l-47 -10v651h34l12 -68c38 43 82 78 150 78c104 0 193 -74 193 -232zM423 246c0 124 -61 191 -145 191c-57 0 -101 -33 -148 -86v-287c37 -18 78 -29 125 -29c94 0 168 67 168 211z" />
    <glyph glyph-name="q" unicode="q" horiz-adv-x="524" 
d="M441 -171l-47 -10v249c-35 -41 -82 -78 -148 -78c-103 0 -192 74 -192 232c0 171 102 255 226 255c61 0 116 -15 161 -32v-616zM394 119v295c-30 11 -69 22 -120 22c-94 0 -171 -66 -171 -212c0 -123 61 -191 144 -191c56 0 101 34 147 86z" />
    <glyph glyph-name="r" unicode="r" horiz-adv-x="332" 
d="M306 436c-77 -5 -144 -64 -176 -127v-309h-47v470h31l15 -98c36 53 91 107 169 108z" />
    <glyph glyph-name="s" unicode="s" horiz-adv-x="434" 
d="M382 124c0 -85 -69 -132 -167 -132c-63 0 -125 19 -167 42l9 46c44 -25 101 -46 163 -46c70 0 116 31 116 86c0 49 -29 74 -130 102c-99 27 -144 61 -144 133s62 124 155 124c53 0 100 -13 138 -32l-8 -45c-43 22 -87 34 -132 34c-74 0 -107 -35 -107 -78
c0 -44 28 -66 112 -89c107 -29 162 -66 162 -145z" />
    <glyph glyph-name="t" unicode="t" horiz-adv-x="324" 
d="M280 2c-12 -5 -38 -10 -64 -10c-67 0 -111 28 -111 107v331h-73v40h73v167l47 10v-177h115l6 -40h-121v-323c0 -55 22 -74 74 -74c15 0 36 4 47 7z" />
    <glyph glyph-name="u" unicode="u" horiz-adv-x="520" 
d="M437 0h-34l-12 71c-57 -50 -109 -81 -171 -81c-97 0 -143 55 -143 149v331h47v-327c0 -71 34 -110 101 -110c52 0 106 30 165 85v352h47v-470z" />
    <glyph glyph-name="v" unicode="v" horiz-adv-x="468" 
d="M433 470l-179 -475h-43l-176 470l47 10l152 -423l150 418h49z" />
    <glyph glyph-name="w" unicode="w" horiz-adv-x="732" 
d="M697 470l-160 -475h-43l-128 410l-128 -410h-43l-160 473l46 10l136 -426l129 421h43l129 -421l131 418h48z" />
    <glyph glyph-name="x" unicode="x" horiz-adv-x="468" 
d="M428 4l-47 -11l-148 215l-141 -208h-52l168 242l-158 224l47 12l138 -200l133 192h52l-161 -226z" />
    <glyph glyph-name="y" unicode="y" horiz-adv-x="477" 
d="M442 470l-206 -542c-29 -78 -63 -106 -126 -106c-8 0 -16 1 -22 2l-7 41c7 0 16 -1 30 -1c41 0 63 17 83 69l25 64l-183 468l46 10l160 -422l151 417h49z" />
    <glyph glyph-name="z" unicode="z" horiz-adv-x="447" 
d="M399 0h-353v36l294 395h-270l-6 39h331v-35l-294 -396h292z" />
    <glyph glyph-name="a.sc" horiz-adv-x="510" 
d="M75 0h-48l203 511h49l203 -506l-47 -10l-66 171h-229zM255 460l-99 -253h197z" />
    <glyph glyph-name="b.sc" horiz-adv-x="483" 
d="M425 144c0 -94 -70 -144 -188 -144h-150v505h151c112 0 165 -52 165 -123c0 -56 -34 -94 -90 -114c70 -15 112 -56 112 -124zM358 379c0 52 -37 86 -121 86h-103v-181h100c80 0 124 40 124 95zM379 146c0 65 -55 100 -139 100h-106v-205h108c89 0 137 39 137 105z" />
    <glyph glyph-name="c.sc" horiz-adv-x="481" 
d="M436 41c-37 -28 -93 -50 -155 -50c-134 0 -226 107 -226 261s94 262 229 262c58 0 107 -15 144 -43l-7 -48c-38 30 -82 49 -138 49c-108 0 -181 -92 -181 -219s73 -220 181 -220c57 0 107 22 147 53z" />
    <glyph glyph-name="d.sc" horiz-adv-x="539" 
d="M484 253c0 -155 -103 -253 -264 -253h-133v505h134c168 0 263 -101 263 -252zM437 253c0 136 -87 210 -214 210h-89v-421h89c130 0 214 71 214 211z" />
    <glyph glyph-name="e.sc" horiz-adv-x="438" 
d="M387 0h-300v505h292v-42h-245v-178h200l9 -42h-209v-201h253v-42z" />
    <glyph glyph-name="f.sc" horiz-adv-x="400" 
d="M369 463h-235v-186h194l7 -41h-201v-236h-47v505h282v-42z" />
    <glyph glyph-name="g.sc" horiz-adv-x="526" 
d="M456 45c-48 -31 -101 -54 -166 -54c-145 0 -235 107 -235 261s96 262 235 262c53 0 107 -14 145 -41l-8 -48c-39 31 -90 47 -141 47c-106 0 -184 -90 -184 -219c0 -133 70 -220 190 -220c48 0 83 12 117 33v155h-122l-8 42h177v-218z" />
    <glyph glyph-name="h.sc" horiz-adv-x="552" 
d="M465 0h-47v243h-284v-243h-47v505h47v-220h284v220h47v-505z" />
    <glyph glyph-name="i.sc" horiz-adv-x="229" 
d="M138 0h-47v505h47v-505z" />
    <glyph glyph-name="j.sc" horiz-adv-x="288" 
d="M204 128c0 -93 -54 -133 -127 -133c-20 0 -38 3 -49 5l-7 43c17 -4 30 -6 51 -6c53 0 85 27 85 95v373h47v-377z" />
    <glyph glyph-name="k.sc" horiz-adv-x="470" 
d="M449 6l-52 -11l-263 267v-262h-47v505h47v-231l239 231h65l-251 -235z" />
    <glyph glyph-name="l.sc" horiz-adv-x="372" 
d="M341 0h-254v505h47v-463h201z" />
    <glyph glyph-name="m.sc" horiz-adv-x="702" 
d="M633 0h-48l-33 437l-182 -440h-41l-181 440l-33 -437h-46l40 505h60l183 -443l181 443h59z" />
    <glyph glyph-name="m.sc_alt" horiz-adv-x="684" 
d="M597 0h-43v434l-194 -436h-38l-191 435v-433h-44v505h60l195 -450l196 450h59v-505z" />
    <glyph glyph-name="n.sc" horiz-adv-x="552" 
d="M465 0h-41l-293 435v-435h-44v505h50l284 -421v421h44v-505z" />
    <glyph glyph-name="o.sc" horiz-adv-x="565" 
d="M510 253c0 -154 -95 -262 -229 -262s-226 107 -226 261s94 262 227 262c134 0 228 -106 228 -261zM463 253c0 130 -71 219 -181 219c-109 0 -180 -89 -180 -219c0 -133 72 -220 180 -220c110 0 181 87 181 220z" />
    <glyph glyph-name="p.sc" horiz-adv-x="445" 
d="M405 352c0 -100 -77 -158 -191 -158h-80v-194h-47v505h129c114 0 189 -52 189 -153zM358 351c0 75 -54 112 -142 112h-82v-227h82c88 0 142 39 142 115z" />
    <glyph glyph-name="q.sc" horiz-adv-x="565" 
d="M510 256c0 -136 -66 -231 -172 -260l156 -58l-10 -45l-274 107c-93 36 -155 118 -155 252c0 154 94 262 227 262c134 0 228 -100 228 -258zM462 253c0 130 -70 219 -180 219c-109 0 -180 -89 -180 -219c0 -133 72 -222 180 -222c110 0 180 89 180 222z" />
    <glyph glyph-name="q.sc_alt" horiz-adv-x="574" 
d="M521 35l-11 -45l-79 59c-39 -37 -91 -58 -150 -58c-134 0 -226 107 -226 261s94 262 227 262c134 0 228 -106 228 -261c0 -68 -18 -128 -51 -172zM282 472c-109 0 -180 -89 -180 -219c0 -133 72 -220 180 -220c46 0 85 15 115 42l-132 100l55 12l104 -79
c24 37 38 86 38 145c0 130 -70 219 -180 219z" />
    <glyph glyph-name="r.sc" horiz-adv-x="472" 
d="M434 5l-51 -10l-159 213h-90v-208h-47v505h137c116 0 179 -55 179 -145c0 -75 -50 -129 -126 -146zM355 358c0 66 -42 105 -135 105h-86v-214h88c92 0 133 50 133 109z" />
    <glyph glyph-name="s.sc" horiz-adv-x="414" 
d="M366 138c0 -83 -70 -144 -174 -144c-58 0 -124 18 -156 35l7 47c32 -17 98 -39 152 -39c81 0 126 45 126 97c0 50 -30 75 -119 106c-107 37 -146 68 -146 138c0 80 71 134 156 134c55 0 105 -14 133 -29l-9 -47c-27 16 -77 33 -126 33c-65 0 -108 -38 -108 -87
c0 -47 25 -66 111 -96c116 -41 153 -79 153 -148z" />
    <glyph glyph-name="t.sc" horiz-adv-x="447" 
d="M421 463h-175v-463h-47v463h-172v42h388z" />
    <glyph glyph-name="u.sc" horiz-adv-x="536" 
d="M456 192c0 -122 -72 -200 -190 -200s-186 80 -186 196v317h45v-310c0 -95 48 -161 141 -161s143 61 143 157v314h47v-313z" />
    <glyph glyph-name="u.sc_alt" horiz-adv-x="542" 
d="M455 0h-35l-9 60c-50 -40 -104 -66 -162 -66c-102 0 -167 52 -167 167v344h46v-339c0 -86 44 -130 124 -130c57 0 108 28 156 71v398h47v-505z" />
    <glyph glyph-name="v.sc" horiz-adv-x="505" 
d="M474 505l-202 -513h-40l-200 509l48 10l174 -457l171 451h49z" />
    <glyph glyph-name="w.sc" horiz-adv-x="759" 
d="M720 505l-151 -508h-44l-146 433l-146 -433h-44l-150 504l46 10l129 -446l146 442h40l145 -442l128 440h47z" />
    <glyph glyph-name="w.sc_alt" horiz-adv-x="745" 
d="M714 505l-187 -509h-41l-113 300l-114 -300h-41l-186 505l47 10l162 -454l110 299l-54 145l48 10l163 -454l157 448h49z" />
    <glyph glyph-name="x.sc" horiz-adv-x="486" 
d="M91 0h-52l178 263l-162 237l48 10l140 -211l135 206h53l-163 -241l178 -258l-49 -10l-155 232z" />
    <glyph glyph-name="y.sc" horiz-adv-x="466" 
d="M436 505l-180 -294v-211h-47v211l-179 290l48 10l155 -259l151 253h52z" />
    <glyph glyph-name="z.sc" horiz-adv-x="452" 
d="M412 0h-366v33l307 432h-281l-6 40h343v-33l-307 -432h305z" />
    <glyph glyph-name="uni0391" unicode="&#x391;" horiz-adv-x="694" 
d="M47 0l274 694h52l274 -690l-48 -11l-95 243h-315l-92 -236h-50zM346 640l-141 -361h282z" />
    <glyph glyph-name="uni0392" unicode="&#x392;" horiz-adv-x="549" 
d="M490 196c0 -126 -98 -196 -236 -196h-154v690h154c134 0 205 -66 205 -167c0 -76 -46 -131 -110 -157c86 -23 141 -76 141 -170zM410 521c0 79 -55 126 -158 126h-104v-265h105c104 0 157 64 157 139zM441 191c0 105 -76 150 -187 150h-106v-298h110
c111 0 183 57 183 148z" />
    <glyph glyph-name="uni0393" unicode="&#x393;" horiz-adv-x="465" 
d="M100 690h328l7 -44h-287v-646h-48v690z" />
    <glyph glyph-name="uni0394" unicode="&#x394;" horiz-adv-x="723" 
d="M54 32l281 662h52l282 -662l-5 -32h-605zM360 640l-252 -599h504z" />
    <glyph glyph-name="uni0395" unicode="&#x395;" horiz-adv-x="508" 
d="M459 0h-359v690h349v-44h-301v-263h241l7 -44h-248v-295h311v-44z" />
    <glyph glyph-name="uni0396" unicode="&#x396;" horiz-adv-x="600" 
d="M544 0h-484v33l420 615h-392l-6 42h457v-33l-420 -615h419z" />
    <glyph glyph-name="uni0397" unicode="&#x397;" horiz-adv-x="707" 
d="M607 0h-48v340h-411v-340h-48v690h48v-307h411v307h48v-690z" />
    <glyph glyph-name="uni0398" unicode="&#x398;" horiz-adv-x="744" 
d="M679 346c0 -210 -131 -359 -308 -359s-306 148 -306 357c0 210 131 359 308 359s306 -148 306 -357zM629 344c0 186 -105 316 -258 316c-152 0 -256 -130 -256 -314c0 -186 105 -316 258 -316c152 0 256 130 256 314zM557 322h-371v45h371v-45z" />
    <glyph glyph-name="uni0399" unicode="&#x399;" horiz-adv-x="264" 
d="M156 0h-48v690h48v-690z" />
    <glyph glyph-name="uni039A" unicode="&#x39a;" horiz-adv-x="603" 
d="M580 5l-56 -12l-376 368v-361h-48v690h48v-318l347 318h65l-356 -321z" />
    <glyph glyph-name="uni039B" unicode="&#x39b;" horiz-adv-x="683" 
d="M47 0l274 694h44l271 -690l-47 -11l-247 643l-245 -636h-50z" />
    <glyph glyph-name="uni039C" unicode="&#x39c;" horiz-adv-x="913" 
d="M828 0h-48l-47 621l-257 -625h-40l-257 625l-47 -621h-46l56 690h59l256 -631l257 631h58z" />
    <glyph glyph-name="uni039C.alt" horiz-adv-x="886" 
d="M785 0h-48v608l-275 -611h-40l-275 611v-608h-46v690h60l282 -634l282 634h60v-690z" />
    <glyph glyph-name="uni039D" unicode="&#x39d;" horiz-adv-x="707" 
d="M607 0h-38l-423 617v-617h-46v690h49l412 -600v600h46v-690z" />
    <glyph glyph-name="uni039E" unicode="&#x39e;" horiz-adv-x="547" 
d="M494 0h-441v43h441v-43zM489 647h-431v43h431v-43zM454 340h-358v43h351z" />
    <glyph glyph-name="uni039F" unicode="&#x39f;" horiz-adv-x="744" 
d="M679 346c0 -210 -131 -359 -308 -359s-306 148 -306 357c0 210 131 359 308 359s306 -148 306 -357zM629 344c0 186 -105 316 -258 316c-152 0 -256 -130 -256 -314c0 -186 105 -316 258 -316c152 0 256 130 256 314z" />
    <glyph glyph-name="uni03A0" unicode="&#x3a0;" horiz-adv-x="703" 
d="M603 0h-48v647h-407v-647h-48v690h503v-690z" />
    <glyph glyph-name="uni03A1" unicode="&#x3a1;" horiz-adv-x="527" 
d="M480 500c0 -131 -102 -200 -236 -200h-96v-300h-48v690h158c137 0 222 -69 222 -190zM430 498c0 98 -61 149 -174 149h-108v-304h98c114 0 184 52 184 155z" />
    <glyph glyph-name="uni03A3" unicode="&#x3a3;" horiz-adv-x="579" 
d="M316 361l-251 296v33h461v-42h-397l243 -285l-258 -321h419l6 -42h-484v33z" />
    <glyph glyph-name="uni03A4" unicode="&#x3a4;" horiz-adv-x="562" 
d="M532 646h-227v-646h-48v646h-224v44h493z" />
    <glyph glyph-name="uni03A5" unicode="&#x3a5;" horiz-adv-x="621" 
d="M580 690l-246 -394v-296h-48v295l-245 392l51 10l219 -360l214 353h55z" />
    <glyph glyph-name="uni03A6" unicode="&#x3a6;" horiz-adv-x="868" 
d="M458 -13h-48v83c-227 4 -349 122 -349 276s123 273 349 278v79h48v-79c225 -5 349 -122 349 -278c0 -154 -126 -272 -349 -276v-83zM109 347c0 -136 106 -233 302 -236v472c-196 -3 -302 -102 -302 -236zM759 347c0 136 -110 233 -302 236v-472c192 3 302 99 302 236z
" />
    <glyph glyph-name="uni03A7" unicode="&#x3a7;" horiz-adv-x="635" 
d="M587 5l-47 -10l-224 330l-219 -325h-52l244 359l-222 325l47 10l202 -299l199 295h52l-223 -329z" />
    <glyph glyph-name="uni03A8" unicode="&#x3a8;" horiz-adv-x="716" 
d="M382 0h-48v232h-1c-174 0 -263 77 -263 240v218h48v-216c0 -140 71 -200 216 -200v416h48v-416c148 0 216 61 216 199v217h48v-215c0 -169 -95 -243 -264 -243v-232z" />
    <glyph glyph-name="uni03A9" unicode="&#x3a9;" horiz-adv-x="754" 
d="M76 42h165l18 -1l-26 24c-99 89 -165 186 -165 325c0 172 124 313 309 313c191 0 309 -141 309 -313c0 -142 -70 -235 -166 -324l-27 -25l20 1h165v-42h-240l-6 40l52 49c93 87 150 169 150 306c0 144 -102 265 -257 265s-257 -121 -257 -265c0 -131 53 -214 150 -306
l52 -49l-6 -40h-240v42z" />
    <glyph glyph-name="uni03B1" unicode="&#x3b1;" horiz-adv-x="613" 
d="M232 480c94 0 136 -51 192 -203l90 193h50l-118 -244l48 -140c14 -40 25 -53 58 -53c13 0 27 3 39 7l-5 -41c-12 -4 -28 -7 -45 -7c-52 0 -70 20 -91 84l-32 99c-64 -125 -104 -185 -191 -185c-97 0 -175 93 -175 245c0 146 81 245 180 245zM229 31c57 0 95 45 169 196
c-54 157 -94 212 -168 212c-73 0 -130 -91 -130 -202c0 -119 55 -206 129 -206z" />
    <glyph glyph-name="uni03B2" unicode="&#x3b2;" horiz-adv-x="541" 
d="M288 -10c-64 0 -114 20 -159 48v-210l-46 -9v686c0 119 77 207 192 207c111 0 178 -78 178 -171c0 -91 -52 -149 -145 -181c105 -21 187 -74 187 -188c0 -104 -84 -182 -207 -182zM129 507v-419c45 -32 100 -57 161 -57c97 0 157 67 157 139c0 99 -72 141 -199 167l-6 34
c122 41 164 88 164 167c0 76 -55 133 -132 133c-83 0 -145 -69 -145 -164z" />
    <glyph glyph-name="uni03B3" unicode="&#x3b3;" horiz-adv-x="466" 
d="M208 -181v47c0 176 -50 319 -125 476l-59 123l48 10l54 -116c71 -152 93 -235 106 -331c11 96 32 179 106 331l54 111h50l-62 -128c-84 -173 -125 -289 -125 -476v-37z" />
    <glyph glyph-name="uni03B4" unicode="&#x3b4;" horiz-adv-x="529" 
d="M106 669v40h324l-6 -40h-258l176 -193c97 -103 135 -175 135 -262c0 -122 -90 -224 -215 -224c-129 0 -210 106 -210 225c0 133 84 216 216 278zM310 448l-13 14c-123 -54 -196 -135 -196 -245c0 -99 65 -186 162 -186c92 0 165 81 165 181c0 84 -34 144 -118 236z" />
    <glyph glyph-name="uni03B5" unicode="&#x3b5;" horiz-adv-x="457" 
d="M65 352c0 72 67 128 175 128c63 0 117 -18 166 -45l-9 -42c-45 27 -96 47 -158 47c-81 0 -126 -38 -126 -88c0 -60 49 -91 147 -91h70l7 -42h-76c-98 0 -157 -37 -157 -99c0 -54 44 -90 130 -90c63 0 121 20 174 49l9 -40c-50 -27 -115 -49 -184 -49
c-117 0 -177 50 -177 126c0 59 41 103 108 122c-64 17 -99 58 -99 114z" />
    <glyph glyph-name="uni03B6" unicode="&#x3b6;" horiz-adv-x="431" 
d="M407 -40c0 -30 -12 -58 -63 -144l-40 6c52 95 57 115 57 129c0 20 -15 30 -138 69c-116 37 -168 82 -168 168c0 66 30 120 116 230l196 251h-266l6 40h310v-38l-207 -274c-79 -104 -106 -146 -106 -208c0 -61 39 -98 134 -127c145 -44 169 -60 169 -102z" />
    <glyph glyph-name="uni03B7" unicode="&#x3b7;" horiz-adv-x="520" 
d="M83 470h34l12 -71c57 50 109 81 171 81c97 0 143 -55 143 -149v-502l-47 -10v508c0 71 -34 110 -101 110c-52 0 -106 -30 -165 -85v-352h-47v470z" />
    <glyph glyph-name="uni03B8" unicode="&#x3b8;" horiz-adv-x="572" 
d="M286 712c138 0 225 -133 225 -360c0 -225 -89 -362 -225 -362c-138 0 -225 133 -225 360c0 225 89 362 225 362zM286 30c107 0 175 117 179 304h-358c3 -187 71 -304 179 -304zM286 672c-106 0 -173 -114 -179 -296h357c-5 182 -72 296 -178 296z" />
    <glyph glyph-name="uni03B9" unicode="&#x3b9;" horiz-adv-x="248" 
d="M85 470h47v-384c0 -37 15 -53 48 -53c13 0 27 3 39 7l-5 -41c-12 -4 -28 -7 -45 -7c-52 0 -84 25 -84 92v386z" />
    <glyph glyph-name="uni03BA" unicode="&#x3ba;" horiz-adv-x="452" 
d="M413 472l6 -46c-38 -2 -58 -8 -103 -51l-133 -125l249 -245l-55 -10l-247 248v-243h-47v470h47v-216l156 153c55 54 79 63 127 65z" />
    <glyph glyph-name="uni03BB" unicode="&#x3bb;" horiz-adv-x="484" 
d="M449 5l-46 -10l-154 419l-158 -414h-49l184 472l-47 126c-20 53 -42 72 -86 72c-8 0 -17 0 -27 -2l7 42c6 1 15 2 25 2c59 0 93 -19 122 -96z" />
    <glyph glyph-name="uni03BC" unicode="&#x3bc;" horiz-adv-x="542" 
d="M83 -181v651h47v-327c0 -71 34 -110 101 -110c52 0 106 30 165 85v352h47v-387c0 -34 15 -50 41 -50c13 0 24 2 36 7l-5 -41c-12 -5 -27 -7 -40 -7c-45 0 -75 22 -77 77c-56 -47 -110 -79 -172 -79c-46 0 -79 17 -102 47c4 -42 6 -89 6 -138v-70z" />
    <glyph glyph-name="uni03BD" unicode="&#x3bd;" horiz-adv-x="477" 
d="M372 470h47v-45c0 -180 -71 -312 -162 -430h-42l-183 470l47 10l163 -434c80 113 130 220 130 384v45z" />
    <glyph glyph-name="uni03BE" unicode="&#x3be;" horiz-adv-x="445" 
d="M50 187c0 86 63 151 185 177c-91 23 -138 78 -138 153c0 63 37 118 104 152h-135l6 40h333v-38h-51c-135 -3 -209 -68 -209 -153c0 -84 74 -133 199 -133h29l5 -43h-26c-172 0 -253 -69 -253 -154c0 -66 42 -104 153 -135c132 -36 157 -49 157 -90
c0 -30 -12 -61 -63 -147l-40 6c52 95 57 115 57 129c0 20 -10 26 -126 60c-137 40 -187 87 -187 176z" />
    <glyph glyph-name="uni03BF" unicode="&#x3bf;" horiz-adv-x="519" 
d="M467 235c0 -155 -93 -245 -208 -245c-117 0 -207 90 -207 245c0 156 93 245 207 245c118 0 208 -89 208 -245zM418 235c0 130 -69 204 -159 204s-158 -71 -158 -204c0 -130 69 -204 158 -204c90 0 159 70 159 204z" />
    <glyph glyph-name="uni03C0" unicode="&#x3c0;" horiz-adv-x="582" 
d="M539 430h-102v-344c0 -37 15 -53 48 -53c13 0 27 3 39 7l-5 -41c-12 -4 -28 -7 -45 -7c-52 0 -84 25 -84 92v346h-217v-430h-47v430h-98l-6 40h517v-40z" />
    <glyph glyph-name="uni03C1" unicode="&#x3c1;" horiz-adv-x="514" 
d="M462 246c0 -168 -102 -252 -216 -252c-47 0 -89 11 -126 28v-193l-47 -10v430c0 138 74 231 195 231c106 0 194 -79 194 -234zM413 244c0 121 -59 195 -146 195c-86 0 -147 -70 -147 -187v-184c37 -21 78 -33 125 -33c91 0 168 68 168 209z" />
    <glyph glyph-name="uni03C3" unicode="&#x3c3;" horiz-adv-x="543" 
d="M508 428h-114c40 -53 73 -122 73 -205c0 -127 -85 -233 -212 -233c-117 0 -203 98 -203 239c0 135 89 241 240 241h210zM418 223c0 78 -32 147 -77 205h-49c-118 0 -191 -84 -191 -201c0 -120 70 -196 155 -196c98 0 162 86 162 192z" />
    <glyph glyph-name="uni03C2" unicode="&#x3c2;" horiz-adv-x="459" 
d="M52 247c0 138 91 233 208 233c61 0 113 -21 154 -52l-9 -48c-47 40 -91 59 -147 59c-91 0 -157 -83 -157 -192c0 -99 50 -145 143 -179c133 -48 162 -66 162 -108c0 -30 -12 -58 -63 -144l-40 6c52 95 57 115 57 129c0 20 -12 30 -133 75c-114 42 -175 93 -175 221z" />
    <glyph glyph-name="uni03C4" unicode="&#x3c4;" horiz-adv-x="449" 
d="M386 12c-26 -11 -57 -20 -92 -20c-78 0 -112 44 -112 117v321h-155v40h375l6 -40h-179v-320c0 -52 21 -77 69 -77c29 0 58 9 82 19z" />
    <glyph glyph-name="uni03C5" unicode="&#x3c5;" horiz-adv-x="508" 
d="M433 186c0 -119 -65 -196 -180 -196c-114 0 -178 78 -178 192v288h47v-281c0 -95 45 -157 131 -157s133 57 133 153v285h47v-284z" />
    <glyph glyph-name="uni03C6" unicode="&#x3c6;" horiz-adv-x="700" 
d="M652 235c0 -131 -101 -232 -279 -238v-168l-46 -10v177c-181 6 -279 106 -279 239c0 131 100 231 279 238v232l46 10v-241c180 -7 279 -106 279 -239zM603 235c0 108 -79 191 -230 197v-395c149 7 230 91 230 198zM97 235c0 -109 78 -191 230 -198v395
c-150 -6 -230 -91 -230 -197z" />
    <glyph glyph-name="uni03C7" unicode="&#x3c7;" horiz-adv-x="475" 
d="M440 470l-174 -301l194 -338l-46 -12l-175 312l-173 -307h-51l199 345l-172 297l46 12l152 -271l149 263h51z" />
    <glyph glyph-name="uni03C8" unicode="&#x3c8;" horiz-adv-x="660" 
d="M353 -171l-46 -10v174c-153 1 -232 73 -232 229v248h46v-248c0 -129 57 -187 186 -188v671l46 10v-681c130 1 186 59 186 188v248h46v-248c0 -156 -80 -228 -232 -229v-164z" />
    <glyph glyph-name="uni03C9" unicode="&#x3c9;" horiz-adv-x="765" 
d="M359 380h47v-93c0 -169 54 -256 142 -256c66 0 112 69 112 182c0 86 -31 168 -96 250l46 11c67 -82 99 -163 99 -263c0 -135 -66 -221 -161 -221c-83 0 -144 56 -167 159c-22 -103 -82 -159 -164 -159c-95 0 -161 86 -161 221c0 100 32 181 99 263l46 -11
c-65 -82 -96 -164 -96 -250c0 -113 48 -182 114 -182c88 0 140 87 140 256v93z" />
    <glyph glyph-name="uni0410" unicode="&#x410;" horiz-adv-x="694" 
d="M47 0l274 694h52l274 -690l-48 -11l-95 243h-315l-92 -236h-50zM346 640l-141 -361h282z" />
    <glyph glyph-name="uni0411" unicode="&#x411;" horiz-adv-x="535" 
d="M484 198c0 -122 -88 -198 -236 -198h-148v690h325l7 -43h-284v-257h114c138 0 222 -67 222 -192zM434 196c0 99 -61 151 -175 151h-111v-304h102c119 0 184 57 184 153z" />
    <glyph glyph-name="uni0412" unicode="&#x412;" horiz-adv-x="549" 
d="M490 196c0 -126 -98 -196 -236 -196h-154v690h154c134 0 205 -66 205 -167c0 -76 -46 -131 -110 -157c86 -23 141 -76 141 -170zM410 521c0 79 -55 126 -158 126h-104v-265h105c104 0 157 64 157 139zM441 191c0 105 -76 150 -187 150h-106v-298h110
c111 0 183 57 183 148z" />
    <glyph glyph-name="uni0413" unicode="&#x413;" horiz-adv-x="465" 
d="M100 690h328l7 -44h-287v-646h-48v690z" />
    <glyph glyph-name="uni0414" unicode="&#x414;" horiz-adv-x="721" 
d="M82 -159h-46v204c156 146 205 252 230 470l20 175h325v-647h54v-198l-46 -7v162h-537v-159zM327 647l-15 -139c-25 -228 -81 -340 -217 -465h468v604h-236z" />
    <glyph glyph-name="uni0414.alt" horiz-adv-x="761" 
d="M37 43h46l271 651h52l271 -651h47v-198l-46 -7v162h-595v-159h-46v202zM379 636l-246 -595h492z" />
    <glyph glyph-name="uni0415" unicode="&#x415;" horiz-adv-x="508" 
d="M459 0h-359v690h349v-44h-301v-263h241l7 -44h-248v-295h311v-44z" />
    <glyph glyph-name="uni0401" unicode="&#x401;" horiz-adv-x="508" 
d="M459 0h-359v690h349v-44h-301v-263h241l7 -44h-248v-295h311v-44zM393 766h-70v79h70v-79zM226 766h-69v79h69v-79z" />
    <glyph glyph-name="uni0416" unicode="&#x416;" horiz-adv-x="881" 
d="M100 697l318 -323l-2 316h48l-2 -316l311 316h61l-321 -322l341 -363l-52 -12l-340 368l2 -361h-48l2 361l-330 -361h-61l340 368l-319 317z" />
    <glyph glyph-name="uni0417" unicode="&#x417;" horiz-adv-x="538" 
d="M468 185c0 -108 -90 -196 -227 -196c-76 0 -139 22 -189 51l8 48c54 -33 116 -56 182 -56c111 0 177 70 177 153c0 98 -77 154 -212 154h-54l-5 44h67c119 0 191 63 191 144c0 80 -56 131 -150 131c-67 0 -127 -19 -188 -53l-6 46c56 30 117 50 196 50
c126 0 199 -72 199 -171c0 -82 -58 -143 -142 -168c98 -25 153 -81 153 -177z" />
    <glyph glyph-name="uni0418" unicode="&#x418;" horiz-adv-x="707" 
d="M139 0h-39v690h47v-602l410 602h50v-690h-47v619z" />
    <glyph glyph-name="uni0419" unicode="&#x419;" horiz-adv-x="707" 
d="M139 0h-39v690h47v-602l410 602h50v-690h-47v619zM477 866c-7 -53 -44 -109 -124 -109s-117 56 -124 109l35 5c12 -42 45 -67 89 -67s76 25 89 67z" />
    <glyph glyph-name="uni041A" unicode="&#x41a;" horiz-adv-x="603" 
d="M580 5l-56 -12l-376 368v-361h-48v690h48v-318l347 318h65l-356 -321z" />
    <glyph glyph-name="uni041B" unicode="&#x41b;" horiz-adv-x="685" 
d="M585 690v-690h-48v647h-255l-26 -240c-31 -287 -78 -382 -227 -419l-7 46c124 33 158 125 187 383l31 273h345z" />
    <glyph glyph-name="uni041B.alt" horiz-adv-x="683" 
d="M47 0l274 694h44l271 -690l-47 -11l-247 643l-245 -636h-50z" />
    <glyph glyph-name="uni041B.bgr" horiz-adv-x="683" 
d="M47 0l274 694h44l271 -690l-47 -11l-247 643l-245 -636h-50z" />
    <glyph glyph-name="uni041C" unicode="&#x41c;" horiz-adv-x="913" 
d="M828 0h-48l-47 621l-257 -625h-40l-257 625l-47 -621h-46l56 690h59l256 -631l257 631h58z" />
    <glyph glyph-name="uni041C.alt" horiz-adv-x="886" 
d="M785 0h-48v608l-275 -611h-40l-275 611v-608h-46v690h60l282 -634l282 634h60v-690z" />
    <glyph glyph-name="uni041D" unicode="&#x41d;" horiz-adv-x="707" 
d="M607 0h-48v340h-411v-340h-48v690h48v-307h411v307h48v-690z" />
    <glyph glyph-name="uni041E" unicode="&#x41e;" horiz-adv-x="744" 
d="M679 346c0 -210 -131 -359 -308 -359s-306 148 -306 357c0 210 131 359 308 359s306 -148 306 -357zM629 344c0 186 -105 316 -258 316c-152 0 -256 -130 -256 -314c0 -186 105 -316 258 -316c152 0 256 130 256 314z" />
    <glyph glyph-name="uni041F" unicode="&#x41f;" horiz-adv-x="703" 
d="M603 0h-48v647h-407v-647h-48v690h503v-690z" />
    <glyph glyph-name="uni0420" unicode="&#x420;" horiz-adv-x="527" 
d="M480 500c0 -131 -102 -200 -236 -200h-96v-300h-48v690h158c137 0 222 -69 222 -190zM430 498c0 98 -61 149 -174 149h-108v-304h98c114 0 184 52 184 155z" />
    <glyph glyph-name="uni0421" unicode="&#x421;" horiz-adv-x="643" 
d="M585 58c-52 -40 -126 -71 -211 -71c-181 0 -309 144 -309 357c0 210 130 359 317 359c74 0 140 -24 192 -60l-9 -49c-57 41 -117 66 -184 66c-163 0 -266 -130 -266 -314c0 -185 104 -316 263 -316c75 0 144 30 200 74z" />
    <glyph glyph-name="uni0422" unicode="&#x422;" horiz-adv-x="562" 
d="M532 646h-227v-646h-48v646h-224v44h493z" />
    <glyph glyph-name="uni0423" unicode="&#x423;" horiz-adv-x="631" 
d="M601 690l-304 -588c-42 -81 -85 -115 -149 -115c-20 0 -35 4 -47 9l-7 48c21 -8 32 -12 57 -12c44 0 74 31 105 89l53 98l-254 467l51 11l228 -430l212 423h55z" />
    <glyph glyph-name="uni0424" unicode="&#x424;" horiz-adv-x="868" 
d="M458 -13h-48v83c-227 4 -349 122 -349 276s123 273 349 278v79h48v-79c225 -5 349 -122 349 -278c0 -154 -126 -272 -349 -276v-83zM109 347c0 -136 106 -233 302 -236v472c-196 -3 -302 -102 -302 -236zM759 347c0 136 -110 233 -302 236v-472c192 3 302 99 302 236z
" />
    <glyph glyph-name="uni0424.bgr" horiz-adv-x="844" 
d="M446 -99h-48v99c-200 5 -336 142 -336 344s136 340 336 346v99h48v-99c200 -5 336 -143 336 -344c0 -202 -136 -340 -336 -346v-99zM732 344c0 176 -113 299 -287 304v-606c174 4 287 127 287 302zM112 346c0 -177 113 -299 287 -304v606c-174 -4 -287 -127 -287 -302z
" />
    <glyph glyph-name="uni0425" unicode="&#x425;" horiz-adv-x="635" 
d="M587 5l-47 -10l-224 330l-219 -325h-52l244 359l-222 325l47 10l202 -299l199 295h52l-223 -329z" />
    <glyph glyph-name="uni0426" unicode="&#x426;" horiz-adv-x="710" 
d="M148 43h404v647h48v-647h54v-198l-46 -7v162h-508v690h48v-647z" />
    <glyph glyph-name="uni0427" unicode="&#x427;" horiz-adv-x="600" 
d="M75 690h48v-227c0 -104 61 -156 171 -156c56 0 104 6 158 20v363h48v-690h-48v284c-52 -12 -99 -20 -160 -20c-138 0 -217 68 -217 197v229z" />
    <glyph glyph-name="uni0428" unicode="&#x428;" horiz-adv-x="956" 
d="M148 43h306v647h48v-647h306v647h48v-690h-756v690h48v-647z" />
    <glyph glyph-name="uni0429" unicode="&#x429;" horiz-adv-x="962" 
d="M148 43h304v647h48v-647h304v647h48v-647h54v-198l-46 -7v162h-760v690h48v-647z" />
    <glyph glyph-name="uni042A" unicode="&#x42a;" horiz-adv-x="662" 
d="M615 198c0 -122 -88 -198 -236 -198h-144v647h-210l6 43h252v-300h110c138 0 222 -67 222 -192zM565 196c0 99 -61 151 -175 151h-107v-304h98c119 0 184 57 184 153z" />
    <glyph glyph-name="uni042B" unicode="&#x42b;" horiz-adv-x="748" 
d="M480 198c0 -122 -88 -198 -236 -198h-144v690h48v-300h110c138 0 222 -67 222 -192zM430 196c0 99 -61 151 -175 151h-107v-304h98c119 0 184 57 184 153zM643 0h-48v690h48v-690z" />
    <glyph glyph-name="uni042C" unicode="&#x42c;" horiz-adv-x="527" 
d="M480 198c0 -122 -88 -198 -236 -198h-144v690h48v-300h110c138 0 222 -67 222 -192zM430 196c0 99 -61 151 -175 151h-107v-304h98c119 0 184 57 184 153z" />
    <glyph glyph-name="uni042D" unicode="&#x42d;" horiz-adv-x="645" 
d="M71 589l-7 46c60 44 131 68 207 68c181 0 309 -144 309 -357c0 -210 -130 -359 -317 -359c-80 0 -147 28 -203 67l9 49c61 -44 122 -74 195 -74c157 0 259 122 266 296l-371 -1l-7 45l378 -1c-8 172 -111 293 -263 293c-70 0 -140 -28 -196 -72z" />
    <glyph glyph-name="uni042E" unicode="&#x42e;" horiz-adv-x="957" 
d="M890 346c0 -205 -120 -359 -293 -359c-168 0 -284 143 -291 338h-158v-325h-48v690h48v-322h158c9 193 127 335 293 335c173 0 291 -153 291 -357zM840 344c0 180 -99 316 -243 316c-143 0 -241 -136 -241 -314c0 -180 99 -316 243 -316c143 0 241 136 241 314z" />
    <glyph glyph-name="uni042F" unicode="&#x42f;" horiz-adv-x="564" 
d="M28 4l219 310c-102 18 -163 91 -163 185c0 114 85 191 220 191h160v-690h-48v309h-118l-219 -316zM134 501c0 -89 66 -150 167 -150h115v296h-115c-107 0 -167 -57 -167 -146z" />
    <glyph glyph-name="uni0430" unicode="&#x430;" horiz-adv-x="481" 
d="M404 0h-33l-11 63c-49 -43 -107 -73 -166 -73c-79 0 -142 40 -142 125c0 105 80 161 306 182v41c0 66 -39 98 -104 98c-54 0 -109 -15 -161 -42l-6 44c53 24 107 41 169 41c96 0 148 -49 148 -139v-340zM358 106v152c-194 -21 -258 -62 -258 -139c0 -60 43 -88 96 -88
c50 0 111 30 162 75z" />
    <glyph glyph-name="uni0431" unicode="&#x431;" horiz-adv-x="519" 
d="M316 657c-137 -19 -212 -78 -221 -298c32 62 88 111 173 111c121 0 199 -88 199 -232c0 -152 -90 -248 -208 -248c-49 0 -93 16 -128 49c-49 47 -79 116 -79 252c0 293 76 384 258 409l111 15l7 -43zM418 238c0 121 -61 191 -151 191c-99 0 -166 -86 -166 -201
c0 -124 69 -197 158 -197c93 0 159 76 159 207z" />
    <glyph glyph-name="uni0432" unicode="&#x432;" horiz-adv-x="486" 
d="M434 134c0 -87 -65 -134 -175 -134h-176v470h177c104 0 154 -48 154 -114c0 -50 -27 -86 -84 -107c69 -15 104 -56 104 -115zM389 136c0 60 -51 92 -129 92h-131v-189h133c83 0 127 35 127 97zM370 353c0 47 -35 78 -113 78h-128v-166h125c75 0 116 37 116 88z" />
    <glyph glyph-name="uni0432.bgr" horiz-adv-x="533" 
d="M74 217v276c0 133 77 223 200 223c108 0 178 -79 178 -174c0 -108 -72 -164 -134 -186c96 -27 161 -90 161 -187c0 -98 -73 -179 -196 -179c-124 0 -209 82 -209 227zM214 333h-93v-114c0 -118 65 -186 163 -186c91 0 146 61 146 136c0 97 -84 164 -216 164zM121 495
v-121h96c118 0 186 73 186 165c0 78 -53 134 -129 134c-97 0 -153 -78 -153 -178z" />
    <glyph glyph-name="uni0433" unicode="&#x433;" horiz-adv-x="396" 
d="M83 0v470h280l6 -42h-239v-428h-47z" />
    <glyph glyph-name="uni0433.bgr" horiz-adv-x="434" 
d="M52 117c0 74 40 110 162 147c84 25 112 49 112 93c0 46 -32 79 -103 79c-45 0 -93 -16 -136 -40l-8 44c38 21 89 39 145 39c93 0 148 -51 148 -120c0 -73 -43 -106 -147 -137c-100 -30 -127 -57 -127 -103c0 -50 38 -85 115 -85c60 0 120 24 164 52l9 -44
c-42 -26 -102 -50 -175 -50c-101 0 -159 49 -159 125z" />
    <glyph glyph-name="uni0434" unicode="&#x434;" horiz-adv-x="536" 
d="M27 -148v190c84 84 124 136 144 300l16 128h256v-430h50v-185l-45 -8v153h-376v-148h-45zM228 430l-12 -99c-20 -165 -67 -229 -132 -291h313v390h-169z" />
    <glyph glyph-name="uni0434.alt" horiz-adv-x="544" 
d="M470 -153v153h-396v-148h-45v188h42l177 438h49l176 -438h42v-185zM271 426l-152 -386h303z" />
    <glyph glyph-name="uni0434.bgr" horiz-adv-x="526" 
d="M443 6c0 -121 -69 -184 -189 -184c-61 0 -118 14 -172 35l9 45c54 -26 109 -38 168 -38c94 0 137 50 137 140v73c-34 -39 -79 -78 -149 -78c-104 0 -193 74 -193 228c0 166 102 250 227 250c62 0 117 -15 162 -32v-439zM396 128v286c-30 11 -69 22 -121 22
c-95 0 -172 -65 -172 -207c0 -122 61 -187 145 -187c57 0 102 34 148 86z" />
    <glyph glyph-name="uni0435" unicode="&#x435;" horiz-adv-x="484" 
d="M431 59c-43 -39 -105 -69 -172 -69c-124 0 -207 92 -207 245c0 150 83 245 197 245c120 0 183 -105 183 -235v-10h-332c0 -120 56 -204 161 -204c57 0 117 30 163 72zM249 441c-82 0 -137 -63 -148 -167h282c-3 92 -52 167 -134 167z" />
    <glyph glyph-name="uni0451" unicode="&#x451;" horiz-adv-x="484" 
d="M431 59c-43 -39 -105 -69 -172 -69c-124 0 -207 92 -207 245c0 150 83 245 197 245c120 0 183 -105 183 -235v-10h-332c0 -120 56 -204 161 -204c57 0 117 30 163 72zM249 441c-82 0 -137 -63 -148 -167h282c-3 92 -52 167 -134 167zM367 566h-70v79h70v-79zM200 566h-69
v79h69v-79z" />
    <glyph glyph-name="uni0436" unicode="&#x436;" horiz-adv-x="676" 
d="M85 0h-63l242 249l-225 216l52 10l225 -221l-2 216h47l-2 -216l220 216h63l-231 -219l243 -246l-52 -10l-243 251l2 -246h-47l2 245z" />
    <glyph glyph-name="uni0436.bgr" horiz-adv-x="676" 
d="M85 0h-63l242 249l-225 216l52 10l225 -221l-2 451l47 10l-2 -461l220 216h63l-231 -219l243 -246l-52 -10l-243 251l2 -246h-47l2 245z" />
    <glyph glyph-name="uni0437" unicode="&#x437;" horiz-adv-x="462" 
d="M394 356c0 -62 -39 -100 -107 -116c72 -12 116 -56 116 -117c0 -80 -68 -134 -184 -134c-65 0 -122 19 -175 47l8 44c64 -33 110 -48 167 -48c90 0 136 36 136 91c0 60 -55 96 -154 96h-73l-6 42h84c85 0 141 35 141 91c0 48 -37 84 -122 84c-62 0 -114 -22 -163 -46
l-6 45c50 24 106 44 170 44c112 0 168 -53 168 -123z" />
    <glyph glyph-name="uni0438" unicode="&#x438;" horiz-adv-x="538" 
d="M83 0v470h46v-397l273 397h53v-470h-46v409l-281 -409h-45z" />
    <glyph glyph-name="uni0438.bgr" horiz-adv-x="520" 
d="M437 0h-34l-12 71c-57 -50 -109 -81 -171 -81c-97 0 -143 55 -143 149v331h47v-327c0 -71 34 -110 101 -110c52 0 106 30 165 85v352h47v-470z" />
    <glyph glyph-name="uni0439" unicode="&#x439;" horiz-adv-x="538" 
d="M83 0v470h46v-397l273 397h53v-470h-46v409l-281 -409h-45zM393 661c-7 -53 -44 -109 -124 -109s-117 56 -124 109l35 5c12 -42 45 -67 89 -67s76 25 89 67z" />
    <glyph glyph-name="uni0439.bgr" horiz-adv-x="520" 
d="M437 0h-34l-12 71c-57 -50 -109 -81 -171 -81c-97 0 -143 55 -143 149v331h47v-327c0 -71 34 -110 101 -110c52 0 106 30 165 85v352h47v-470zM382 661c-7 -53 -44 -109 -124 -109s-117 56 -124 109l35 5c12 -42 45 -67 89 -67s76 25 89 67z" />
    <glyph glyph-name="uni043A" unicode="&#x43a;" horiz-adv-x="452" 
d="M377 -5l-247 248v-243h-47v470h47v-216l223 216h67l-237 -220l249 -245z" />
    <glyph glyph-name="uni043A.bgr" horiz-adv-x="454" 
d="M435 5l-52 -12l-253 259v-252h-47v705l47 10v-451l223 206h67l-237 -211z" />
    <glyph glyph-name="uni043B" unicode="&#x43b;" horiz-adv-x="529" 
d="M17 37c85 16 112 53 137 263l20 170h272v-470h-47v430h-183l-16 -139c-28 -239 -69 -280 -176 -298z" />
    <glyph glyph-name="uni043B.alt" horiz-adv-x="482" 
d="M35 0l185 478h45l182 -473l-47 -10l-159 426l-157 -421h-49z" />
    <glyph glyph-name="uni043B.bgr" horiz-adv-x="482" 
d="M35 0l185 478h45l182 -473l-47 -10l-159 426l-157 -421h-49z" />
    <glyph glyph-name="uni043C" unicode="&#x43c;" horiz-adv-x="706" 
d="M639 0h-46l-30 414l-192 -417h-38l-191 418l-30 -415h-45l38 470h61l188 -417l188 417h59z" />
    <glyph glyph-name="uni043D" unicode="&#x43d;" horiz-adv-x="528" 
d="M445 0h-47v227h-268v-227h-47v470h47v-201h268v201h47v-470z" />
    <glyph glyph-name="uni043E" unicode="&#x43e;" horiz-adv-x="519" 
d="M467 235c0 -155 -93 -245 -208 -245c-117 0 -207 90 -207 245c0 156 93 245 207 245c118 0 208 -89 208 -245zM418 235c0 130 -69 204 -159 204s-158 -71 -158 -204c0 -130 69 -204 158 -204c90 0 159 70 159 204z" />
    <glyph glyph-name="uni043F" unicode="&#x43f;" horiz-adv-x="526" 
d="M443 0h-47v430h-266v-430h-47v470h360v-470z" />
    <glyph glyph-name="uni043F.bgr" horiz-adv-x="520" 
d="M443 0h-47v327c0 71 -34 110 -101 110c-52 0 -106 -30 -165 -85v-352h-47v470h34l12 -71c57 50 109 81 171 81c97 0 143 -55 143 -149v-331z" />
    <glyph glyph-name="uni0440" unicode="&#x440;" horiz-adv-x="526" 
d="M472 248c0 -171 -102 -254 -216 -254c-47 0 -89 9 -126 24v-189l-47 -10v651h34l12 -68c38 43 82 78 150 78c104 0 193 -74 193 -232zM423 246c0 124 -61 191 -145 191c-57 0 -101 -33 -148 -86v-287c37 -18 78 -29 125 -29c94 0 168 67 168 211z" />
    <glyph glyph-name="uni0441" unicode="&#x441;" horiz-adv-x="464" 
d="M417 47c-43 -36 -95 -57 -158 -57c-115 0 -207 90 -207 245c0 156 93 245 210 245c59 0 111 -21 152 -52l-9 -48c-47 40 -91 59 -145 59c-91 0 -159 -74 -159 -204c0 -121 66 -204 163 -204c51 0 98 18 147 60z" />
    <glyph glyph-name="uni0442" unicode="&#x442;" horiz-adv-x="447" 
d="M201 0v430h-174v40h388l6 -40h-173v-430h-47z" />
    <glyph glyph-name="uni0442.bgr" horiz-adv-x="822" 
d="M745 0h-47v327c0 71 -31 110 -99 110c-50 0 -103 -29 -162 -83v-354h-46v327c0 71 -31 110 -99 110c-50 0 -104 -29 -162 -82v-355h-47v470h34l12 -68c56 48 107 78 168 78c74 0 116 -30 132 -85c59 52 112 85 176 85c97 0 140 -54 140 -147v-333z" />
    <glyph glyph-name="uni0443" unicode="&#x443;" horiz-adv-x="477" 
d="M442 470l-206 -542c-29 -78 -63 -106 -126 -106c-8 0 -16 1 -22 2l-7 41c7 0 16 -1 30 -1c41 0 63 17 83 69l25 64l-183 468l46 10l160 -422l151 417h49z" />
    <glyph glyph-name="uni0444" unicode="&#x444;" horiz-adv-x="700" 
d="M652 235c0 -131 -101 -232 -279 -238v-168l-46 -10v177c-181 6 -279 106 -279 239c0 131 100 231 279 238v232l46 10v-241c180 -7 279 -106 279 -239zM603 235c0 108 -79 191 -230 197v-395c149 7 230 91 230 198zM97 235c0 -109 78 -191 230 -198v395
c-150 -6 -230 -91 -230 -197z" />
    <glyph glyph-name="uni0445" unicode="&#x445;" horiz-adv-x="468" 
d="M428 4l-47 -11l-148 215l-141 -208h-52l168 242l-158 224l47 12l138 -200l133 192h52l-161 -226z" />
    <glyph glyph-name="uni0446" unicode="&#x446;" horiz-adv-x="534" 
d="M83 0v470h47v-430h264v430h47v-430h50v-185l-45 -8v153h-363z" />
    <glyph glyph-name="uni0446.bgr" horiz-adv-x="530" 
d="M442 -153v153h-39l-12 71c-57 -50 -109 -81 -171 -81c-97 0 -143 55 -143 149v331h47v-327c0 -71 34 -110 101 -110c52 0 106 30 165 85v352h47v-430h50v-185z" />
    <glyph glyph-name="uni0447" unicode="&#x447;" horiz-adv-x="478" 
d="M62 470h47v-147c0 -73 38 -111 115 -111c39 0 80 8 124 22v236h47v-470h-47v191c-42 -13 -83 -22 -129 -22c-100 0 -157 52 -157 152v149z" />
    <glyph glyph-name="uni0448" unicode="&#x448;" horiz-adv-x="789" 
d="M371 470h47v-430h241v430h47v-470h-623v470h47v-430h241v430z" />
    <glyph glyph-name="uni0448.bgr" horiz-adv-x="822" 
d="M77 470h47v-327c0 -71 31 -110 99 -110c50 0 103 29 162 83v354h46v-327c0 -71 31 -110 99 -110c50 0 104 29 162 82v355h47v-470h-34l-12 68c-56 -48 -107 -78 -168 -78c-74 0 -116 30 -132 85c-59 -52 -112 -85 -176 -85c-97 0 -140 54 -140 147v333z" />
    <glyph glyph-name="uni0449" unicode="&#x449;" horiz-adv-x="799" 
d="M371 470h47v-430h241v430h47v-430h50v-185l-45 -8v153h-628v470h47v-430h241v430z" />
    <glyph glyph-name="uni0449.bgr" horiz-adv-x="832" 
d="M77 470h47v-327c0 -71 31 -110 99 -110c50 0 103 29 162 83v354h46v-327c0 -71 31 -110 99 -110c50 0 104 29 162 82v355h47v-430h50v-185l-45 -8v153h-39l-12 68c-56 -48 -107 -78 -168 -78c-74 0 -116 30 -132 85c-59 -52 -112 -85 -176 -85c-97 0 -140 54 -140 147
v333z" />
    <glyph glyph-name="uni044A" unicode="&#x44a;" horiz-adv-x="542" 
d="M504 154c0 -96 -72 -154 -183 -154h-148v429h-151l6 41h192v-172h108c119 0 176 -57 176 -144zM456 151c0 66 -39 107 -129 107h-107v-218h102c85 0 134 42 134 111z" />
    <glyph glyph-name="uni044B" unicode="&#x44b;" horiz-adv-x="640" 
d="M554 0h-46v470h46v-470zM406 154c0 -96 -72 -154 -183 -154h-140v470h47v-172h100c119 0 176 -57 176 -144zM358 151c0 66 -39 107 -129 107h-99v-218h94c85 0 134 42 134 111z" />
    <glyph glyph-name="uni044C" unicode="&#x44c;" horiz-adv-x="452" 
d="M414 154c0 -96 -72 -154 -183 -154h-148v470h47v-172h108c119 0 176 -57 176 -144zM366 151c0 66 -39 107 -129 107h-107v-218h102c85 0 134 42 134 111z" />
    <glyph glyph-name="uni044D" unicode="&#x44d;" horiz-adv-x="464" 
d="M60 380l-6 46c41 32 88 54 154 54c118 0 204 -92 204 -245c0 -156 -93 -245 -210 -245c-62 0 -114 23 -155 54l9 47c47 -39 92 -60 148 -60c86 0 154 64 160 184h-237l-6 43h243c-8 110 -68 181 -159 181c-56 0 -102 -24 -145 -59z" />
    <glyph glyph-name="uni044E" unicode="&#x44e;" horiz-adv-x="700" 
d="M648 235c0 -152 -91 -245 -203 -245c-110 0 -197 87 -202 230h-113v-220h-47v470h47v-208h114c10 137 96 218 201 218c115 0 203 -92 203 -245zM599 235c0 126 -67 204 -154 204s-153 -75 -153 -204c0 -126 67 -204 153 -204c87 0 154 74 154 204z" />
    <glyph glyph-name="uni044E.bgr" horiz-adv-x="700" 
d="M648 235c0 -152 -91 -245 -203 -245c-110 0 -197 87 -202 230h-113v-220h-47v705l47 10v-453h114c10 137 96 218 201 218c115 0 203 -92 203 -245zM599 235c0 126 -67 204 -154 204s-153 -75 -153 -204c0 -126 67 -204 153 -204c87 0 154 74 154 204z" />
    <glyph glyph-name="uni044F" unicode="&#x44f;" horiz-adv-x="497" 
d="M91 -5l-51 10l148 190c-71 16 -112 68 -112 133c0 87 63 142 178 142h160v-470h-47v190h-129zM124 331c0 -60 43 -102 123 -102h120v201h-115c-84 0 -128 -37 -128 -99z" />
    <glyph glyph-name="Aacute" unicode="&#xc1;" horiz-adv-x="694" 
d="M47 0l274 694h52l274 -690l-48 -11l-95 243h-315l-92 -236h-50zM346 640l-141 -361h282zM497 902l-138 -140h-34l106 155z" />
    <glyph glyph-name="aacute" unicode="&#xe1;" horiz-adv-x="481" 
d="M404 0h-33l-11 63c-49 -43 -107 -73 -166 -73c-79 0 -142 40 -142 125c0 105 80 161 306 182v41c0 66 -39 98 -104 98c-54 0 -109 -15 -161 -42l-6 44c53 24 107 41 169 41c96 0 148 -49 148 -139v-340zM358 106v152c-194 -21 -258 -62 -258 -139c0 -60 43 -88 96 -88
c50 0 111 30 162 75zM391 692l-138 -140h-34l106 155z" />
    <glyph glyph-name="aacute.sc" horiz-adv-x="510" 
d="M75 0h-48l203 511h49l203 -506l-47 -10l-66 171h-229zM255 460l-99 -253h197zM406 722l-138 -140h-34l106 155z" />
    <glyph glyph-name="Abreve" unicode="&#x102;" horiz-adv-x="694" 
d="M47 0l274 694h52l274 -690l-48 -11l-95 243h-315l-92 -236h-50zM346 640l-141 -361h282zM471 876c-7 -53 -44 -109 -124 -109s-117 56 -124 109l35 5c12 -42 45 -67 89 -67s76 25 89 67z" />
    <glyph glyph-name="abreve" unicode="&#x103;" horiz-adv-x="481" 
d="M404 0h-33l-11 63c-49 -43 -107 -73 -166 -73c-79 0 -142 40 -142 125c0 105 80 161 306 182v41c0 66 -39 98 -104 98c-54 0 -109 -15 -161 -42l-6 44c53 24 107 41 169 41c96 0 148 -49 148 -139v-340zM358 106v152c-194 -21 -258 -62 -258 -139c0 -60 43 -88 96 -88
c50 0 111 30 162 75zM365 666c-7 -53 -44 -109 -124 -109s-117 56 -124 109l35 5c12 -42 45 -67 89 -67s76 25 89 67z" />
    <glyph glyph-name="abreve.sc" horiz-adv-x="510" 
d="M75 0h-48l203 511h49l203 -506l-47 -10l-66 171h-229zM255 460l-99 -253h197zM380 696c-7 -53 -44 -109 -124 -109s-117 56 -124 109l35 5c12 -42 45 -67 89 -67s76 25 89 67z" />
    <glyph glyph-name="Acircumflex" unicode="&#xc2;" horiz-adv-x="694" 
d="M47 0l274 694h52l274 -690l-48 -11l-95 243h-315l-92 -236h-50zM346 640l-141 -361h282zM475 752h-32l-97 93l-97 -93h-32l107 149h44z" />
    <glyph glyph-name="acircumflex" unicode="&#xe2;" horiz-adv-x="481" 
d="M404 0h-33l-11 63c-49 -43 -107 -73 -166 -73c-79 0 -142 40 -142 125c0 105 80 161 306 182v41c0 66 -39 98 -104 98c-54 0 -109 -15 -161 -42l-6 44c53 24 107 41 169 41c96 0 148 -49 148 -139v-340zM358 106v152c-194 -21 -258 -62 -258 -139c0 -60 43 -88 96 -88
c50 0 111 30 162 75zM369 552h-32l-97 93l-97 -93h-32l107 149h44z" />
    <glyph glyph-name="acircumflex.sc" horiz-adv-x="510" 
d="M75 0h-48l203 511h49l203 -506l-47 -10l-66 171h-229zM255 460l-99 -253h197zM384 572h-32l-97 93l-97 -93h-32l107 149h44z" />
    <glyph glyph-name="Adieresis" unicode="&#xc4;" horiz-adv-x="694" 
d="M47 0l274 694h52l274 -690l-48 -11l-95 243h-315l-92 -236h-50zM346 640l-141 -361h282zM465 776h-70v79h70v-79zM298 776h-69v79h69v-79z" />
    <glyph glyph-name="adieresis" unicode="&#xe4;" horiz-adv-x="481" 
d="M404 0h-33l-11 63c-49 -43 -107 -73 -166 -73c-79 0 -142 40 -142 125c0 105 80 161 306 182v41c0 66 -39 98 -104 98c-54 0 -109 -15 -161 -42l-6 44c53 24 107 41 169 41c96 0 148 -49 148 -139v-340zM358 106v152c-194 -21 -258 -62 -258 -139c0 -60 43 -88 96 -88
c50 0 111 30 162 75zM359 566h-70v79h70v-79zM192 566h-69v79h69v-79z" />
    <glyph glyph-name="adieresis.sc" horiz-adv-x="510" 
d="M75 0h-48l203 511h49l203 -506l-47 -10l-66 171h-229zM255 460l-99 -253h197zM374 596h-70v79h70v-79zM207 596h-69v79h69v-79z" />
    <glyph glyph-name="Agrave" unicode="&#xc0;" horiz-adv-x="694" 
d="M47 0l274 694h52l274 -690l-48 -11l-95 243h-315l-92 -236h-50zM346 640l-141 -361h282zM369 762h-33l-138 140l67 15z" />
    <glyph glyph-name="agrave" unicode="&#xe0;" horiz-adv-x="481" 
d="M404 0h-33l-11 63c-49 -43 -107 -73 -166 -73c-79 0 -142 40 -142 125c0 105 80 161 306 182v41c0 66 -39 98 -104 98c-54 0 -109 -15 -161 -42l-6 44c53 24 107 41 169 41c96 0 148 -49 148 -139v-340zM358 106v152c-194 -21 -258 -62 -258 -139c0 -60 43 -88 96 -88
c50 0 111 30 162 75zM263 552h-33l-138 140l67 15z" />
    <glyph glyph-name="agrave.sc" horiz-adv-x="510" 
d="M75 0h-48l203 511h49l203 -506l-47 -10l-66 171h-229zM255 460l-99 -253h197zM278 582h-33l-138 140l67 15z" />
    <glyph glyph-name="Amacron" unicode="&#x100;" horiz-adv-x="694" 
d="M47 0l274 694h52l274 -690l-48 -11l-95 243h-315l-92 -236h-50zM346 640l-141 -361h282zM475 793h-255v43h255v-43z" />
    <glyph glyph-name="amacron" unicode="&#x101;" horiz-adv-x="481" 
d="M404 0h-33l-11 63c-49 -43 -107 -73 -166 -73c-79 0 -142 40 -142 125c0 105 80 161 306 182v41c0 66 -39 98 -104 98c-54 0 -109 -15 -161 -42l-6 44c53 24 107 41 169 41c96 0 148 -49 148 -139v-340zM358 106v152c-194 -21 -258 -62 -258 -139c0 -60 43 -88 96 -88
c50 0 111 30 162 75zM369 583h-255v43h255v-43z" />
    <glyph glyph-name="amacron.sc" horiz-adv-x="510" 
d="M75 0h-48l203 511h49l203 -506l-47 -10l-66 171h-229zM255 460l-99 -253h197zM384 613h-255v43h255v-43z" />
    <glyph glyph-name="Aogonek" unicode="&#x104;" horiz-adv-x="694" 
d="M47 0l274 694h52l274 -690l-10 -2l-24 -36c-21 -31 -29 -47 -29 -67c0 -24 13 -37 39 -37c13 0 27 2 40 6v-31c-17 -7 -33 -10 -49 -10c-48 0 -72 25 -72 64c0 30 15 52 41 87l14 20l-93 238h-315l-92 -236h-50zM346 640l-141 -361h282z" />
    <glyph glyph-name="aogonek" unicode="&#x105;" horiz-adv-x="481" 
d="M404 0h-5l-23 -34c-21 -31 -29 -47 -29 -67c0 -24 13 -37 39 -37c13 0 27 2 40 6v-31c-17 -7 -33 -10 -49 -10c-48 0 -72 25 -72 64c0 30 15 52 41 87l23 32l-9 53c-49 -43 -107 -73 -166 -73c-79 0 -142 40 -142 125c0 105 80 161 306 182v41c0 66 -39 98 -104 98
c-54 0 -109 -15 -161 -42l-6 44c53 24 107 41 169 41c96 0 148 -49 148 -139v-340zM358 106v152c-194 -21 -258 -62 -258 -139c0 -60 43 -88 96 -88c50 0 111 30 162 75z" />
    <glyph glyph-name="aogonek.sc" horiz-adv-x="510" 
d="M75 0h-48l203 511h49l203 -506l-9 -2l-25 -37c-21 -31 -29 -47 -29 -67c0 -24 13 -37 39 -37c13 0 27 2 40 6v-31c-17 -7 -33 -10 -49 -10c-48 0 -72 25 -72 64c0 30 15 52 41 87l15 21l-64 167h-229zM255 460l-99 -253h197z" />
    <glyph glyph-name="Aring" unicode="&#xc5;" horiz-adv-x="694" 
d="M440 737c0 -38 -20 -69 -51 -83l258 -650l-48 -11l-95 243h-315l-92 -236h-50l258 654c-31 14 -52 45 -52 83c0 52 41 94 94 94s93 -42 93 -94zM346 640l-141 -361h282zM406 737c0 36 -25 63 -59 63s-60 -27 -60 -63s26 -62 60 -62s59 26 59 62z" />
    <glyph glyph-name="aring" unicode="&#xe5;" horiz-adv-x="481" 
d="M404 0h-33l-11 63c-49 -43 -107 -73 -166 -73c-79 0 -142 40 -142 125c0 105 80 161 306 182v41c0 66 -39 98 -104 98c-54 0 -109 -15 -161 -42l-6 44c53 24 107 41 169 41c96 0 148 -49 148 -139v-340zM358 106v152c-194 -21 -258 -62 -258 -139c0 -60 43 -88 96 -88
c50 0 111 30 162 75zM334 642c0 -53 -40 -92 -93 -92s-94 39 -94 92c0 52 41 94 94 94s93 -42 93 -94zM300 642c0 36 -25 63 -59 63s-60 -27 -60 -63s26 -62 60 -62s59 26 59 62z" />
    <glyph glyph-name="aring.sc" horiz-adv-x="510" 
d="M349 554c0 -39 -22 -70 -54 -84l187 -465l-47 -10l-66 171h-229l-65 -166h-48l187 471c-31 14 -52 45 -52 83c0 52 41 94 94 94s93 -42 93 -94zM255 460l-99 -253h197zM315 554c0 36 -25 63 -59 63s-60 -27 -60 -63s26 -62 60 -62s59 26 59 62z" />
    <glyph glyph-name="Aringacute" unicode="&#x1fa;" horiz-adv-x="694" 
d="M440 737c0 -38 -20 -69 -51 -83l258 -650l-48 -11l-95 243h-315l-92 -236h-50l258 654c-31 14 -52 45 -52 83c0 52 41 94 94 94s93 -42 93 -94zM346 640l-141 -361h282zM406 737c0 36 -25 63 -59 63s-60 -27 -60 -63s26 -62 60 -62s59 26 59 62zM484 1000l-138 -140h-34
l106 155z" />
    <glyph glyph-name="aringacute" unicode="&#x1fb;" horiz-adv-x="481" 
d="M404 0h-33l-11 63c-49 -43 -107 -73 -166 -73c-79 0 -142 40 -142 125c0 105 80 161 306 182v41c0 66 -39 98 -104 98c-54 0 -109 -15 -161 -42l-6 44c53 24 107 41 169 41c96 0 148 -49 148 -139v-340zM358 106v152c-194 -21 -258 -62 -258 -139c0 -60 43 -88 96 -88
c50 0 111 30 162 75zM334 642c0 -53 -40 -92 -93 -92s-94 39 -94 92c0 52 41 94 94 94s93 -42 93 -94zM300 642c0 36 -25 63 -59 63s-60 -27 -60 -63s26 -62 60 -62s59 26 59 62zM385 907l-138 -140h-34l106 155z" />
    <glyph glyph-name="aringacute.sc" horiz-adv-x="510" 
d="M349 554c0 -39 -22 -70 -54 -84l187 -465l-47 -10l-66 171h-229l-65 -166h-48l187 471c-31 14 -52 45 -52 83c0 52 41 94 94 94s93 -42 93 -94zM255 460l-99 -253h197zM315 554c0 36 -25 63 -59 63s-60 -27 -60 -63s26 -62 60 -62s59 26 59 62zM392 815l-138 -140h-34
l106 155z" />
    <glyph glyph-name="Atilde" unicode="&#xc3;" horiz-adv-x="694" 
d="M47 0l274 694h52l274 -690l-48 -11l-95 243h-315l-92 -236h-50zM346 640l-141 -361h282zM493 865c-10 -60 -38 -95 -72 -95c-28 0 -42 8 -78 27c-32 17 -45 27 -62 27c-16 0 -30 -18 -39 -55l-34 7c11 61 38 96 72 96c29 0 42 -9 78 -28c32 -17 46 -26 62 -26
c17 0 30 18 40 54z" />
    <glyph glyph-name="atilde" unicode="&#xe3;" horiz-adv-x="481" 
d="M404 0h-33l-11 63c-49 -43 -107 -73 -166 -73c-79 0 -142 40 -142 125c0 105 80 161 306 182v41c0 66 -39 98 -104 98c-54 0 -109 -15 -161 -42l-6 44c53 24 107 41 169 41c96 0 148 -49 148 -139v-340zM358 106v152c-194 -21 -258 -62 -258 -139c0 -60 43 -88 96 -88
c50 0 111 30 162 75zM387 655c-10 -60 -38 -95 -72 -95c-28 0 -42 8 -78 27c-32 17 -45 27 -62 27c-16 0 -30 -18 -39 -55l-34 7c11 61 38 96 72 96c29 0 42 -9 78 -28c32 -17 46 -26 62 -26c17 0 30 18 40 54z" />
    <glyph glyph-name="atilde.sc" horiz-adv-x="510" 
d="M75 0h-48l203 511h49l203 -506l-47 -10l-66 171h-229zM255 460l-99 -253h197zM402 685c-10 -60 -38 -95 -72 -95c-28 0 -42 8 -78 27c-32 17 -45 27 -62 27c-16 0 -30 -18 -39 -55l-34 7c11 61 38 96 72 96c29 0 42 -9 78 -28c32 -17 46 -26 62 -26c17 0 30 18 40 54z
" />
    <glyph glyph-name="Cacute" unicode="&#x106;" horiz-adv-x="643" 
d="M585 58c-52 -40 -126 -71 -211 -71c-181 0 -309 144 -309 357c0 210 130 359 317 359c74 0 140 -24 192 -60l-9 -49c-57 41 -117 66 -184 66c-163 0 -266 -130 -266 -314c0 -185 104 -316 263 -316c75 0 144 30 200 74zM525 902l-138 -140h-34l106 155z" />
    <glyph glyph-name="cacute" unicode="&#x107;" horiz-adv-x="464" 
d="M417 47c-43 -36 -95 -57 -158 -57c-115 0 -207 90 -207 245c0 156 93 245 210 245c59 0 111 -21 152 -52l-9 -48c-47 40 -91 59 -145 59c-91 0 -159 -74 -159 -204c0 -121 66 -204 163 -204c51 0 98 18 147 60zM414 692l-138 -140h-34l106 155z" />
    <glyph glyph-name="cacute.sc" horiz-adv-x="481" 
d="M436 41c-37 -28 -93 -50 -155 -50c-134 0 -226 107 -226 261s94 262 229 262c58 0 107 -15 144 -43l-7 -48c-38 30 -82 49 -138 49c-108 0 -181 -92 -181 -219s73 -220 181 -220c57 0 107 22 147 53zM428 722l-138 -140h-34l106 155z" />
    <glyph glyph-name="Ccaron" unicode="&#x10c;" horiz-adv-x="643" 
d="M585 58c-52 -40 -126 -71 -211 -71c-181 0 -309 144 -309 357c0 210 130 359 317 359c74 0 140 -24 192 -60l-9 -49c-57 41 -117 66 -184 66c-163 0 -266 -130 -266 -314c0 -185 104 -316 263 -316c75 0 144 30 200 74zM247 911h32l97 -93l97 93h32l-107 -149h-44z" />
    <glyph glyph-name="ccaron" unicode="&#x10d;" horiz-adv-x="464" 
d="M417 47c-43 -36 -95 -57 -158 -57c-115 0 -207 90 -207 245c0 156 93 245 210 245c59 0 111 -21 152 -52l-9 -48c-47 40 -91 59 -145 59c-91 0 -159 -74 -159 -204c0 -121 66 -204 163 -204c51 0 98 18 147 60zM136 701h32l97 -93l97 93h32l-107 -149h-44z" />
    <glyph glyph-name="ccaron.sc" horiz-adv-x="481" 
d="M436 41c-37 -28 -93 -50 -155 -50c-134 0 -226 107 -226 261s94 262 229 262c58 0 107 -15 144 -43l-7 -48c-38 30 -82 49 -138 49c-108 0 -181 -92 -181 -219s73 -220 181 -220c57 0 107 22 147 53zM150 731h32l97 -93l97 93h32l-107 -149h-44z" />
    <glyph glyph-name="Ccedilla" unicode="&#xc7;" horiz-adv-x="643" 
d="M585 58c-52 -40 -126 -71 -211 -71c-181 0 -309 144 -309 357c0 210 130 359 317 359c74 0 140 -24 192 -60l-9 -49c-57 41 -117 66 -184 66c-163 0 -266 -130 -266 -314c0 -185 104 -316 263 -316c75 0 144 30 200 74zM419 -77l-121 -119h-34l90 135z" />
    <glyph glyph-name="ccedilla" unicode="&#xe7;" horiz-adv-x="464" 
d="M417 47c-43 -36 -95 -57 -158 -57c-115 0 -207 90 -207 245c0 156 93 245 210 245c59 0 111 -21 152 -52l-9 -48c-47 40 -91 59 -145 59c-91 0 -159 -74 -159 -204c0 -121 66 -204 163 -204c51 0 98 18 147 60zM308 -77l-121 -119h-34l90 135z" />
    <glyph glyph-name="ccedilla.sc" horiz-adv-x="481" 
d="M436 41c-37 -28 -93 -50 -155 -50c-134 0 -226 107 -226 261s94 262 229 262c58 0 107 -15 144 -43l-7 -48c-38 30 -82 49 -138 49c-108 0 -181 -92 -181 -219s73 -220 181 -220c57 0 107 22 147 53zM322 -77l-121 -119h-34l90 135z" />
    <glyph glyph-name="Cdotaccent" unicode="&#x10a;" horiz-adv-x="643" 
d="M585 58c-52 -40 -126 -71 -211 -71c-181 0 -309 144 -309 357c0 210 130 359 317 359c74 0 140 -24 192 -60l-9 -49c-57 41 -117 66 -184 66c-163 0 -266 -130 -266 -314c0 -185 104 -316 263 -316c75 0 144 30 200 74zM411 771h-71v81h71v-81z" />
    <glyph glyph-name="cdotaccent" unicode="&#x10b;" horiz-adv-x="464" 
d="M417 47c-43 -36 -95 -57 -158 -57c-115 0 -207 90 -207 245c0 156 93 245 210 245c59 0 111 -21 152 -52l-9 -48c-47 40 -91 59 -145 59c-91 0 -159 -74 -159 -204c0 -121 66 -204 163 -204c51 0 98 18 147 60zM300 561h-71v81h71v-81z" />
    <glyph glyph-name="cdotaccent.sc" horiz-adv-x="481" 
d="M436 41c-37 -28 -93 -50 -155 -50c-134 0 -226 107 -226 261s94 262 229 262c58 0 107 -15 144 -43l-7 -48c-38 30 -82 49 -138 49c-108 0 -181 -92 -181 -219s73 -220 181 -220c57 0 107 22 147 53zM314 591h-71v81h71v-81z" />
    <glyph glyph-name="Dcaron" unicode="&#x10e;" horiz-adv-x="699" 
d="M634 346c0 -217 -148 -346 -359 -346h-175v690h178c221 0 356 -137 356 -344zM584 345c0 196 -124 302 -307 302h-129v-604h132c182 0 304 103 304 302zM201 901h32l97 -93l97 93h32l-107 -149h-44z" />
    <glyph glyph-name="dcaron" unicode="&#x10f;" horiz-adv-x="526" 
d="M443 0h-34l-12 69c-37 -43 -82 -79 -150 -79c-104 0 -193 74 -193 232c0 171 102 255 216 255c48 0 89 -9 126 -25v253l47 10v-715zM396 119v287c-37 19 -78 30 -125 30c-93 0 -168 -67 -168 -212c0 -123 61 -191 145 -191c57 0 102 34 148 86zM548 719
c12 -23 20 -44 20 -69c0 -46 -26 -86 -62 -119l-23 5c25 36 37 63 37 96c0 26 -8 49 -21 76z" />
    <glyph glyph-name="dcaron.sc" horiz-adv-x="539" 
d="M484 253c0 -155 -103 -253 -264 -253h-133v505h134c168 0 263 -101 263 -252zM437 253c0 136 -87 210 -214 210h-89v-421h89c130 0 214 71 214 211zM132 731h32l97 -93l97 93h32l-107 -149h-44z" />
    <glyph glyph-name="Dcroat" unicode="&#x110;" horiz-adv-x="711" 
d="M646 346c0 -217 -148 -346 -358 -346h-176v341h-83l-7 41h90v308h178c221 0 356 -137 356 -344zM596 345c0 196 -124 302 -307 302h-129v-265h167v-41h-167v-298h132c182 0 304 103 304 302z" />
    <glyph glyph-name="dcroat" unicode="&#x111;" horiz-adv-x="526" 
d="M443 0h-34l-12 69c-37 -43 -82 -79 -150 -79c-104 0 -193 74 -193 232c0 171 102 255 216 255c48 0 89 -9 126 -25v138h-166l-7 41h173v74l47 10v-84h81v-41h-81v-590zM396 119v287c-37 19 -78 30 -125 30c-93 0 -168 -67 -168 -212c0 -123 61 -191 145 -191
c57 0 102 34 148 86z" />
    <glyph glyph-name="dcroat.sc" horiz-adv-x="546" 
d="M30 231l-7 42h71v232h134c168 0 263 -101 263 -252c0 -155 -103 -253 -264 -253h-133v231h-64zM444 253c0 136 -87 210 -214 210h-89v-190h136v-42h-136v-189h89c130 0 214 71 214 211z" />
    <glyph glyph-name="Eacute" unicode="&#xc9;" horiz-adv-x="508" 
d="M459 0h-359v690h349v-44h-301v-263h241l7 -44h-248v-295h311v-44zM425 892l-138 -140h-34l106 155z" />
    <glyph glyph-name="eacute" unicode="&#xe9;" horiz-adv-x="484" 
d="M431 59c-43 -39 -105 -69 -172 -69c-124 0 -207 92 -207 245c0 150 83 245 197 245c120 0 183 -105 183 -235v-10h-332c0 -120 56 -204 161 -204c57 0 117 30 163 72zM249 441c-82 0 -137 -63 -148 -167h282c-3 92 -52 167 -134 167zM399 692l-138 -140h-34l106 155z" />
    <glyph glyph-name="eacute.sc" horiz-adv-x="438" 
d="M387 0h-300v505h292v-42h-245v-178h200l9 -42h-209v-201h253v-42zM384 722l-138 -140h-34l106 155z" />
    <glyph glyph-name="Ebreve" unicode="&#x114;" horiz-adv-x="508" 
d="M459 0h-359v690h349v-44h-301v-263h241l7 -44h-248v-295h311v-44zM399 866c-7 -53 -44 -109 -124 -109s-117 56 -124 109l35 5c12 -42 45 -67 89 -67s76 25 89 67z" />
    <glyph glyph-name="ebreve" unicode="&#x115;" horiz-adv-x="484" 
d="M431 59c-43 -39 -105 -69 -172 -69c-124 0 -207 92 -207 245c0 150 83 245 197 245c120 0 183 -105 183 -235v-10h-332c0 -120 56 -204 161 -204c57 0 117 30 163 72zM249 441c-82 0 -137 -63 -148 -167h282c-3 92 -52 167 -134 167zM373 666c-7 -53 -44 -109 -124 -109
s-117 56 -124 109l35 5c12 -42 45 -67 89 -67s76 25 89 67z" />
    <glyph glyph-name="ebreve.sc" horiz-adv-x="438" 
d="M387 0h-300v505h292v-42h-245v-178h200l9 -42h-209v-201h253v-42zM358 696c-7 -53 -44 -109 -124 -109s-117 56 -124 109l35 5c12 -42 45 -67 89 -67s76 25 89 67z" />
    <glyph glyph-name="Ecaron" unicode="&#x11a;" horiz-adv-x="508" 
d="M459 0h-359v690h349v-44h-301v-263h241l7 -44h-248v-295h311v-44zM147 901h32l97 -93l97 93h32l-107 -149h-44z" />
    <glyph glyph-name="ecaron" unicode="&#x11b;" horiz-adv-x="484" 
d="M431 59c-43 -39 -105 -69 -172 -69c-124 0 -207 92 -207 245c0 150 83 245 197 245c120 0 183 -105 183 -235v-10h-332c0 -120 56 -204 161 -204c57 0 117 30 163 72zM249 441c-82 0 -137 -63 -148 -167h282c-3 92 -52 167 -134 167zM121 701h32l97 -93l97 93h32
l-107 -149h-44z" />
    <glyph glyph-name="ecaron.sc" horiz-adv-x="438" 
d="M387 0h-300v505h292v-42h-245v-178h200l9 -42h-209v-201h253v-42zM106 731h32l97 -93l97 93h32l-107 -149h-44z" />
    <glyph glyph-name="Ecircumflex" unicode="&#xca;" horiz-adv-x="508" 
d="M459 0h-359v690h349v-44h-301v-263h241l7 -44h-248v-295h311v-44zM403 752h-32l-97 93l-97 -93h-32l107 149h44z" />
    <glyph glyph-name="ecircumflex" unicode="&#xea;" horiz-adv-x="484" 
d="M431 59c-43 -39 -105 -69 -172 -69c-124 0 -207 92 -207 245c0 150 83 245 197 245c120 0 183 -105 183 -235v-10h-332c0 -120 56 -204 161 -204c57 0 117 30 163 72zM249 441c-82 0 -137 -63 -148 -167h282c-3 92 -52 167 -134 167zM377 552h-32l-97 93l-97 -93h-32
l107 149h44z" />
    <glyph glyph-name="ecircumflex.sc" horiz-adv-x="438" 
d="M387 0h-300v505h292v-42h-245v-178h200l9 -42h-209v-201h253v-42zM362 582h-32l-97 93l-97 -93h-32l107 149h44z" />
    <glyph glyph-name="Edieresis" unicode="&#xcb;" horiz-adv-x="508" 
d="M459 0h-359v690h349v-44h-301v-263h241l7 -44h-248v-295h311v-44zM393 766h-70v79h70v-79zM226 766h-69v79h69v-79z" />
    <glyph glyph-name="edieresis" unicode="&#xeb;" horiz-adv-x="484" 
d="M431 59c-43 -39 -105 -69 -172 -69c-124 0 -207 92 -207 245c0 150 83 245 197 245c120 0 183 -105 183 -235v-10h-332c0 -120 56 -204 161 -204c57 0 117 30 163 72zM249 441c-82 0 -137 -63 -148 -167h282c-3 92 -52 167 -134 167zM367 566h-70v79h70v-79zM200 566h-69
v79h69v-79z" />
    <glyph glyph-name="edieresis.sc" horiz-adv-x="438" 
d="M387 0h-300v505h292v-42h-245v-178h200l9 -42h-209v-201h253v-42zM352 596h-70v79h70v-79zM185 596h-69v79h69v-79z" />
    <glyph glyph-name="Edotaccent" unicode="&#x116;" horiz-adv-x="508" 
d="M459 0h-359v690h349v-44h-301v-263h241l7 -44h-248v-295h311v-44zM311 761h-71v81h71v-81z" />
    <glyph glyph-name="edotaccent" unicode="&#x117;" horiz-adv-x="484" 
d="M431 59c-43 -39 -105 -69 -172 -69c-124 0 -207 92 -207 245c0 150 83 245 197 245c120 0 183 -105 183 -235v-10h-332c0 -120 56 -204 161 -204c57 0 117 30 163 72zM249 441c-82 0 -137 -63 -148 -167h282c-3 92 -52 167 -134 167zM285 561h-71v81h71v-81z" />
    <glyph glyph-name="edotaccent.sc" horiz-adv-x="438" 
d="M387 0h-300v505h292v-42h-245v-178h200l9 -42h-209v-201h253v-42zM270 591h-71v81h71v-81z" />
    <glyph glyph-name="Egrave" unicode="&#xc8;" horiz-adv-x="508" 
d="M459 0h-359v690h349v-44h-301v-263h241l7 -44h-248v-295h311v-44zM297 752h-33l-138 140l67 15z" />
    <glyph glyph-name="egrave" unicode="&#xe8;" horiz-adv-x="484" 
d="M431 59c-43 -39 -105 -69 -172 -69c-124 0 -207 92 -207 245c0 150 83 245 197 245c120 0 183 -105 183 -235v-10h-332c0 -120 56 -204 161 -204c57 0 117 30 163 72zM249 441c-82 0 -137 -63 -148 -167h282c-3 92 -52 167 -134 167zM271 552h-33l-138 140l67 15z" />
    <glyph glyph-name="egrave.sc" horiz-adv-x="438" 
d="M387 0h-300v505h292v-42h-245v-178h200l9 -42h-209v-201h253v-42zM256 582h-33l-138 140l67 15z" />
    <glyph glyph-name="Emacron" unicode="&#x112;" horiz-adv-x="508" 
d="M459 0h-359v690h349v-44h-301v-263h241l7 -44h-248v-295h311v-44zM403 783h-255v43h255v-43z" />
    <glyph glyph-name="emacron" unicode="&#x113;" horiz-adv-x="484" 
d="M431 59c-43 -39 -105 -69 -172 -69c-124 0 -207 92 -207 245c0 150 83 245 197 245c120 0 183 -105 183 -235v-10h-332c0 -120 56 -204 161 -204c57 0 117 30 163 72zM249 441c-82 0 -137 -63 -148 -167h282c-3 92 -52 167 -134 167zM377 583h-255v43h255v-43z" />
    <glyph glyph-name="emacron.sc" horiz-adv-x="438" 
d="M387 0h-300v505h292v-42h-245v-178h200l9 -42h-209v-201h253v-42zM362 613h-255v43h255v-43z" />
    <glyph glyph-name="Eogonek" unicode="&#x118;" horiz-adv-x="505" 
d="M459 0h-24l-23 -34c-21 -31 -29 -47 -29 -67c0 -24 13 -37 39 -37c13 0 27 2 40 6v-31c-17 -7 -33 -10 -49 -10c-48 0 -72 25 -72 64c0 30 15 52 41 87l16 22h-298v690h349v-44h-301v-263h241l7 -44h-248v-295h311v-44z" />
    <glyph glyph-name="eogonek" unicode="&#x119;" horiz-adv-x="484" 
d="M249 480c120 0 183 -105 183 -235v-10h-332c0 -120 56 -204 161 -204c57 0 117 30 163 72l6 -37l-49 -68c-39 -55 -51 -76 -51 -99c0 -24 13 -37 39 -37c13 0 27 2 40 6v-31c-17 -7 -33 -10 -49 -10c-48 0 -72 25 -72 64c0 30 15 52 41 87l22 31c-28 -12 -60 -19 -92 -19
c-124 0 -207 92 -207 245c0 150 83 245 197 245zM249 441c-87 0 -137 -69 -147 -167h281c-3 92 -52 167 -134 167z" />
    <glyph glyph-name="eogonek.sc" horiz-adv-x="438" 
d="M387 0h-24l-23 -34c-21 -31 -29 -47 -29 -67c0 -24 13 -37 39 -37c13 0 27 2 40 6v-31c-17 -7 -33 -10 -49 -10c-48 0 -72 25 -72 64c0 30 15 52 41 87l16 22h-239v505h292v-42h-245v-178h200l9 -42h-209v-201h253v-42z" />
    <glyph glyph-name="Gbreve" unicode="&#x11e;" horiz-adv-x="691" 
d="M602 59c-67 -45 -135 -72 -222 -72c-191 0 -315 147 -315 357s129 359 310 359c80 0 147 -23 200 -61l-9 -50c-52 42 -114 68 -192 68c-156 0 -259 -127 -259 -315c0 -187 102 -316 267 -316c69 0 122 19 172 52v225h-172l-7 44h227v-291zM492 876
c-7 -53 -44 -109 -124 -109s-117 56 -124 109l35 5c12 -42 45 -67 89 -67s76 25 89 67z" />
    <glyph glyph-name="gbreve" unicode="&#x11f;" horiz-adv-x="501" 
d="M457 -40c0 -85 -98 -138 -219 -138c-120 0 -210 43 -210 122c0 47 39 93 114 128c-27 14 -40 31 -40 50c0 25 16 42 46 61c-51 25 -86 74 -86 139c0 98 81 158 169 158c45 0 86 -14 117 -40l116 38l9 -52l-101 -11c20 -25 32 -57 32 -93c0 -98 -80 -158 -171 -158
c-16 0 -31 1 -45 5c-27 -15 -38 -26 -38 -38c0 -21 21 -30 110 -47l36 -7c108 -21 161 -51 161 -117zM241 43c-23 4 -40 8 -56 12c-74 -31 -109 -67 -109 -109c0 -57 74 -86 166 -86c99 0 168 41 168 94c0 43 -36 63 -133 82zM357 322c0 67 -51 121 -126 121
c-74 0 -121 -51 -121 -121c0 -67 47 -121 123 -121c77 0 124 52 124 121zM365 666c-7 -53 -44 -109 -124 -109s-117 56 -124 109l35 5c12 -42 45 -67 89 -67s76 25 89 67z" />
    <glyph glyph-name="gbreve.alt" horiz-adv-x="526" 
d="M443 6c0 -121 -69 -184 -189 -184c-61 0 -118 14 -172 35l9 45c54 -26 109 -38 168 -38c94 0 137 50 137 140v73c-34 -39 -79 -78 -149 -78c-104 0 -193 74 -193 228c0 166 102 250 227 250c62 0 117 -15 162 -32v-439zM396 128v286c-30 11 -69 22 -121 22
c-95 0 -172 -65 -172 -207c0 -122 61 -187 145 -187c57 0 102 34 148 86zM393 666c-7 -53 -44 -109 -124 -109s-117 56 -124 109l35 5c12 -42 45 -67 89 -67s76 25 89 67z" />
    <glyph glyph-name="gbreve.sc" horiz-adv-x="526" 
d="M456 45c-48 -31 -101 -54 -166 -54c-145 0 -235 107 -235 261s96 262 235 262c53 0 107 -14 145 -41l-8 -48c-39 31 -90 47 -141 47c-106 0 -184 -90 -184 -219c0 -133 70 -220 190 -220c48 0 83 12 117 33v155h-122l-8 42h177v-218zM402 696c-7 -53 -44 -109 -124 -109
s-117 56 -124 109l35 5c12 -42 45 -67 89 -67s76 25 89 67z" />
    <glyph glyph-name="Gcommaaccent" unicode="&#x122;" horiz-adv-x="691" 
d="M602 59c-67 -45 -135 -72 -222 -72c-191 0 -315 147 -315 357s129 359 310 359c80 0 147 -23 200 -61l-9 -50c-52 42 -114 68 -192 68c-156 0 -259 -127 -259 -315c0 -187 102 -316 267 -316c69 0 122 19 172 52v225h-172l-7 44h227v-291zM325 -87l40 21
c35 -23 49 -49 49 -82c0 -42 -36 -79 -73 -109l-33 4c41 39 61 69 61 98c0 21 -8 41 -44 68z" />
    <glyph glyph-name="gcommaaccent" unicode="&#x123;" horiz-adv-x="501" 
d="M457 -40c0 -85 -98 -138 -219 -138c-120 0 -210 43 -210 122c0 47 39 93 114 128c-27 14 -40 31 -40 50c0 25 16 42 46 61c-51 25 -86 74 -86 139c0 98 81 158 169 158c45 0 86 -14 117 -40l116 38l9 -52l-101 -11c20 -25 32 -57 32 -93c0 -98 -80 -158 -171 -158
c-16 0 -31 1 -45 5c-27 -15 -38 -26 -38 -38c0 -21 21 -30 110 -47l36 -7c108 -21 161 -51 161 -117zM241 43c-23 4 -40 8 -56 12c-74 -31 -109 -67 -109 -109c0 -57 74 -86 166 -86c99 0 168 41 168 94c0 43 -36 63 -133 82zM357 322c0 67 -51 121 -126 121
c-74 0 -121 -51 -121 -121c0 -67 47 -121 123 -121c77 0 124 52 124 121zM284 570l-40 -21c-35 23 -49 49 -49 82c0 42 36 79 73 109l33 -4c-41 -39 -61 -69 -61 -98c0 -21 8 -41 44 -68z" />
    <glyph glyph-name="gcommaaccent.alt" horiz-adv-x="526" 
d="M443 6c0 -121 -69 -184 -189 -184c-61 0 -118 14 -172 35l9 45c54 -26 109 -38 168 -38c94 0 137 50 137 140v73c-34 -39 -79 -78 -149 -78c-104 0 -193 74 -193 228c0 166 102 250 227 250c62 0 117 -15 162 -32v-439zM396 128v286c-30 11 -69 22 -121 22
c-95 0 -172 -65 -172 -207c0 -122 61 -187 145 -187c57 0 102 34 148 86zM314 570l-40 -21c-35 23 -49 49 -49 82c0 42 36 79 73 109l33 -4c-41 -39 -61 -69 -61 -98c0 -21 8 -41 44 -68z" />
    <glyph glyph-name="gcommaaccent.sc" horiz-adv-x="526" 
d="M456 45c-48 -31 -101 -54 -166 -54c-145 0 -235 107 -235 261s96 262 235 262c53 0 107 -14 145 -41l-8 -48c-39 31 -90 47 -141 47c-106 0 -184 -90 -184 -219c0 -133 70 -220 190 -220c48 0 83 12 117 33v155h-122l-8 42h177v-218zM235 -87l40 21c35 -23 49 -49 49 -82
c0 -42 -36 -79 -73 -109l-33 4c41 39 61 69 61 98c0 21 -8 41 -44 68z" />
    <glyph glyph-name="Gdotaccent" unicode="&#x120;" horiz-adv-x="691" 
d="M602 59c-67 -45 -135 -72 -222 -72c-191 0 -315 147 -315 357s129 359 310 359c80 0 147 -23 200 -61l-9 -50c-52 42 -114 68 -192 68c-156 0 -259 -127 -259 -315c0 -187 102 -316 267 -316c69 0 122 19 172 52v225h-172l-7 44h227v-291zM404 771h-71v81h71v-81z" />
    <glyph glyph-name="gdotaccent" unicode="&#x121;" horiz-adv-x="501" 
d="M457 -40c0 -85 -98 -138 -219 -138c-120 0 -210 43 -210 122c0 47 39 93 114 128c-27 14 -40 31 -40 50c0 25 16 42 46 61c-51 25 -86 74 -86 139c0 98 81 158 169 158c45 0 86 -14 117 -40l116 38l9 -52l-101 -11c20 -25 32 -57 32 -93c0 -98 -80 -158 -171 -158
c-16 0 -31 1 -45 5c-27 -15 -38 -26 -38 -38c0 -21 21 -30 110 -47l36 -7c108 -21 161 -51 161 -117zM241 43c-23 4 -40 8 -56 12c-74 -31 -109 -67 -109 -109c0 -57 74 -86 166 -86c99 0 168 41 168 94c0 43 -36 63 -133 82zM357 322c0 67 -51 121 -126 121
c-74 0 -121 -51 -121 -121c0 -67 47 -121 123 -121c77 0 124 52 124 121zM277 561h-71v81h71v-81z" />
    <glyph glyph-name="gdotaccent.alt" horiz-adv-x="526" 
d="M443 6c0 -121 -69 -184 -189 -184c-61 0 -118 14 -172 35l9 45c54 -26 109 -38 168 -38c94 0 137 50 137 140v73c-34 -39 -79 -78 -149 -78c-104 0 -193 74 -193 228c0 166 102 250 227 250c62 0 117 -15 162 -32v-439zM396 128v286c-30 11 -69 22 -121 22
c-95 0 -172 -65 -172 -207c0 -122 61 -187 145 -187c57 0 102 34 148 86zM305 561h-71v81h71v-81z" />
    <glyph glyph-name="gdotaccent.sc" horiz-adv-x="526" 
d="M456 45c-48 -31 -101 -54 -166 -54c-145 0 -235 107 -235 261s96 262 235 262c53 0 107 -14 145 -41l-8 -48c-39 31 -90 47 -141 47c-106 0 -184 -90 -184 -219c0 -133 70 -220 190 -220c48 0 83 12 117 33v155h-122l-8 42h177v-218zM314 591h-71v81h71v-81z" />
    <glyph glyph-name="Hbar" unicode="&#x126;" horiz-adv-x="731" 
d="M619 0h-48v340h-411v-340h-48v539h-83l-7 41h90v110h48v-110h411v110h48v-110h87v-41h-87v-539zM160 383h411v156h-411v-156z" />
    <glyph glyph-name="hbar" unicode="&#x127;" horiz-adv-x="520" 
d="M299 590h-169v-190c57 49 108 80 170 80c97 0 143 -54 143 -147v-333h-47v327c0 71 -34 110 -101 110c-52 0 -106 -30 -165 -85v-352h-47v590h-78l-7 41h85v74l47 10v-84h169v-41z" />
    <glyph glyph-name="hbar.sc" horiz-adv-x="566" 
d="M472 0h-47v238h-284v-238h-47v391h-64l-7 41h71v73h47v-73h284v73h47v-73h68v-41h-68v-391zM141 280h284v111h-284v-111z" />
    <glyph glyph-name="Iacute" unicode="&#xcd;" horiz-adv-x="264" 
d="M156 0h-48v690h48v-690zM282 892l-138 -140h-34l106 155z" />
    <glyph glyph-name="iacute" unicode="&#xed;" horiz-adv-x="226" 
d="M136 0h-46v470h46v-470zM263 692l-138 -140h-34l106 155z" />
    <glyph glyph-name="iacute.sc" horiz-adv-x="229" 
d="M138 0h-47v505h47v-505zM264 722l-138 -140h-34l106 155z" />
    <glyph glyph-name="Ibreve" unicode="&#x12c;" horiz-adv-x="264" 
d="M156 0h-48v690h48v-690zM256 866c-7 -53 -44 -109 -124 -109s-117 56 -124 109l35 5c12 -42 45 -67 89 -67s76 25 89 67z" />
    <glyph glyph-name="ibreve" unicode="&#x12d;" horiz-adv-x="226" 
d="M136 0h-46v470h46v-470zM237 666c-7 -53 -44 -109 -124 -109s-117 56 -124 109l35 5c12 -42 45 -67 89 -67s76 25 89 67z" />
    <glyph glyph-name="ibreve.sc" horiz-adv-x="229" 
d="M138 0h-47v505h47v-505zM238 696c-7 -53 -44 -109 -124 -109s-117 56 -124 109l35 5c12 -42 45 -67 89 -67s76 25 89 67z" />
    <glyph glyph-name="Icircumflex" unicode="&#xce;" horiz-adv-x="264" 
d="M156 0h-48v690h48v-690zM260 752h-32l-97 93l-97 -93h-32l107 149h44z" />
    <glyph glyph-name="icircumflex" unicode="&#xee;" horiz-adv-x="226" 
d="M136 0h-46v470h46v-470zM241 552h-32l-97 93l-97 -93h-32l107 149h44z" />
    <glyph glyph-name="icircumflex.sc" horiz-adv-x="229" 
d="M138 0h-47v505h47v-505zM242 582h-32l-97 93l-97 -93h-32l107 149h44z" />
    <glyph glyph-name="Idieresis" unicode="&#xcf;" horiz-adv-x="264" 
d="M156 0h-48v690h48v-690zM250 766h-70v79h70v-79zM83 766h-69v79h69v-79z" />
    <glyph glyph-name="idieresis" unicode="&#xef;" horiz-adv-x="226" 
d="M136 0h-46v470h46v-470zM231 566h-70v79h70v-79zM64 566h-69v79h69v-79z" />
    <glyph glyph-name="idieresis.sc" horiz-adv-x="229" 
d="M138 0h-47v505h47v-505zM232 596h-70v79h70v-79zM65 596h-69v79h69v-79z" />
    <glyph glyph-name="Idotaccent" unicode="&#x130;" horiz-adv-x="264" 
d="M156 0h-48v690h48v-690zM168 761h-71v81h71v-81z" />
    <glyph glyph-name="idotaccent.sc" horiz-adv-x="229" 
d="M138 0h-47v505h47v-505zM150 591h-71v81h71v-81z" />
    <glyph glyph-name="dotlessi" unicode="&#x131;" horiz-adv-x="226" 
d="M136 0h-46v470h46v-470z" />
    <glyph glyph-name="dotlessi.sc" horiz-adv-x="229" 
d="M138 0h-47v505h47v-505z" />
    <glyph glyph-name="Igrave" unicode="&#xcc;" horiz-adv-x="264" 
d="M156 0h-48v690h48v-690zM154 752h-33l-138 140l67 15z" />
    <glyph glyph-name="igrave" unicode="&#xec;" horiz-adv-x="226" 
d="M136 0h-46v470h46v-470zM135 552h-33l-138 140l67 15z" />
    <glyph glyph-name="igrave.sc" horiz-adv-x="229" 
d="M138 0h-47v505h47v-505zM136 582h-33l-138 140l67 15z" />
    <glyph glyph-name="Imacron" unicode="&#x12a;" horiz-adv-x="264" 
d="M156 0h-48v690h48v-690zM260 783h-255v43h255v-43z" />
    <glyph glyph-name="imacron" unicode="&#x12b;" horiz-adv-x="226" 
d="M136 0h-46v470h46v-470zM241 583h-255v43h255v-43z" />
    <glyph glyph-name="imacron.sc" horiz-adv-x="229" 
d="M138 0h-47v505h47v-505zM242 613h-255v43h255v-43z" />
    <glyph glyph-name="Iogonek" unicode="&#x12e;" horiz-adv-x="264" 
d="M156 0h-6l-23 -34c-21 -31 -29 -47 -29 -67c0 -24 13 -37 39 -37c13 0 27 2 40 6v-31c-17 -7 -33 -10 -49 -10c-48 0 -72 25 -72 64c0 30 15 52 41 87l16 22h-5v690h48v-690z" />
    <glyph glyph-name="iogonek" unicode="&#x12f;" horiz-adv-x="226" 
d="M136 0h-5l-23 -34c-21 -31 -29 -47 -29 -67c0 -24 13 -37 39 -37c13 0 27 2 40 6v-31c-17 -7 -33 -10 -49 -10c-48 0 -72 25 -72 64c0 30 15 52 41 87l16 22h-4v470h46v-470zM153 638c0 -21 -18 -41 -40 -41s-41 20 -41 41c0 22 19 40 41 40s40 -18 40 -40z" />
    <glyph glyph-name="iogonek.sc" horiz-adv-x="229" 
d="M138 0h-5l-23 -34c-21 -31 -29 -47 -29 -67c0 -24 13 -37 39 -37c13 0 27 2 40 6v-31c-17 -7 -33 -10 -49 -10c-48 0 -72 25 -72 64c0 30 15 52 41 87l16 22h-5v505h47v-505z" />
    <glyph glyph-name="Kcommaaccent" unicode="&#x136;" horiz-adv-x="603" 
d="M580 5l-56 -12l-376 368v-361h-48v690h48v-318l347 318h65l-356 -321zM256 -87l40 21c35 -23 49 -49 49 -82c0 -42 -36 -79 -73 -109l-33 4c41 39 61 69 61 98c0 21 -8 41 -44 68z" />
    <glyph glyph-name="kcommaaccent" unicode="&#x137;" horiz-adv-x="454" 
d="M435 5l-52 -12l-253 259v-252h-47v705l47 10v-451l223 206h67l-237 -211zM185 -87l40 21c35 -23 49 -49 49 -82c0 -42 -36 -79 -73 -109l-33 4c41 39 61 69 61 98c0 21 -8 41 -44 68z" />
    <glyph glyph-name="kcommaaccent.sc" horiz-adv-x="470" 
d="M449 6l-52 -11l-263 267v-262h-47v505h47v-231l239 231h65l-251 -235zM195 -87l40 21c35 -23 49 -49 49 -82c0 -42 -36 -79 -73 -109l-33 4c41 39 61 69 61 98c0 21 -8 41 -44 68z" />
    <glyph glyph-name="Lacute" unicode="&#x139;" horiz-adv-x="465" 
d="M435 0h-335v690h48v-646h280zM283 892l-138 -140h-34l106 155z" />
    <glyph glyph-name="lacute" unicode="&#x13a;" horiz-adv-x="226" 
d="M136 0h-46v705l46 10v-715zM266 902l-138 -140h-34l106 155z" />
    <glyph glyph-name="lacute.sc" horiz-adv-x="372" 
d="M341 0h-254v505h47v-463h201zM274 722l-138 -140h-34l106 155z" />
    <glyph glyph-name="Lcaron" unicode="&#x13d;" horiz-adv-x="465" 
d="M435 0h-335v690h48v-646h280zM281 690c12 -23 20 -44 20 -69c0 -46 -26 -86 -62 -119l-23 5c25 36 37 63 37 96c0 26 -8 49 -21 76z" />
    <glyph glyph-name="lcaron" unicode="&#x13e;" horiz-adv-x="226" 
d="M136 0h-46v705l46 10v-715zM241 719c12 -23 20 -44 20 -69c0 -46 -26 -86 -62 -119l-23 5c25 36 37 63 37 96c0 26 -8 49 -21 76z" />
    <glyph glyph-name="lcaron.sc" horiz-adv-x="372" 
d="M341 0h-254v505h47v-463h201zM239 505c12 -23 20 -44 20 -69c0 -46 -26 -86 -62 -119l-23 5c25 36 37 63 37 96c0 26 -8 49 -21 76z" />
    <glyph glyph-name="Lcommaaccent" unicode="&#x13b;" horiz-adv-x="465" 
d="M435 0h-335v690h48v-646h280zM215 -87l40 21c35 -23 49 -49 49 -82c0 -42 -36 -79 -73 -109l-33 4c41 39 61 69 61 98c0 21 -8 41 -44 68z" />
    <glyph glyph-name="lcommaaccent" unicode="&#x13c;" horiz-adv-x="226" 
d="M136 0h-46v705l46 10v-715zM70 -87l40 21c35 -23 49 -49 49 -82c0 -42 -36 -79 -73 -109l-33 4c41 39 61 69 61 98c0 21 -8 41 -44 68z" />
    <glyph glyph-name="lcommaaccent.sc" horiz-adv-x="372" 
d="M341 0h-254v505h47v-463h201zM163 -87l40 21c35 -23 49 -49 49 -82c0 -42 -36 -79 -73 -109l-33 4c41 39 61 69 61 98c0 21 -8 41 -44 68z" />
    <glyph glyph-name="Ldot" unicode="&#x13f;" horiz-adv-x="465" 
d="M383 307h-67v77h67v-77zM435 0h-335v690h48v-646h280z" />
    <glyph glyph-name="ldot" unicode="&#x140;" horiz-adv-x="255" 
d="M136 0h-46v705l46 10v-715zM268 317h-55v77h55v-77z" />
    <glyph glyph-name="ldot.sc" horiz-adv-x="372" 
d="M320 227h-55v77h55v-77zM341 0h-254v505h47v-463h201z" />
    <glyph glyph-name="Lslash" unicode="&#x141;" horiz-adv-x="477" 
d="M320 406l-160 -89v-274h280l7 -43h-335v291l-83 -47l-7 43l90 50v353h48v-327l160 90v-47z" />
    <glyph glyph-name="lslash" unicode="&#x142;" horiz-adv-x="263" 
d="M155 0h-47v317l-81 -45l-8 41l89 49v343l47 10v-327l86 48v-46l-86 -47v-343z" />
    <glyph glyph-name="lslash.sc" horiz-adv-x="379" 
d="M256 297l-115 -64v-191h201l6 -42h-254v207l-64 -36l-7 45l71 39v250h47v-224l115 65v-49z" />
    <glyph glyph-name="Nacute" unicode="&#x143;" horiz-adv-x="707" 
d="M607 0h-38l-423 617v-617h-46v690h49l412 -600v600h46v-690zM508 892l-138 -140h-34l106 155z" />
    <glyph glyph-name="nacute" unicode="&#x144;" horiz-adv-x="520" 
d="M443 0h-47v327c0 71 -34 110 -101 110c-52 0 -106 -30 -165 -85v-352h-47v470h34l12 -71c57 50 109 81 171 81c97 0 143 -55 143 -149v-331zM410 692l-138 -140h-34l106 155z" />
    <glyph glyph-name="nacute.sc" horiz-adv-x="552" 
d="M465 0h-41l-293 435v-435h-44v505h50l284 -421v421h44v-505zM433 717l-138 -140h-34l106 155z" />
    <glyph glyph-name="Ncaron" unicode="&#x147;" horiz-adv-x="707" 
d="M607 0h-38l-423 617v-617h-46v690h49l412 -600v600h46v-690zM230 901h32l97 -93l97 93h32l-107 -149h-44z" />
    <glyph glyph-name="ncaron" unicode="&#x148;" horiz-adv-x="520" 
d="M443 0h-47v327c0 71 -34 110 -101 110c-52 0 -106 -30 -165 -85v-352h-47v470h34l12 -71c57 50 109 81 171 81c97 0 143 -55 143 -149v-331zM132 701h32l97 -93l97 93h32l-107 -149h-44z" />
    <glyph glyph-name="ncaron.sc" horiz-adv-x="552" 
d="M465 0h-41l-293 435v-435h-44v505h50l284 -421v421h44v-505zM155 726h32l97 -93l97 93h32l-107 -149h-44z" />
    <glyph glyph-name="Ncommaaccent" unicode="&#x145;" horiz-adv-x="707" 
d="M607 0h-38l-423 617v-617h-46v690h49l412 -600v600h46v-690zM315 -87l40 21c35 -23 49 -49 49 -82c0 -42 -36 -79 -73 -109l-33 4c41 39 61 69 61 98c0 21 -8 41 -44 68z" />
    <glyph glyph-name="ncommaaccent" unicode="&#x146;" horiz-adv-x="520" 
d="M443 0h-47v327c0 71 -34 110 -101 110c-52 0 -106 -30 -165 -85v-352h-47v470h34l12 -71c57 50 109 81 171 81c97 0 143 -55 143 -149v-331zM217 -87l40 21c35 -23 49 -49 49 -82c0 -42 -36 -79 -73 -109l-33 4c41 39 61 69 61 98c0 21 -8 41 -44 68z" />
    <glyph glyph-name="ncommaaccent.sc" horiz-adv-x="552" 
d="M465 0h-41l-293 435v-435h-44v505h50l284 -421v421h44v-505zM240 -87l40 21c35 -23 49 -49 49 -82c0 -42 -36 -79 -73 -109l-33 4c41 39 61 69 61 98c0 21 -8 41 -44 68z" />
    <glyph glyph-name="Ntilde" unicode="&#xd1;" horiz-adv-x="707" 
d="M607 0h-38l-423 617v-617h-46v690h49l412 -600v600h46v-690zM504 855c-10 -60 -38 -95 -72 -95c-28 0 -42 8 -78 27c-32 17 -45 27 -62 27c-16 0 -30 -18 -39 -55l-34 7c11 61 38 96 72 96c29 0 42 -9 78 -28c32 -17 46 -26 62 -26c17 0 30 18 40 54z" />
    <glyph glyph-name="ntilde" unicode="&#xf1;" horiz-adv-x="520" 
d="M443 0h-47v327c0 71 -34 110 -101 110c-52 0 -106 -30 -165 -85v-352h-47v470h34l12 -71c57 50 109 81 171 81c97 0 143 -55 143 -149v-331zM406 655c-10 -60 -38 -95 -72 -95c-28 0 -42 8 -78 27c-32 17 -45 27 -62 27c-16 0 -30 -18 -39 -55l-34 7c11 61 38 96 72 96
c29 0 42 -9 78 -28c32 -17 46 -26 62 -26c17 0 30 18 40 54z" />
    <glyph glyph-name="ntilde.sc" horiz-adv-x="552" 
d="M465 0h-41l-293 435v-435h-44v505h50l284 -421v421h44v-505zM429 680c-10 -60 -38 -95 -72 -95c-28 0 -42 8 -78 27c-32 17 -45 27 -62 27c-16 0 -30 -18 -39 -55l-34 7c11 61 38 96 72 96c29 0 42 -9 78 -28c32 -17 46 -26 62 -26c17 0 30 18 40 54z" />
    <glyph glyph-name="Oacute" unicode="&#xd3;" horiz-adv-x="744" 
d="M679 346c0 -210 -131 -359 -308 -359s-306 148 -306 357c0 210 131 359 308 359s306 -148 306 -357zM629 344c0 186 -105 316 -258 316c-152 0 -256 -130 -256 -314c0 -186 105 -316 258 -316c152 0 256 130 256 314zM522 902l-138 -140h-34l106 155z" />
    <glyph glyph-name="oacute" unicode="&#xf3;" horiz-adv-x="519" 
d="M467 235c0 -155 -93 -245 -208 -245c-117 0 -207 90 -207 245c0 156 93 245 207 245c118 0 208 -89 208 -245zM418 235c0 130 -69 204 -159 204s-158 -71 -158 -204c0 -130 69 -204 158 -204c90 0 159 70 159 204zM410 692l-138 -140h-34l106 155z" />
    <glyph glyph-name="oacute.sc" horiz-adv-x="565" 
d="M510 253c0 -154 -95 -262 -229 -262s-226 107 -226 261s94 262 227 262c134 0 228 -106 228 -261zM463 253c0 130 -71 219 -181 219c-109 0 -180 -89 -180 -219c0 -133 72 -220 180 -220c110 0 181 87 181 220zM436 722l-138 -140h-34l106 155z" />
    <glyph glyph-name="Obreve" unicode="&#x14e;" horiz-adv-x="744" 
d="M679 346c0 -210 -131 -359 -308 -359s-306 148 -306 357c0 210 131 359 308 359s306 -148 306 -357zM629 344c0 186 -105 316 -258 316c-152 0 -256 -130 -256 -314c0 -186 105 -316 258 -316c152 0 256 130 256 314zM496 876c-7 -53 -44 -109 -124 -109
s-117 56 -124 109l35 5c12 -42 45 -67 89 -67s76 25 89 67z" />
    <glyph glyph-name="obreve" unicode="&#x14f;" horiz-adv-x="519" 
d="M467 235c0 -155 -93 -245 -208 -245c-117 0 -207 90 -207 245c0 156 93 245 207 245c118 0 208 -89 208 -245zM418 235c0 130 -69 204 -159 204s-158 -71 -158 -204c0 -130 69 -204 158 -204c90 0 159 70 159 204zM384 666c-7 -53 -44 -109 -124 -109s-117 56 -124 109
l35 5c12 -42 45 -67 89 -67s76 25 89 67z" />
    <glyph glyph-name="obreve.sc" horiz-adv-x="565" 
d="M510 253c0 -154 -95 -262 -229 -262s-226 107 -226 261s94 262 227 262c134 0 228 -106 228 -261zM463 253c0 130 -71 219 -181 219c-109 0 -180 -89 -180 -219c0 -133 72 -220 180 -220c110 0 181 87 181 220zM410 696c-7 -53 -44 -109 -124 -109s-117 56 -124 109l35 5
c12 -42 45 -67 89 -67s76 25 89 67z" />
    <glyph glyph-name="Ocircumflex" unicode="&#xd4;" horiz-adv-x="744" 
d="M679 346c0 -210 -131 -359 -308 -359s-306 148 -306 357c0 210 131 359 308 359s306 -148 306 -357zM629 344c0 186 -105 316 -258 316c-152 0 -256 -130 -256 -314c0 -186 105 -316 258 -316c152 0 256 130 256 314zM500 762h-32l-97 93l-97 -93h-32l107 149h44z" />
    <glyph glyph-name="ocircumflex" unicode="&#xf4;" horiz-adv-x="519" 
d="M467 235c0 -155 -93 -245 -208 -245c-117 0 -207 90 -207 245c0 156 93 245 207 245c118 0 208 -89 208 -245zM418 235c0 130 -69 204 -159 204s-158 -71 -158 -204c0 -130 69 -204 158 -204c90 0 159 70 159 204zM388 552h-32l-97 93l-97 -93h-32l107 149h44z" />
    <glyph glyph-name="ocircumflex.sc" horiz-adv-x="565" 
d="M510 253c0 -154 -95 -262 -229 -262s-226 107 -226 261s94 262 227 262c134 0 228 -106 228 -261zM463 253c0 130 -71 219 -181 219c-109 0 -180 -89 -180 -219c0 -133 72 -220 180 -220c110 0 181 87 181 220zM414 582h-32l-97 93l-97 -93h-32l107 149h44z" />
    <glyph glyph-name="Odieresis" unicode="&#xd6;" horiz-adv-x="744" 
d="M679 346c0 -210 -131 -359 -308 -359s-306 148 -306 357c0 210 131 359 308 359s306 -148 306 -357zM629 344c0 186 -105 316 -258 316c-152 0 -256 -130 -256 -314c0 -186 105 -316 258 -316c152 0 256 130 256 314zM490 776h-70v79h70v-79zM323 776h-69v79h69v-79z" />
    <glyph glyph-name="odieresis" unicode="&#xf6;" horiz-adv-x="519" 
d="M467 235c0 -155 -93 -245 -208 -245c-117 0 -207 90 -207 245c0 156 93 245 207 245c118 0 208 -89 208 -245zM418 235c0 130 -69 204 -159 204s-158 -71 -158 -204c0 -130 69 -204 158 -204c90 0 159 70 159 204zM378 566h-70v79h70v-79zM211 566h-69v79h69v-79z" />
    <glyph glyph-name="odieresis.sc" horiz-adv-x="565" 
d="M510 253c0 -154 -95 -262 -229 -262s-226 107 -226 261s94 262 227 262c134 0 228 -106 228 -261zM463 253c0 130 -71 219 -181 219c-109 0 -180 -89 -180 -219c0 -133 72 -220 180 -220c110 0 181 87 181 220zM404 596h-70v79h70v-79zM237 596h-69v79h69v-79z" />
    <glyph glyph-name="Ograve" unicode="&#xd2;" horiz-adv-x="744" 
d="M679 346c0 -210 -131 -359 -308 -359s-306 148 -306 357c0 210 131 359 308 359s306 -148 306 -357zM629 344c0 186 -105 316 -258 316c-152 0 -256 -130 -256 -314c0 -186 105 -316 258 -316c152 0 256 130 256 314zM394 762h-33l-138 140l67 15z" />
    <glyph glyph-name="ograve" unicode="&#xf2;" horiz-adv-x="519" 
d="M467 235c0 -155 -93 -245 -208 -245c-117 0 -207 90 -207 245c0 156 93 245 207 245c118 0 208 -89 208 -245zM418 235c0 130 -69 204 -159 204s-158 -71 -158 -204c0 -130 69 -204 158 -204c90 0 159 70 159 204zM282 552h-33l-138 140l67 15z" />
    <glyph glyph-name="ograve.sc" horiz-adv-x="565" 
d="M510 253c0 -154 -95 -262 -229 -262s-226 107 -226 261s94 262 227 262c134 0 228 -106 228 -261zM463 253c0 130 -71 219 -181 219c-109 0 -180 -89 -180 -219c0 -133 72 -220 180 -220c110 0 181 87 181 220zM308 582h-33l-138 140l67 15z" />
    <glyph glyph-name="Ohungarumlaut" unicode="&#x150;" horiz-adv-x="744" 
d="M679 346c0 -210 -131 -359 -308 -359s-306 148 -306 357c0 210 131 359 308 359s306 -148 306 -357zM629 344c0 186 -105 316 -258 316c-152 0 -256 -130 -256 -314c0 -186 105 -316 258 -316c152 0 256 130 256 314zM597 906l-138 -140h-31l105 157zM434 906l-139 -140
h-31l106 157z" />
    <glyph glyph-name="ohungarumlaut" unicode="&#x151;" horiz-adv-x="519" 
d="M467 235c0 -155 -93 -245 -208 -245c-117 0 -207 90 -207 245c0 156 93 245 207 245c118 0 208 -89 208 -245zM418 235c0 130 -69 204 -159 204s-158 -71 -158 -204c0 -130 69 -204 158 -204c90 0 159 70 159 204zM485 696l-138 -140h-31l105 157zM322 696l-139 -140h-31
l106 157z" />
    <glyph glyph-name="ohungarumlaut.sc" horiz-adv-x="565" 
d="M510 253c0 -154 -95 -262 -229 -262s-226 107 -226 261s94 262 227 262c134 0 228 -106 228 -261zM463 253c0 130 -71 219 -181 219c-109 0 -180 -89 -180 -219c0 -133 72 -220 180 -220c110 0 181 87 181 220zM511 726l-138 -140h-31l105 157zM348 726l-139 -140h-31
l106 157z" />
    <glyph glyph-name="Omacron" unicode="&#x14c;" horiz-adv-x="744" 
d="M679 346c0 -210 -131 -359 -308 -359s-306 148 -306 357c0 210 131 359 308 359s306 -148 306 -357zM629 344c0 186 -105 316 -258 316c-152 0 -256 -130 -256 -314c0 -186 105 -316 258 -316c152 0 256 130 256 314zM500 793h-255v43h255v-43z" />
    <glyph glyph-name="omacron" unicode="&#x14d;" horiz-adv-x="519" 
d="M467 235c0 -155 -93 -245 -208 -245c-117 0 -207 90 -207 245c0 156 93 245 207 245c118 0 208 -89 208 -245zM418 235c0 130 -69 204 -159 204s-158 -71 -158 -204c0 -130 69 -204 158 -204c90 0 159 70 159 204zM388 583h-255v43h255v-43z" />
    <glyph glyph-name="omacron.sc" horiz-adv-x="565" 
d="M510 253c0 -154 -95 -262 -229 -262s-226 107 -226 261s94 262 227 262c134 0 228 -106 228 -261zM463 253c0 130 -71 219 -181 219c-109 0 -180 -89 -180 -219c0 -133 72 -220 180 -220c110 0 181 87 181 220zM414 613h-255v43h255v-43z" />
    <glyph glyph-name="Oslash" unicode="&#xd8;" horiz-adv-x="744" 
d="M679 346c0 -210 -131 -359 -308 -359c-80 0 -150 30 -203 82l-63 -76l-44 9l81 96c-49 63 -77 147 -77 246c0 210 131 359 308 359c79 0 149 -30 202 -82l64 76l44 -9l-82 -97c49 -62 78 -147 78 -245zM630 344c0 85 -21 158 -59 212l-375 -453c45 -47 105 -74 177 -74
c153 0 257 130 257 315zM371 661c-153 0 -257 -130 -257 -315c0 -86 21 -158 58 -213l375 454c-44 47 -105 74 -176 74z" />
    <glyph glyph-name="oslash" unicode="&#xf8;" horiz-adv-x="519" 
d="M467 235c0 -155 -93 -245 -208 -245c-51 0 -97 17 -132 49l-37 -46l-42 9l52 66c-30 41 -48 97 -48 167c0 156 93 245 207 245c52 0 98 -17 134 -50l38 48l41 -10l-54 -66c31 -41 49 -97 49 -167zM259 441c-94 0 -161 -75 -161 -206c0 -53 11 -98 32 -132l236 293
c-28 29 -65 45 -107 45zM421 235c0 53 -12 97 -33 131l-235 -293c27 -28 64 -44 106 -44c93 0 162 75 162 206z" />
    <glyph glyph-name="oslash.sc" horiz-adv-x="565" 
d="M513 502l-58 -71c35 -45 55 -106 55 -178c0 -154 -95 -262 -229 -262c-57 0 -107 19 -145 54l-41 -51l-42 9l57 70c-35 45 -55 107 -55 179c0 154 94 262 227 262c58 0 108 -20 147 -55l42 52zM101 253c0 -59 14 -109 39 -146l261 319c-30 30 -71 48 -119 48
c-109 0 -181 -91 -181 -221zM464 253c0 57 -14 106 -39 144l-261 -319c30 -30 71 -47 118 -47c110 0 182 89 182 222z" />
    <glyph glyph-name="Oslashacute" unicode="&#x1fe;" horiz-adv-x="744" 
d="M679 346c0 -210 -131 -359 -308 -359c-80 0 -150 30 -203 82l-63 -76l-44 9l81 96c-49 63 -77 147 -77 246c0 210 131 359 308 359c79 0 149 -30 202 -82l64 76l44 -9l-82 -97c49 -62 78 -147 78 -245zM630 344c0 85 -21 158 -59 212l-375 -453c45 -47 105 -74 177 -74
c153 0 257 130 257 315zM371 661c-153 0 -257 -130 -257 -315c0 -86 21 -158 58 -213l375 454c-44 47 -105 74 -176 74zM522 902l-138 -140h-34l106 155z" />
    <glyph glyph-name="oslashacute" unicode="&#x1ff;" horiz-adv-x="519" 
d="M467 235c0 -155 -93 -245 -208 -245c-51 0 -97 17 -132 49l-37 -46l-42 9l52 66c-30 41 -48 97 -48 167c0 156 93 245 207 245c52 0 98 -17 134 -50l38 48l41 -10l-54 -66c31 -41 49 -97 49 -167zM259 441c-94 0 -161 -75 -161 -206c0 -53 11 -98 32 -132l236 293
c-28 29 -65 45 -107 45zM421 235c0 53 -12 97 -33 131l-235 -293c27 -28 64 -44 106 -44c93 0 162 75 162 206zM410 692l-138 -140h-34l106 155z" />
    <glyph glyph-name="oslashacute.sc" horiz-adv-x="565" 
d="M513 502l-58 -71c35 -45 55 -106 55 -178c0 -154 -95 -262 -229 -262c-57 0 -107 19 -145 54l-41 -51l-42 9l57 70c-35 45 -55 107 -55 179c0 154 94 262 227 262c58 0 108 -20 147 -55l42 52zM101 253c0 -59 14 -109 39 -146l261 319c-30 30 -71 48 -119 48
c-109 0 -181 -91 -181 -221zM464 253c0 57 -14 106 -39 144l-261 -319c30 -30 71 -47 118 -47c110 0 182 89 182 222zM433 722l-138 -140h-34l106 155z" />
    <glyph glyph-name="Otilde" unicode="&#xd5;" horiz-adv-x="744" 
d="M679 346c0 -210 -131 -359 -308 -359s-306 148 -306 357c0 210 131 359 308 359s306 -148 306 -357zM629 344c0 186 -105 316 -258 316c-152 0 -256 -130 -256 -314c0 -186 105 -316 258 -316c152 0 256 130 256 314zM518 865c-10 -60 -38 -95 -72 -95
c-28 0 -42 8 -78 27c-32 17 -45 27 -62 27c-16 0 -30 -18 -39 -55l-34 7c11 61 38 96 72 96c29 0 42 -9 78 -28c32 -17 46 -26 62 -26c17 0 30 18 40 54z" />
    <glyph glyph-name="otilde" unicode="&#xf5;" horiz-adv-x="519" 
d="M467 235c0 -155 -93 -245 -208 -245c-117 0 -207 90 -207 245c0 156 93 245 207 245c118 0 208 -89 208 -245zM418 235c0 130 -69 204 -159 204s-158 -71 -158 -204c0 -130 69 -204 158 -204c90 0 159 70 159 204zM406 655c-10 -60 -38 -95 -72 -95c-28 0 -42 8 -78 27
c-32 17 -45 27 -62 27c-16 0 -30 -18 -39 -55l-34 7c11 61 38 96 72 96c29 0 42 -9 78 -28c32 -17 46 -26 62 -26c17 0 30 18 40 54z" />
    <glyph glyph-name="otilde.sc" horiz-adv-x="565" 
d="M510 253c0 -154 -95 -262 -229 -262s-226 107 -226 261s94 262 227 262c134 0 228 -106 228 -261zM463 253c0 130 -71 219 -181 219c-109 0 -180 -89 -180 -219c0 -133 72 -220 180 -220c110 0 181 87 181 220zM432 685c-10 -60 -38 -95 -72 -95c-28 0 -42 8 -78 27
c-32 17 -45 27 -62 27c-16 0 -30 -18 -39 -55l-34 7c11 61 38 96 72 96c29 0 42 -9 78 -28c32 -17 46 -26 62 -26c17 0 30 18 40 54z" />
    <glyph glyph-name="Racute" unicode="&#x154;" horiz-adv-x="564" 
d="M536 4l-51 -11l-229 316h-108v-309h-48v690h163c135 0 217 -72 217 -186c0 -107 -80 -172 -170 -189zM430 502c0 90 -58 145 -170 145h-112v-296h99c112 0 183 57 183 151zM412 892l-138 -140h-34l106 155z" />
    <glyph glyph-name="racute" unicode="&#x155;" horiz-adv-x="332" 
d="M306 436c-77 -5 -144 -64 -176 -127v-309h-47v470h31l15 -98c36 53 91 107 169 108zM322 692l-138 -140h-34l106 155z" />
    <glyph glyph-name="racute.sc" horiz-adv-x="472" 
d="M434 5l-51 -10l-159 213h-90v-208h-47v505h137c116 0 179 -55 179 -145c0 -75 -50 -129 -126 -146zM355 358c0 66 -42 105 -135 105h-86v-214h88c92 0 133 50 133 109zM374 722l-138 -140h-34l106 155z" />
    <glyph glyph-name="Rcaron" unicode="&#x158;" horiz-adv-x="564" 
d="M536 4l-51 -11l-229 316h-108v-309h-48v690h163c135 0 217 -72 217 -186c0 -107 -80 -172 -170 -189zM430 502c0 90 -58 145 -170 145h-112v-296h99c112 0 183 57 183 151zM134 901h32l97 -93l97 93h32l-107 -149h-44z" />
    <glyph glyph-name="rcaron" unicode="&#x159;" horiz-adv-x="332" 
d="M306 436c-77 -5 -144 -64 -176 -127v-309h-47v470h31l15 -98c36 53 91 107 169 108zM44 701h32l97 -93l97 93h32l-107 -149h-44z" />
    <glyph glyph-name="rcaron.sc" horiz-adv-x="472" 
d="M434 5l-51 -10l-159 213h-90v-208h-47v505h137c116 0 179 -55 179 -145c0 -75 -50 -129 -126 -146zM355 358c0 66 -42 105 -135 105h-86v-214h88c92 0 133 50 133 109zM96 731h32l97 -93l97 93h32l-107 -149h-44z" />
    <glyph glyph-name="Rcommaaccent" unicode="&#x156;" horiz-adv-x="564" 
d="M536 4l-51 -11l-229 316h-108v-309h-48v690h163c135 0 217 -72 217 -186c0 -107 -80 -172 -170 -189zM430 502c0 90 -58 145 -170 145h-112v-296h99c112 0 183 57 183 151zM240 -87l40 21c35 -23 49 -49 49 -82c0 -42 -36 -79 -73 -109l-33 4c41 39 61 69 61 98
c0 21 -8 41 -44 68z" />
    <glyph glyph-name="rcommaaccent" unicode="&#x157;" horiz-adv-x="332" 
d="M306 436c-77 -5 -144 -64 -176 -127v-309h-47v470h31l15 -98c36 53 91 107 169 108zM75 -87l40 21c35 -23 49 -49 49 -82c0 -42 -36 -79 -73 -109l-33 4c41 39 61 69 61 98c0 21 -8 41 -44 68z" />
    <glyph glyph-name="rcommaaccent.sc" horiz-adv-x="472" 
d="M434 5l-51 -10l-159 213h-90v-208h-47v505h137c116 0 179 -55 179 -145c0 -75 -50 -129 -126 -146zM355 358c0 66 -42 105 -135 105h-86v-214h88c92 0 133 50 133 109zM181 -87l40 21c35 -23 49 -49 49 -82c0 -42 -36 -79 -73 -109l-33 4c41 39 61 69 61 98
c0 21 -8 41 -44 68z" />
    <glyph glyph-name="Sacute" unicode="&#x15a;" horiz-adv-x="512" 
d="M454 178c0 -117 -97 -186 -211 -186c-74 0 -134 19 -176 41l7 49c39 -24 101 -47 172 -47c88 0 158 54 158 140c0 72 -40 113 -145 158c-134 57 -181 103 -181 197c0 98 83 168 188 168c64 0 115 -14 149 -34l-7 -48c-40 23 -85 39 -144 39c-83 0 -137 -55 -137 -123
c0 -70 39 -104 147 -150c123 -52 180 -105 180 -204zM412 902l-138 -140h-34l106 155z" />
    <glyph glyph-name="sacute" unicode="&#x15b;" horiz-adv-x="434" 
d="M382 124c0 -85 -69 -132 -167 -132c-63 0 -125 19 -167 42l9 46c44 -25 101 -46 163 -46c70 0 116 31 116 86c0 49 -29 74 -130 102c-99 27 -144 61 -144 133s62 124 155 124c53 0 100 -13 138 -32l-8 -45c-43 22 -87 34 -132 34c-74 0 -107 -35 -107 -78
c0 -44 28 -66 112 -89c107 -29 162 -66 162 -145zM370 692l-138 -140h-34l106 155z" />
    <glyph glyph-name="sacute.sc" horiz-adv-x="414" 
d="M366 138c0 -83 -70 -144 -174 -144c-58 0 -124 18 -156 35l7 47c32 -17 98 -39 152 -39c81 0 126 45 126 97c0 50 -30 75 -119 106c-107 37 -146 68 -146 138c0 80 71 134 156 134c55 0 105 -14 133 -29l-9 -47c-27 16 -77 33 -126 33c-65 0 -108 -38 -108 -87
c0 -47 25 -66 111 -96c116 -41 153 -79 153 -148zM359 722l-138 -140h-34l106 155z" />
    <glyph glyph-name="Scaron" unicode="&#x160;" horiz-adv-x="512" 
d="M454 178c0 -117 -97 -186 -211 -186c-74 0 -134 19 -176 41l7 49c39 -24 101 -47 172 -47c88 0 158 54 158 140c0 72 -40 113 -145 158c-134 57 -181 103 -181 197c0 98 83 168 188 168c64 0 115 -14 149 -34l-7 -48c-40 23 -85 39 -144 39c-83 0 -137 -55 -137 -123
c0 -70 39 -104 147 -150c123 -52 180 -105 180 -204zM134 911h32l97 -93l97 93h32l-107 -149h-44z" />
    <glyph glyph-name="scaron" unicode="&#x161;" horiz-adv-x="434" 
d="M382 124c0 -85 -69 -132 -167 -132c-63 0 -125 19 -167 42l9 46c44 -25 101 -46 163 -46c70 0 116 31 116 86c0 49 -29 74 -130 102c-99 27 -144 61 -144 133s62 124 155 124c53 0 100 -13 138 -32l-8 -45c-43 22 -87 34 -132 34c-74 0 -107 -35 -107 -78
c0 -44 28 -66 112 -89c107 -29 162 -66 162 -145zM92 701h32l97 -93l97 93h32l-107 -149h-44z" />
    <glyph glyph-name="scaron.sc" horiz-adv-x="414" 
d="M366 138c0 -83 -70 -144 -174 -144c-58 0 -124 18 -156 35l7 47c32 -17 98 -39 152 -39c81 0 126 45 126 97c0 50 -30 75 -119 106c-107 37 -146 68 -146 138c0 80 71 134 156 134c55 0 105 -14 133 -29l-9 -47c-27 16 -77 33 -126 33c-65 0 -108 -38 -108 -87
c0 -47 25 -66 111 -96c116 -41 153 -79 153 -148zM81 731h32l97 -93l97 93h32l-107 -149h-44z" />
    <glyph glyph-name="Scedilla" unicode="&#x15e;" horiz-adv-x="512" 
d="M454 178c0 -117 -97 -186 -211 -186c-74 0 -134 19 -176 41l7 49c39 -24 101 -47 172 -47c88 0 158 54 158 140c0 72 -40 113 -145 158c-134 57 -181 103 -181 197c0 98 83 168 188 168c64 0 115 -14 149 -34l-7 -48c-40 23 -85 39 -144 39c-83 0 -137 -55 -137 -123
c0 -70 39 -104 147 -150c123 -52 180 -105 180 -204zM306 -77l-121 -119h-34l90 135z" />
    <glyph glyph-name="scedilla" unicode="&#x15f;" horiz-adv-x="434" 
d="M382 124c0 -85 -69 -132 -167 -132c-63 0 -125 19 -167 42l9 46c44 -25 101 -46 163 -46c70 0 116 31 116 86c0 49 -29 74 -130 102c-99 27 -144 61 -144 133s62 124 155 124c53 0 100 -13 138 -32l-8 -45c-43 22 -87 34 -132 34c-74 0 -107 -35 -107 -78
c0 -44 28 -66 112 -89c107 -29 162 -66 162 -145zM264 -77l-121 -119h-34l90 135z" />
    <glyph glyph-name="scedilla.sc" horiz-adv-x="414" 
d="M366 138c0 -83 -70 -144 -174 -144c-58 0 -124 18 -156 35l7 47c32 -17 98 -39 152 -39c81 0 126 45 126 97c0 50 -30 75 -119 106c-107 37 -146 68 -146 138c0 80 71 134 156 134c55 0 105 -14 133 -29l-9 -47c-27 16 -77 33 -126 33c-65 0 -108 -38 -108 -87
c0 -47 25 -66 111 -96c116 -41 153 -79 153 -148zM253 -77l-121 -119h-34l90 135z" />
    <glyph glyph-name="Scommaaccent" unicode="&#x218;" horiz-adv-x="512" 
d="M454 178c0 -117 -97 -186 -211 -186c-74 0 -134 19 -176 41l7 49c39 -24 101 -47 172 -47c88 0 158 54 158 140c0 72 -40 113 -145 158c-134 57 -181 103 -181 197c0 98 83 168 188 168c64 0 115 -14 149 -34l-7 -48c-40 23 -85 39 -144 39c-83 0 -137 -55 -137 -123
c0 -70 39 -104 147 -150c123 -52 180 -105 180 -204zM219 -87l40 21c35 -23 49 -49 49 -82c0 -42 -36 -79 -73 -109l-33 4c41 39 61 69 61 98c0 21 -8 41 -44 68z" />
    <glyph glyph-name="scommaaccent" unicode="&#x219;" horiz-adv-x="434" 
d="M382 124c0 -85 -69 -132 -167 -132c-63 0 -125 19 -167 42l9 46c44 -25 101 -46 163 -46c70 0 116 31 116 86c0 49 -29 74 -130 102c-99 27 -144 61 -144 133s62 124 155 124c53 0 100 -13 138 -32l-8 -45c-43 22 -87 34 -132 34c-74 0 -107 -35 -107 -78
c0 -44 28 -66 112 -89c107 -29 162 -66 162 -145zM177 -87l40 21c35 -23 49 -49 49 -82c0 -42 -36 -79 -73 -109l-33 4c41 39 61 69 61 98c0 21 -8 41 -44 68z" />
    <glyph glyph-name="scommaaccent.sc" horiz-adv-x="414" 
d="M366 138c0 -83 -70 -144 -174 -144c-58 0 -124 18 -156 35l7 47c32 -17 98 -39 152 -39c81 0 126 45 126 97c0 50 -30 75 -119 106c-107 37 -146 68 -146 138c0 80 71 134 156 134c55 0 105 -14 133 -29l-9 -47c-27 16 -77 33 -126 33c-65 0 -108 -38 -108 -87
c0 -47 25 -66 111 -96c116 -41 153 -79 153 -148zM166 -87l40 21c35 -23 49 -49 49 -82c0 -42 -36 -79 -73 -109l-33 4c41 39 61 69 61 98c0 21 -8 41 -44 68z" />
    <glyph glyph-name="Tcaron" unicode="&#x164;" horiz-adv-x="562" 
d="M532 646h-227v-646h-48v646h-224v44h493zM156 901h32l97 -93l97 93h32l-107 -149h-44z" />
    <glyph glyph-name="tcaron" unicode="&#x165;" horiz-adv-x="324" 
d="M280 2c-12 -5 -38 -10 -64 -10c-67 0 -111 28 -111 107v331h-73v40h73v167l47 10v-177h115l6 -40h-121v-323c0 -55 22 -74 74 -74c15 0 36 4 47 7zM268 735c12 -23 20 -44 20 -69c0 -46 -26 -86 -62 -119l-23 5c25 36 37 63 37 96c0 26 -8 49 -21 76z" />
    <glyph glyph-name="tcaron.sc" horiz-adv-x="447" 
d="M421 463h-175v-463h-47v463h-172v42h388zM97 731h32l97 -93l97 93h32l-107 -149h-44z" />
    <glyph glyph-name="Tcommaaccent" unicode="&#x162;" horiz-adv-x="562" 
d="M532 646h-227v-646h-48v646h-224v44h493zM241 -87l40 21c35 -23 49 -49 49 -82c0 -42 -36 -79 -73 -109l-33 4c41 39 61 69 61 98c0 21 -8 41 -44 68z" />
    <glyph glyph-name="Tcommaaccent" unicode="&#x21a;" horiz-adv-x="562" 
d="M532 646h-227v-646h-48v646h-224v44h493zM241 -87l40 21c35 -23 49 -49 49 -82c0 -42 -36 -79 -73 -109l-33 4c41 39 61 69 61 98c0 21 -8 41 -44 68z" />
    <glyph glyph-name="tcommaaccent" unicode="&#x163;" horiz-adv-x="324" 
d="M280 2c-12 -5 -38 -10 -64 -10c-67 0 -111 28 -111 107v331h-73v40h73v167l47 10v-177h115l6 -40h-121v-323c0 -55 22 -74 74 -74c15 0 36 4 47 7zM143 -87l40 21c35 -23 49 -49 49 -82c0 -42 -36 -79 -73 -109l-33 4c41 39 61 69 61 98c0 21 -8 41 -44 68z" />
    <glyph glyph-name="tcommaaccent" unicode="&#x21b;" horiz-adv-x="324" 
d="M280 2c-12 -5 -38 -10 -64 -10c-67 0 -111 28 -111 107v331h-73v40h73v167l47 10v-177h115l6 -40h-121v-323c0 -55 22 -74 74 -74c15 0 36 4 47 7zM143 -87l40 21c35 -23 49 -49 49 -82c0 -42 -36 -79 -73 -109l-33 4c41 39 61 69 61 98c0 21 -8 41 -44 68z" />
    <glyph glyph-name="tcommaaccent.sc" horiz-adv-x="447" 
d="M421 463h-175v-463h-47v463h-172v42h388zM182 -87l40 21c35 -23 49 -49 49 -82c0 -42 -36 -79 -73 -109l-33 4c41 39 61 69 61 98c0 21 -8 41 -44 68z" />
    <glyph glyph-name="Uacute" unicode="&#xda;" horiz-adv-x="674" 
d="M589 260c0 -161 -95 -270 -254 -270c-158 0 -250 111 -250 265v435h48v-428c0 -135 71 -229 204 -229c131 0 204 89 204 224v433h48v-430zM487 892l-138 -140h-34l106 155z" />
    <glyph glyph-name="uacute" unicode="&#xfa;" horiz-adv-x="520" 
d="M437 0h-34l-12 71c-57 -50 -109 -81 -171 -81c-97 0 -143 55 -143 149v331h47v-327c0 -71 34 -110 101 -110c52 0 106 30 165 85v352h47v-470zM408 687l-138 -140h-34l106 155z" />
    <glyph glyph-name="uacute.sc" horiz-adv-x="536" 
d="M456 192c0 -122 -72 -200 -190 -200s-186 80 -186 196v317h45v-310c0 -95 48 -161 141 -161s143 61 143 157v314h47v-313zM418 717l-138 -140h-34l106 155z" />
    <glyph glyph-name="Uacute.alt" horiz-adv-x="693" 
d="M560 0l-13 87c-68 -59 -145 -95 -223 -95c-138 0 -229 70 -229 229v469h48v-466c0 -127 68 -189 184 -189c81 0 150 40 218 102v553h48v-690h-33zM497 892l-138 -140h-34l106 155z" />
    <glyph glyph-name="uacute.sc_alt" horiz-adv-x="542" 
d="M455 0h-35l-9 60c-50 -40 -104 -66 -162 -66c-102 0 -167 52 -167 167v344h46v-339c0 -86 44 -130 124 -130c57 0 108 28 156 71v398h47v-505zM418 717l-138 -140h-34l106 155z" />
    <glyph glyph-name="Ubreve" unicode="&#x16c;" horiz-adv-x="674" 
d="M589 260c0 -161 -95 -270 -254 -270c-158 0 -250 111 -250 265v435h48v-428c0 -135 71 -229 204 -229c131 0 204 89 204 224v433h48v-430zM461 856c-7 -53 -44 -109 -124 -109s-117 56 -124 109l35 5c12 -42 45 -67 89 -67s76 25 89 67z" />
    <glyph glyph-name="ubreve" unicode="&#x16d;" horiz-adv-x="520" 
d="M437 0h-34l-12 71c-57 -50 -109 -81 -171 -81c-97 0 -143 55 -143 149v331h47v-327c0 -71 34 -110 101 -110c52 0 106 30 165 85v352h47v-470zM382 661c-7 -53 -44 -109 -124 -109s-117 56 -124 109l35 5c12 -42 45 -67 89 -67s76 25 89 67z" />
    <glyph glyph-name="ubreve.sc" horiz-adv-x="536" 
d="M456 192c0 -122 -72 -200 -190 -200s-186 80 -186 196v317h45v-310c0 -95 48 -161 141 -161s143 61 143 157v314h47v-313zM392 686c-7 -53 -44 -109 -124 -109s-117 56 -124 109l35 5c12 -42 45 -67 89 -67s76 25 89 67z" />
    <glyph glyph-name="Ubreve.alt" horiz-adv-x="693" 
d="M560 0l-13 87c-68 -59 -145 -95 -223 -95c-138 0 -229 70 -229 229v469h48v-466c0 -127 68 -189 184 -189c81 0 150 40 218 102v553h48v-690h-33zM471 856c-7 -53 -44 -109 -124 -109s-117 56 -124 109l35 5c12 -42 45 -67 89 -67s76 25 89 67z" />
    <glyph glyph-name="ubreve.sc_alt" horiz-adv-x="542" 
d="M455 0h-35l-9 60c-50 -40 -104 -66 -162 -66c-102 0 -167 52 -167 167v344h46v-339c0 -86 44 -130 124 -130c57 0 108 28 156 71v398h47v-505zM392 686c-7 -53 -44 -109 -124 -109s-117 56 -124 109l35 5c12 -42 45 -67 89 -67s76 25 89 67z" />
    <glyph glyph-name="Ucircumflex" unicode="&#xdb;" horiz-adv-x="674" 
d="M589 260c0 -161 -95 -270 -254 -270c-158 0 -250 111 -250 265v435h48v-428c0 -135 71 -229 204 -229c131 0 204 89 204 224v433h48v-430zM465 752h-32l-97 93l-97 -93h-32l107 149h44z" />
    <glyph glyph-name="ucircumflex" unicode="&#xfb;" horiz-adv-x="520" 
d="M437 0h-34l-12 71c-57 -50 -109 -81 -171 -81c-97 0 -143 55 -143 149v331h47v-327c0 -71 34 -110 101 -110c52 0 106 30 165 85v352h47v-470zM386 547h-32l-97 93l-97 -93h-32l107 149h44z" />
    <glyph glyph-name="ucircumflex.sc" horiz-adv-x="536" 
d="M456 192c0 -122 -72 -200 -190 -200s-186 80 -186 196v317h45v-310c0 -95 48 -161 141 -161s143 61 143 157v314h47v-313zM396 577h-32l-97 93l-97 -93h-32l107 149h44z" />
    <glyph glyph-name="Ucircumflex.alt" horiz-adv-x="693" 
d="M560 0l-13 87c-68 -59 -145 -95 -223 -95c-138 0 -229 70 -229 229v469h48v-466c0 -127 68 -189 184 -189c81 0 150 40 218 102v553h48v-690h-33zM475 752h-32l-97 93l-97 -93h-32l107 149h44z" />
    <glyph glyph-name="ucircumflex.sc_alt" horiz-adv-x="542" 
d="M455 0h-35l-9 60c-50 -40 -104 -66 -162 -66c-102 0 -167 52 -167 167v344h46v-339c0 -86 44 -130 124 -130c57 0 108 28 156 71v398h47v-505zM396 577h-32l-97 93l-97 -93h-32l107 149h44z" />
    <glyph glyph-name="Udieresis" unicode="&#xdc;" horiz-adv-x="674" 
d="M589 260c0 -161 -95 -270 -254 -270c-158 0 -250 111 -250 265v435h48v-428c0 -135 71 -229 204 -229c131 0 204 89 204 224v433h48v-430zM455 766h-70v79h70v-79zM288 766h-69v79h69v-79z" />
    <glyph glyph-name="udieresis" unicode="&#xfc;" horiz-adv-x="520" 
d="M437 0h-34l-12 71c-57 -50 -109 -81 -171 -81c-97 0 -143 55 -143 149v331h47v-327c0 -71 34 -110 101 -110c52 0 106 30 165 85v352h47v-470zM376 561h-70v79h70v-79zM209 561h-69v79h69v-79z" />
    <glyph glyph-name="udieresis.sc" horiz-adv-x="536" 
d="M456 192c0 -122 -72 -200 -190 -200s-186 80 -186 196v317h45v-310c0 -95 48 -161 141 -161s143 61 143 157v314h47v-313zM386 591h-70v79h70v-79zM219 591h-69v79h69v-79z" />
    <glyph glyph-name="Udieresis.alt" horiz-adv-x="693" 
d="M560 0l-13 87c-68 -59 -145 -95 -223 -95c-138 0 -229 70 -229 229v469h48v-466c0 -127 68 -189 184 -189c81 0 150 40 218 102v553h48v-690h-33zM465 766h-70v79h70v-79zM298 766h-69v79h69v-79z" />
    <glyph glyph-name="udieresis.sc_alt" horiz-adv-x="542" 
d="M455 0h-35l-9 60c-50 -40 -104 -66 -162 -66c-102 0 -167 52 -167 167v344h46v-339c0 -86 44 -130 124 -130c57 0 108 28 156 71v398h47v-505zM386 591h-70v79h70v-79zM219 591h-69v79h69v-79z" />
    <glyph glyph-name="Ugrave" unicode="&#xd9;" horiz-adv-x="674" 
d="M589 260c0 -161 -95 -270 -254 -270c-158 0 -250 111 -250 265v435h48v-428c0 -135 71 -229 204 -229c131 0 204 89 204 224v433h48v-430zM359 752h-33l-138 140l67 15z" />
    <glyph glyph-name="ugrave" unicode="&#xf9;" horiz-adv-x="520" 
d="M437 0h-34l-12 71c-57 -50 -109 -81 -171 -81c-97 0 -143 55 -143 149v331h47v-327c0 -71 34 -110 101 -110c52 0 106 30 165 85v352h47v-470zM280 547h-33l-138 140l67 15z" />
    <glyph glyph-name="ugrave.sc" horiz-adv-x="536" 
d="M456 192c0 -122 -72 -200 -190 -200s-186 80 -186 196v317h45v-310c0 -95 48 -161 141 -161s143 61 143 157v314h47v-313zM290 577h-33l-138 140l67 15z" />
    <glyph glyph-name="Ugrave.alt" horiz-adv-x="693" 
d="M560 0l-13 87c-68 -59 -145 -95 -223 -95c-138 0 -229 70 -229 229v469h48v-466c0 -127 68 -189 184 -189c81 0 150 40 218 102v553h48v-690h-33zM369 752h-33l-138 140l67 15z" />
    <glyph glyph-name="ugrave.sc_alt" horiz-adv-x="542" 
d="M455 0h-35l-9 60c-50 -40 -104 -66 -162 -66c-102 0 -167 52 -167 167v344h46v-339c0 -86 44 -130 124 -130c57 0 108 28 156 71v398h47v-505zM290 577h-33l-138 140l67 15z" />
    <glyph glyph-name="Uhungarumlaut" unicode="&#x170;" horiz-adv-x="674" 
d="M589 260c0 -161 -95 -270 -254 -270c-158 0 -250 111 -250 265v435h48v-428c0 -135 71 -229 204 -229c131 0 204 89 204 224v433h48v-430zM562 896l-138 -140h-31l105 157zM399 896l-139 -140h-31l106 157z" />
    <glyph glyph-name="uhungarumlaut" unicode="&#x171;" horiz-adv-x="520" 
d="M437 0h-34l-12 71c-57 -50 -109 -81 -171 -81c-97 0 -143 55 -143 149v331h47v-327c0 -71 34 -110 101 -110c52 0 106 30 165 85v352h47v-470zM483 691l-138 -140h-31l105 157zM320 691l-139 -140h-31l106 157z" />
    <glyph glyph-name="uhungarumlaut.sc" horiz-adv-x="536" 
d="M456 192c0 -122 -72 -200 -190 -200s-186 80 -186 196v317h45v-310c0 -95 48 -161 141 -161s143 61 143 157v314h47v-313zM493 721l-138 -140h-31l105 157zM330 721l-139 -140h-31l106 157z" />
    <glyph glyph-name="Uhungarumlaut.alt" horiz-adv-x="693" 
d="M560 0l-13 87c-68 -59 -145 -95 -223 -95c-138 0 -229 70 -229 229v469h48v-466c0 -127 68 -189 184 -189c81 0 150 40 218 102v553h48v-690h-33zM572 896l-138 -140h-31l105 157zM409 896l-139 -140h-31l106 157z" />
    <glyph glyph-name="uhungarumlaut.sc_alt" horiz-adv-x="542" 
d="M455 0h-35l-9 60c-50 -40 -104 -66 -162 -66c-102 0 -167 52 -167 167v344h46v-339c0 -86 44 -130 124 -130c57 0 108 28 156 71v398h47v-505zM493 721l-138 -140h-31l105 157zM330 721l-139 -140h-31l106 157z" />
    <glyph glyph-name="Umacron" unicode="&#x16a;" horiz-adv-x="674" 
d="M589 260c0 -161 -95 -270 -254 -270c-158 0 -250 111 -250 265v435h48v-428c0 -135 71 -229 204 -229c131 0 204 89 204 224v433h48v-430zM465 783h-255v43h255v-43z" />
    <glyph glyph-name="umacron" unicode="&#x16b;" horiz-adv-x="520" 
d="M437 0h-34l-12 71c-57 -50 -109 -81 -171 -81c-97 0 -143 55 -143 149v331h47v-327c0 -71 34 -110 101 -110c52 0 106 30 165 85v352h47v-470zM386 578h-255v43h255v-43z" />
    <glyph glyph-name="umacron.sc" horiz-adv-x="536" 
d="M456 192c0 -122 -72 -200 -190 -200s-186 80 -186 196v317h45v-310c0 -95 48 -161 141 -161s143 61 143 157v314h47v-313zM396 608h-255v43h255v-43z" />
    <glyph glyph-name="Umacron.alt" horiz-adv-x="693" 
d="M560 0l-13 87c-68 -59 -145 -95 -223 -95c-138 0 -229 70 -229 229v469h48v-466c0 -127 68 -189 184 -189c81 0 150 40 218 102v553h48v-690h-33zM475 783h-255v43h255v-43z" />
    <glyph glyph-name="umacron.sc_alt" horiz-adv-x="542" 
d="M455 0h-35l-9 60c-50 -40 -104 -66 -162 -66c-102 0 -167 52 -167 167v344h46v-339c0 -86 44 -130 124 -130c57 0 108 28 156 71v398h47v-505zM396 608h-255v43h255v-43z" />
    <glyph glyph-name="Uogonek" unicode="&#x172;" horiz-adv-x="674" 
d="M589 260c0 -153 -86 -259 -230 -269l-17 -25c-21 -31 -29 -47 -29 -67c0 -24 13 -37 39 -37c13 0 27 2 40 6v-31c-17 -7 -33 -10 -49 -10c-48 0 -72 25 -72 64c0 30 15 52 41 87l9 12c-150 7 -236 115 -236 265v435h48v-428c0 -135 71 -229 204 -229
c131 0 204 89 204 224v433h48v-430z" />
    <glyph glyph-name="uogonek" unicode="&#x173;" horiz-adv-x="520" 
d="M437 0h-5l-23 -34c-21 -31 -29 -47 -29 -67c0 -24 13 -37 39 -37c13 0 27 2 40 6v-31c-17 -7 -33 -10 -49 -10c-48 0 -72 25 -72 64c0 30 15 52 41 87l22 30l-10 63c-57 -50 -109 -81 -171 -81c-97 0 -143 55 -143 149v331h47v-327c0 -71 34 -110 101 -110
c52 0 106 30 165 85v352h47v-470z" />
    <glyph glyph-name="uogonek.sc" horiz-adv-x="536" 
d="M456 192c0 -113 -61 -188 -163 -198l-19 -28c-21 -31 -29 -47 -29 -67c0 -24 13 -37 39 -37c13 0 27 2 40 6v-31c-17 -7 -33 -10 -49 -10c-48 0 -72 25 -72 64c0 30 15 52 41 87l10 14c-111 5 -174 83 -174 196v317h45v-310c0 -95 48 -161 141 -161s143 61 143 157v314
h47v-313z" />
    <glyph glyph-name="Uogonek.alt" horiz-adv-x="693" 
d="M593 0h-10l-23 -34c-21 -31 -29 -47 -29 -67c0 -24 13 -37 39 -37c13 0 27 2 40 6v-31c-17 -7 -33 -10 -49 -10c-48 0 -72 25 -72 64c0 30 15 52 41 87l27 37l-10 72c-68 -59 -145 -95 -223 -95c-138 0 -229 70 -229 229v469h48v-466c0 -127 68 -189 184 -189
c81 0 150 40 218 102v553h48v-690z" />
    <glyph glyph-name="uogonek.sc_alt" horiz-adv-x="542" 
d="M455 0h-6l-23 -34c-21 -31 -29 -47 -29 -67c0 -24 13 -37 39 -37c13 0 27 2 40 6v-31c-17 -7 -33 -10 -49 -10c-48 0 -72 25 -72 64c0 30 15 52 41 87l22 31l-7 51c-50 -40 -104 -66 -162 -66c-102 0 -167 52 -167 167v344h46v-339c0 -86 44 -130 124 -130
c57 0 108 28 156 71v398h47v-505z" />
    <glyph glyph-name="Uring" unicode="&#x16e;" horiz-adv-x="674" 
d="M589 260c0 -161 -95 -270 -254 -270c-158 0 -250 111 -250 265v435h48v-428c0 -135 71 -229 204 -229c131 0 204 89 204 224v433h48v-430zM430 827c0 -53 -40 -92 -93 -92s-94 39 -94 92c0 52 41 94 94 94s93 -42 93 -94zM396 827c0 36 -25 63 -59 63s-60 -27 -60 -63
s26 -62 60 -62s59 26 59 62z" />
    <glyph glyph-name="uring" unicode="&#x16f;" horiz-adv-x="520" 
d="M437 0h-34l-12 71c-57 -50 -109 -81 -171 -81c-97 0 -143 55 -143 149v331h47v-327c0 -71 34 -110 101 -110c52 0 106 30 165 85v352h47v-470zM351 637c0 -53 -40 -92 -93 -92s-94 39 -94 92c0 52 41 94 94 94s93 -42 93 -94zM317 637c0 36 -25 63 -59 63
s-60 -27 -60 -63s26 -62 60 -62s59 26 59 62z" />
    <glyph glyph-name="uring.sc" horiz-adv-x="536" 
d="M456 192c0 -122 -72 -200 -190 -200s-186 80 -186 196v317h45v-310c0 -95 48 -161 141 -161s143 61 143 157v314h47v-313zM361 657c0 -53 -40 -92 -93 -92s-94 39 -94 92c0 52 41 94 94 94s93 -42 93 -94zM327 657c0 36 -25 63 -59 63s-60 -27 -60 -63s26 -62 60 -62
s59 26 59 62z" />
    <glyph glyph-name="Uring.alt" horiz-adv-x="693" 
d="M560 0l-13 87c-68 -59 -145 -95 -223 -95c-138 0 -229 70 -229 229v469h48v-466c0 -127 68 -189 184 -189c81 0 150 40 218 102v553h48v-690h-33zM440 827c0 -53 -40 -92 -93 -92s-94 39 -94 92c0 52 41 94 94 94s93 -42 93 -94zM406 827c0 36 -25 63 -59 63
s-60 -27 -60 -63s26 -62 60 -62s59 26 59 62z" />
    <glyph glyph-name="uring.sc_alt" horiz-adv-x="542" 
d="M455 0h-35l-9 60c-50 -40 -104 -66 -162 -66c-102 0 -167 52 -167 167v344h46v-339c0 -86 44 -130 124 -130c57 0 108 28 156 71v398h47v-505zM361 657c0 -53 -40 -92 -93 -92s-94 39 -94 92c0 52 41 94 94 94s93 -42 93 -94zM327 657c0 36 -25 63 -59 63
s-60 -27 -60 -63s26 -62 60 -62s59 26 59 62z" />
    <glyph glyph-name="Wacute" unicode="&#x1e82;" horiz-adv-x="1033" 
d="M979 690l-209 -692h-44l-211 626l-208 -626h-43l-209 688l48 11l186 -626l202 619h51l206 -619l183 619h48zM667 892l-138 -140h-34l106 155z" />
    <glyph glyph-name="wacute" unicode="&#x1e83;" horiz-adv-x="732" 
d="M697 470l-160 -475h-43l-128 410l-128 -410h-43l-160 473l46 10l136 -426l129 421h43l129 -421l131 418h48zM517 692l-138 -140h-34l106 155z" />
    <glyph glyph-name="wacute.sc" horiz-adv-x="759" 
d="M720 505l-151 -508h-44l-146 433l-146 -433h-44l-150 504l46 10l129 -446l146 442h40l145 -442l128 440h47zM530 722l-138 -140h-34l106 155z" />
    <glyph glyph-name="Wacute.alt" horiz-adv-x="1011" 
d="M965 690l-260 -692h-43l-158 424l-157 -424h-43l-257 688l50 11l231 -633l152 421l-74 201l50 11l230 -633l228 626h51zM649 892l-138 -140h-34l106 155z" />
    <glyph glyph-name="wacute.sc_alt" horiz-adv-x="745" 
d="M714 505l-187 -509h-41l-113 300l-114 -300h-41l-186 505l47 10l162 -454l110 299l-54 145l48 10l163 -454l157 448h49zM523 722l-138 -140h-34l106 155z" />
    <glyph glyph-name="Wcircumflex" unicode="&#x174;" horiz-adv-x="1033" 
d="M979 690l-209 -692h-44l-211 626l-208 -626h-43l-209 688l48 11l186 -626l202 619h51l206 -619l183 619h48zM645 747h-32l-97 93l-97 -93h-32l107 149h44z" />
    <glyph glyph-name="wcircumflex" unicode="&#x175;" horiz-adv-x="732" 
d="M697 470l-160 -475h-43l-128 410l-128 -410h-43l-160 473l46 10l136 -426l129 421h43l129 -421l131 418h48zM495 542h-32l-97 93l-97 -93h-32l107 149h44z" />
    <glyph glyph-name="wcircumflex.sc" horiz-adv-x="759" 
d="M720 505l-151 -508h-44l-146 433l-146 -433h-44l-150 504l46 10l129 -446l146 442h40l145 -442l128 440h47zM508 577h-32l-97 93l-97 -93h-32l107 149h44z" />
    <glyph glyph-name="Wcircumflex.alt" horiz-adv-x="1011" 
d="M965 690l-260 -692h-43l-158 424l-157 -424h-43l-257 688l50 11l231 -633l152 421l-74 201l50 11l230 -633l228 626h51zM627 752h-32l-97 93l-97 -93h-32l107 149h44z" />
    <glyph glyph-name="wcircumflex.sc_alt" horiz-adv-x="745" 
d="M714 505l-187 -509h-41l-113 300l-114 -300h-41l-186 505l47 10l162 -454l110 299l-54 145l48 10l163 -454l157 448h49zM501 582h-32l-97 93l-97 -93h-32l107 149h44z" />
    <glyph glyph-name="Wdieresis" unicode="&#x1e84;" horiz-adv-x="1033" 
d="M979 690l-209 -692h-44l-211 626l-208 -626h-43l-209 688l48 11l186 -626l202 619h51l206 -619l183 619h48zM635 766h-70v79h70v-79zM468 766h-69v79h69v-79z" />
    <glyph glyph-name="wdieresis" unicode="&#x1e85;" horiz-adv-x="732" 
d="M697 470l-160 -475h-43l-128 410l-128 -410h-43l-160 473l46 10l136 -426l129 421h43l129 -421l131 418h48zM485 566h-70v79h70v-79zM318 566h-69v79h69v-79z" />
    <glyph glyph-name="wdieresis.sc" horiz-adv-x="759" 
d="M720 505l-151 -508h-44l-146 433l-146 -433h-44l-150 504l46 10l129 -446l146 442h40l145 -442l128 440h47zM498 596h-70v79h70v-79zM331 596h-69v79h69v-79z" />
    <glyph glyph-name="Wdieresis.alt" horiz-adv-x="1011" 
d="M965 690l-260 -692h-43l-158 424l-157 -424h-43l-257 688l50 11l231 -633l152 421l-74 201l50 11l230 -633l228 626h51zM617 766h-70v79h70v-79zM450 766h-69v79h69v-79z" />
    <glyph glyph-name="wdieresis.sc_alt" horiz-adv-x="745" 
d="M714 505l-187 -509h-41l-113 300l-114 -300h-41l-186 505l47 10l162 -454l110 299l-54 145l48 10l163 -454l157 448h49zM491 596h-70v79h70v-79zM324 596h-69v79h69v-79z" />
    <glyph glyph-name="Wgrave" unicode="&#x1e80;" horiz-adv-x="1033" 
d="M979 690l-209 -692h-44l-211 626l-208 -626h-43l-209 688l48 11l186 -626l202 619h51l206 -619l183 619h48zM539 752h-33l-138 140l67 15z" />
    <glyph glyph-name="wgrave" unicode="&#x1e81;" horiz-adv-x="732" 
d="M697 470l-160 -475h-43l-128 410l-128 -410h-43l-160 473l46 10l136 -426l129 421h43l129 -421l131 418h48zM389 552h-33l-138 140l67 15z" />
    <glyph glyph-name="wgrave.sc" horiz-adv-x="759" 
d="M720 505l-151 -508h-44l-146 433l-146 -433h-44l-150 504l46 10l129 -446l146 442h40l145 -442l128 440h47zM402 582h-33l-138 140l67 15z" />
    <glyph glyph-name="Wgrave.alt" horiz-adv-x="1011" 
d="M965 690l-260 -692h-43l-158 424l-157 -424h-43l-257 688l50 11l231 -633l152 421l-74 201l50 11l230 -633l228 626h51zM521 752h-33l-138 140l67 15z" />
    <glyph glyph-name="wgrave.sc_alt" horiz-adv-x="745" 
d="M714 505l-187 -509h-41l-113 300l-114 -300h-41l-186 505l47 10l162 -454l110 299l-54 145l48 10l163 -454l157 448h49zM395 582h-33l-138 140l67 15z" />
    <glyph glyph-name="Yacute" unicode="&#xdd;" horiz-adv-x="621" 
d="M580 690l-246 -394v-296h-48v295l-245 392l51 10l219 -360l214 353h55zM461 892l-138 -140h-34l106 155z" />
    <glyph glyph-name="yacute" unicode="&#xfd;" horiz-adv-x="477" 
d="M442 470l-206 -542c-29 -78 -63 -106 -126 -106c-8 0 -16 1 -22 2l-7 41c7 0 16 -1 30 -1c41 0 63 17 83 69l25 64l-183 468l46 10l160 -422l151 417h49zM392 687l-138 -140h-34l106 155z" />
    <glyph glyph-name="yacute.sc" horiz-adv-x="466" 
d="M436 505l-180 -294v-211h-47v211l-179 290l48 10l155 -259l151 253h52zM384 717l-138 -140h-34l106 155z" />
    <glyph glyph-name="Ycircumflex" unicode="&#x176;" horiz-adv-x="621" 
d="M580 690l-246 -394v-296h-48v295l-245 392l51 10l219 -360l214 353h55zM439 752h-32l-97 93l-97 -93h-32l107 149h44z" />
    <glyph glyph-name="ycircumflex" unicode="&#x177;" horiz-adv-x="477" 
d="M442 470l-206 -542c-29 -78 -63 -106 -126 -106c-8 0 -16 1 -22 2l-7 41c7 0 16 -1 30 -1c41 0 63 17 83 69l25 64l-183 468l46 10l160 -422l151 417h49zM370 547h-32l-97 93l-97 -93h-32l107 149h44z" />
    <glyph glyph-name="ycircumflex.sc" horiz-adv-x="466" 
d="M436 505l-180 -294v-211h-47v211l-179 290l48 10l155 -259l151 253h52zM362 577h-32l-97 93l-97 -93h-32l107 149h44z" />
    <glyph glyph-name="Ydieresis" unicode="&#x178;" horiz-adv-x="621" 
d="M580 690l-246 -394v-296h-48v295l-245 392l51 10l219 -360l214 353h55zM429 766h-70v79h70v-79zM262 766h-69v79h69v-79z" />
    <glyph glyph-name="ydieresis" unicode="&#xff;" horiz-adv-x="477" 
d="M442 470l-206 -542c-29 -78 -63 -106 -126 -106c-8 0 -16 1 -22 2l-7 41c7 0 16 -1 30 -1c41 0 63 17 83 69l25 64l-183 468l46 10l160 -422l151 417h49zM360 561h-70v79h70v-79zM193 561h-69v79h69v-79z" />
    <glyph glyph-name="ydieresis.sc" horiz-adv-x="466" 
d="M436 505l-180 -294v-211h-47v211l-179 290l48 10l155 -259l151 253h52zM352 591h-70v79h70v-79zM185 591h-69v79h69v-79z" />
    <glyph glyph-name="Ygrave" unicode="&#x1ef2;" horiz-adv-x="621" 
d="M580 690l-246 -394v-296h-48v295l-245 392l51 10l219 -360l214 353h55zM333 752h-33l-138 140l67 15z" />
    <glyph glyph-name="ygrave" unicode="&#x1ef3;" horiz-adv-x="477" 
d="M442 470l-206 -542c-29 -78 -63 -106 -126 -106c-8 0 -16 1 -22 2l-7 41c7 0 16 -1 30 -1c41 0 63 17 83 69l25 64l-183 468l46 10l160 -422l151 417h49zM264 547h-33l-138 140l67 15z" />
    <glyph glyph-name="ygrave.sc" horiz-adv-x="466" 
d="M436 505l-180 -294v-211h-47v211l-179 290l48 10l155 -259l151 253h52zM256 577h-33l-138 140l67 15z" />
    <glyph glyph-name="Zacute" unicode="&#x179;" horiz-adv-x="600" 
d="M544 0h-484v33l420 615h-392l-6 42h457v-33l-420 -615h419zM455 892l-138 -140h-34l106 155z" />
    <glyph glyph-name="zacute" unicode="&#x17a;" horiz-adv-x="447" 
d="M399 0h-353v36l294 395h-270l-6 39h331v-35l-294 -396h292zM374 692l-138 -140h-34l106 155z" />
    <glyph glyph-name="zacute.sc" horiz-adv-x="452" 
d="M412 0h-366v33l307 432h-281l-6 40h343v-33l-307 -432h305zM379 722l-138 -140h-34l106 155z" />
    <glyph glyph-name="Zcaron" unicode="&#x17d;" horiz-adv-x="600" 
d="M544 0h-484v33l420 615h-392l-6 42h457v-33l-420 -615h419zM177 901h32l97 -93l97 93h32l-107 -149h-44z" />
    <glyph glyph-name="zcaron" unicode="&#x17e;" horiz-adv-x="447" 
d="M399 0h-353v36l294 395h-270l-6 39h331v-35l-294 -396h292zM96 701h32l97 -93l97 93h32l-107 -149h-44z" />
    <glyph glyph-name="zcaron.sc" horiz-adv-x="452" 
d="M412 0h-366v33l307 432h-281l-6 40h343v-33l-307 -432h305zM101 731h32l97 -93l97 93h32l-107 -149h-44z" />
    <glyph glyph-name="Zdotaccent" unicode="&#x17b;" horiz-adv-x="600" 
d="M544 0h-484v33l420 615h-392l-6 42h457v-33l-420 -615h419zM341 761h-71v81h71v-81z" />
    <glyph glyph-name="zdotaccent" unicode="&#x17c;" horiz-adv-x="447" 
d="M399 0h-353v36l294 395h-270l-6 39h331v-35l-294 -396h292zM260 561h-71v81h71v-81z" />
    <glyph glyph-name="zdotaccent.sc" horiz-adv-x="452" 
d="M412 0h-366v33l307 432h-281l-6 40h343v-33l-307 -432h305zM265 591h-71v81h71v-81z" />
    <glyph glyph-name="AE" unicode="&#xc6;" horiz-adv-x="863" 
d="M17 0l409 690h378v-43h-300v-264h240l7 -43h-247v-297h310v-43h-357v236h-250l-138 -236h-52zM232 278h225v381z" />
    <glyph glyph-name="ae" unicode="&#xe6;" horiz-adv-x="790" 
d="M736 245v-10h-332c0 -120 62 -204 160 -204c57 0 117 30 164 72l7 -44c-44 -39 -105 -69 -173 -69c-70 0 -129 34 -166 92c-58 -54 -121 -92 -200 -92c-83 0 -144 47 -144 126c0 104 80 160 306 181v43c0 65 -39 96 -104 96c-54 0 -109 -15 -161 -42l-6 44
c52 25 107 41 169 41c82 0 127 -35 139 -99c34 64 91 100 162 100c119 0 179 -105 179 -235zM686 274c-3 92 -48 167 -129 167c-89 0 -141 -69 -152 -167h281zM379 117c-13 34 -21 74 -21 118v24c-194 -21 -258 -63 -258 -139c0 -54 39 -89 99 -89c62 0 125 35 180 86z" />
    <glyph glyph-name="ae.sc" horiz-adv-x="685" 
d="M307 505h319v-42h-245v-178h200l9 -42h-209v-201h253v-42h-300v165h-179l-96 -165h-50zM180 207h154v262z" />
    <glyph glyph-name="AEacute" unicode="&#x1fc;" horiz-adv-x="863" 
d="M17 0l409 690h378v-43h-300v-264h240l7 -43h-247v-297h310v-43h-357v236h-250l-138 -236h-52zM232 278h225v381zM675 892l-138 -140h-34l106 155z" />
    <glyph glyph-name="aeacute" unicode="&#x1fd;" horiz-adv-x="790" 
d="M736 245v-10h-332c0 -120 62 -204 160 -204c57 0 117 30 164 72l7 -44c-44 -39 -105 -69 -173 -69c-70 0 -129 34 -166 92c-58 -54 -121 -92 -200 -92c-83 0 -144 47 -144 126c0 104 80 160 306 181v43c0 65 -39 96 -104 96c-54 0 -109 -15 -161 -42l-6 44
c52 25 107 41 169 41c82 0 127 -35 139 -99c34 64 91 100 162 100c119 0 179 -105 179 -235zM686 274c-3 92 -48 167 -129 167c-89 0 -141 -69 -152 -167h281zM379 117c-13 34 -21 74 -21 118v24c-194 -21 -258 -63 -258 -139c0 -54 39 -89 99 -89c62 0 125 35 180 86z
M544 692l-138 -140h-34l106 155z" />
    <glyph glyph-name="aeacute.sc" horiz-adv-x="685" 
d="M307 505h319v-42h-245v-178h200l9 -42h-209v-201h253v-42h-300v165h-179l-96 -165h-50zM180 207h154v262zM546 722l-138 -140h-34l106 155z" />
    <glyph glyph-name="OE" unicode="&#x152;" horiz-adv-x="877" 
d="M828 0h-412c-220 0 -356 137 -356 344c0 217 149 346 359 346h399v-43h-298v-264h238l7 -43h-245v-297h308v-43zM472 43v604h-58c-182 0 -304 -103 -304 -302c0 -196 124 -302 307 -302h55z" />
    <glyph glyph-name="oe" unicode="&#x153;" horiz-adv-x="851" 
d="M797 245v-10h-332c0 -120 62 -204 160 -204c58 0 117 29 164 72l7 -44c-44 -40 -105 -69 -173 -69c-81 0 -152 48 -182 132c-31 -85 -101 -132 -184 -132c-115 0 -205 90 -205 245c0 156 93 245 205 245c85 0 154 -46 185 -132c30 83 95 132 177 132
c118 0 178 -105 178 -235zM748 274c-4 92 -49 167 -129 167c-89 0 -141 -69 -152 -167h281zM419 235c0 117 -61 204 -162 204c-100 0 -156 -83 -156 -204c0 -118 57 -204 156 -204c102 0 162 82 162 204z" />
    <glyph glyph-name="oe.sc" horiz-adv-x="711" 
d="M660 0h-342c-167 0 -263 102 -263 252c0 155 103 253 264 253h333v-42h-245v-178h200l9 -42h-209v-201h253v-42zM360 463h-44c-129 0 -214 -70 -214 -210c0 -137 88 -211 214 -211h44v421z" />
    <glyph glyph-name="Eth" unicode="&#xd0;" horiz-adv-x="711" 
d="M646 346c0 -217 -148 -346 -358 -346h-176v341h-83l-7 41h90v308h178c221 0 356 -137 356 -344zM596 345c0 196 -124 302 -307 302h-129v-265h167v-41h-167v-298h132c182 0 304 103 304 302z" />
    <glyph glyph-name="eth" unicode="&#xf0;" horiz-adv-x="523" 
d="M229 523h-45l74 112c-30 17 -64 30 -102 40l7 40c44 -12 83 -27 117 -46l35 54l39 -10l-43 -65c101 -72 148 -187 148 -344c0 -124 -29 -206 -83 -260c-36 -36 -80 -54 -129 -54c-107 0 -195 82 -195 223c0 128 89 232 197 232c68 0 118 -27 159 -63
c-12 107 -51 183 -119 233zM413 301v23c-45 51 -100 80 -163 80c-87 0 -149 -87 -149 -188c0 -115 59 -185 150 -185c94 0 162 93 162 270z" />
    <glyph glyph-name="eth.sc" horiz-adv-x="546" 
d="M30 231l-7 42h71v232h134c168 0 263 -101 263 -252c0 -155 -103 -253 -264 -253h-133v231h-64zM444 253c0 136 -87 210 -214 210h-89v-190h136v-42h-136v-189h89c130 0 214 71 214 211z" />
    <glyph glyph-name="Thorn" unicode="&#xde;" horiz-adv-x="538" 
d="M485 358c0 -131 -102 -200 -236 -200h-101v-158h-48v690h48v-142h117c133 0 220 -69 220 -190zM435 356c0 98 -61 149 -174 149h-113v-304h103c114 0 184 52 184 155z" />
    <glyph glyph-name="thorn" unicode="&#xfe;" horiz-adv-x="526" 
d="M472 248c0 -171 -102 -254 -216 -254c-47 0 -89 9 -126 24v-189l-47 -10v886l47 10v-312c38 44 83 77 149 77c104 0 193 -74 193 -232zM423 246c0 124 -61 191 -145 191c-59 0 -101 -33 -148 -87v-286c37 -18 78 -29 125 -29c94 0 168 67 168 211z" />
    <glyph glyph-name="thorn.sc" horiz-adv-x="449" 
d="M405 258c0 -100 -77 -158 -191 -158h-80v-100h-47v505h47v-94h82c114 0 189 -52 189 -153zM358 257c0 75 -54 112 -142 112h-82v-227h82c88 0 142 39 142 115z" />
    <glyph glyph-name="uni018F" unicode="&#x18f;" horiz-adv-x="680" 
d="M322 660c-82 0 -155 -29 -216 -73l-7 46c65 43 133 70 225 70c158 0 291 -132 291 -351s-126 -365 -290 -365c-166 0 -260 149 -260 344v37h499c-6 184 -112 292 -242 292zM328 30c130 0 228 118 236 295h-450c0 -170 75 -295 214 -295z" />
    <glyph glyph-name="schwa" unicode="&#x259;" horiz-adv-x="484" 
d="M53 411c43 39 105 69 172 69c124 0 207 -92 207 -245c0 -150 -83 -245 -197 -245c-120 0 -183 105 -183 235v10h332c0 120 -56 204 -161 204c-57 0 -117 -30 -163 -72zM235 29c81 0 137 62 147 167h-281c3 -92 52 -167 134 -167z" />
    <glyph glyph-name="germandbls" unicode="&#xdf;" horiz-adv-x="596" 
d="M554 146c0 -99 -69 -155 -166 -155c-48 0 -98 11 -143 35l8 44c47 -25 94 -38 140 -38c65 0 114 38 114 109c0 77 -61 136 -235 172l-6 34c67 76 101 133 101 205c0 70 -36 119 -102 119s-109 -54 -109 -134v-537h-46v430h-73v40h73v66c0 102 60 176 157 176
c93 0 148 -65 148 -157c0 -81 -37 -135 -101 -211c154 -37 240 -96 240 -198z" />
    <glyph glyph-name="uni0386" unicode="&#x386;" horiz-adv-x="694" 
d="M47 0l274 694h52l274 -690l-48 -11l-95 243h-315l-92 -236h-50zM346 640l-141 -361h282zM163 690l-53 -168h-28l18 168h63z" />
    <glyph glyph-name="uni0388" unicode="&#x388;" horiz-adv-x="505" 
d="M459 0h-359v690h349v-44h-301v-263h241l7 -44h-248v-295h311v-44zM44 690l-53 -168h-28l18 168h63z" />
    <glyph glyph-name="uni0389" unicode="&#x389;" horiz-adv-x="707" 
d="M607 0h-48v340h-411v-340h-48v690h48v-307h411v307h48v-690zM44 690l-53 -168h-28l18 168h63z" />
    <glyph glyph-name="uni038A" unicode="&#x38a;" horiz-adv-x="264" 
d="M156 0h-48v690h48v-690zM52 690l-53 -168h-28l18 168h63z" />
    <glyph glyph-name="uni038C" unicode="&#x38c;" horiz-adv-x="744" 
d="M679 346c0 -210 -131 -359 -308 -359s-306 148 -306 357c0 210 131 359 308 359s306 -148 306 -357zM629 344c0 186 -105 316 -258 316c-152 0 -256 -130 -256 -314c0 -186 105 -316 258 -316c152 0 256 130 256 314zM73 690l-53 -168h-28l18 168h63z" />
    <glyph glyph-name="uni038E" unicode="&#x38e;" horiz-adv-x="621" 
d="M580 690l-246 -394v-296h-48v295l-245 392l51 10l219 -360l214 353h55zM13 690l-53 -168h-28l18 168h63z" />
    <glyph glyph-name="uni038F" unicode="&#x38f;" horiz-adv-x="754" 
d="M76 42h165l18 -1l-26 24c-99 89 -165 186 -165 325c0 172 124 313 309 313c191 0 309 -141 309 -313c0 -142 -70 -235 -166 -324l-27 -25l20 1h165v-42h-240l-6 40l52 49c93 87 150 169 150 306c0 144 -102 265 -257 265s-257 -121 -257 -265c0 -131 53 -214 150 -306
l52 -49l-6 -40h-240v42zM58 690l-53 -168h-28l18 168h63z" />
    <glyph glyph-name="uni0386.calt" horiz-adv-x="694" 
d="M47 0l274 694h52l274 -690l-48 -11l-95 243h-315l-92 -236h-50zM346 640l-141 -361h282z" />
    <glyph glyph-name="uni0388.calt" horiz-adv-x="508" 
d="M459 0h-359v690h349v-44h-301v-263h241l7 -44h-248v-295h311v-44z" />
    <glyph glyph-name="uni0389.calt" horiz-adv-x="707" 
d="M607 0h-48v340h-411v-340h-48v690h48v-307h411v307h48v-690z" />
    <glyph glyph-name="uni038A.calt" horiz-adv-x="264" 
d="M156 0h-48v690h48v-690z" />
    <glyph glyph-name="uni038C.calt" horiz-adv-x="744" 
d="M679 346c0 -210 -131 -359 -308 -359s-306 148 -306 357c0 210 131 359 308 359s306 -148 306 -357zM629 344c0 186 -105 316 -258 316c-152 0 -256 -130 -256 -314c0 -186 105 -316 258 -316c152 0 256 130 256 314z" />
    <glyph glyph-name="uni038E.calt" horiz-adv-x="621" 
d="M580 690l-246 -394v-296h-48v295l-245 392l51 10l219 -360l214 353h55z" />
    <glyph glyph-name="uni038F.calt" horiz-adv-x="754" 
d="M76 42h165l18 -1l-26 24c-99 89 -165 186 -165 325c0 172 124 313 309 313c191 0 309 -141 309 -313c0 -142 -70 -235 -166 -324l-27 -25l20 1h165v-42h-240l-6 40l52 49c93 87 150 169 150 306c0 144 -102 265 -257 265s-257 -121 -257 -265c0 -131 53 -214 150 -306
l52 -49l-6 -40h-240v42z" />
    <glyph glyph-name="uni0399.calt" horiz-adv-x="264" 
d="M156 0h-48v690h48v-690zM250 766h-70v79h70v-79zM83 766h-69v79h69v-79z" />
    <glyph glyph-name="uni03A5.calt" horiz-adv-x="621" 
d="M580 690l-246 -394v-296h-48v295l-245 392l51 10l219 -360l214 353h55zM429 766h-70v79h70v-79zM262 766h-69v79h69v-79z" />
    <glyph glyph-name="uni03AA" unicode="&#x3aa;" horiz-adv-x="264" 
d="M156 0h-48v690h48v-690zM250 766h-70v79h70v-79zM83 766h-69v79h69v-79z" />
    <glyph glyph-name="uni03AB" unicode="&#x3ab;" horiz-adv-x="621" 
d="M580 690l-246 -394v-296h-48v295l-245 392l51 10l219 -360l214 353h55zM429 766h-70v79h70v-79zM262 766h-69v79h69v-79z" />
    <glyph glyph-name="uni03AC" unicode="&#x3ac;" horiz-adv-x="613" 
d="M232 480c94 0 136 -51 192 -203l90 193h50l-118 -244l48 -140c14 -40 25 -53 58 -53c13 0 27 3 39 7l-5 -41c-12 -4 -28 -7 -45 -7c-52 0 -70 20 -91 84l-32 99c-64 -125 -104 -185 -191 -185c-97 0 -175 93 -175 245c0 146 81 245 180 245zM229 31c57 0 95 45 169 196
c-54 157 -94 212 -168 212c-73 0 -130 -91 -130 -202c0 -119 55 -206 129 -206zM364 703l-63 -151h-28l31 151h60z" />
    <glyph glyph-name="uni03AD" unicode="&#x3ad;" horiz-adv-x="457" 
d="M65 352c0 72 67 128 175 128c63 0 117 -18 166 -45l-9 -42c-45 27 -96 47 -158 47c-81 0 -126 -38 -126 -88c0 -60 49 -91 147 -91h70l7 -42h-76c-98 0 -157 -37 -157 -99c0 -54 44 -90 130 -90c63 0 121 20 174 49l9 -40c-50 -27 -115 -49 -184 -49
c-117 0 -177 50 -177 126c0 59 41 103 108 122c-64 17 -99 58 -99 114zM315 703l-63 -151h-28l31 151h60z" />
    <glyph glyph-name="uni03AE" unicode="&#x3ae;" horiz-adv-x="520" 
d="M83 470h34l12 -71c57 50 109 81 171 81c97 0 143 -55 143 -149v-502l-47 -10v508c0 71 -34 110 -101 110c-52 0 -106 -30 -165 -85v-352h-47v470zM329 703l-63 -151h-28l31 151h60z" />
    <glyph glyph-name="uni03AF" unicode="&#x3af;" horiz-adv-x="248" 
d="M85 470h47v-384c0 -37 15 -53 48 -53c13 0 27 3 39 7l-5 -41c-12 -4 -28 -7 -45 -7c-52 0 -84 25 -84 92v386zM180 703l-63 -151h-28l31 151h60z" />
    <glyph glyph-name="uni03CC" unicode="&#x3cc;" horiz-adv-x="519" 
d="M467 235c0 -155 -93 -245 -208 -245c-117 0 -207 90 -207 245c0 156 93 245 207 245c118 0 208 -89 208 -245zM418 235c0 130 -69 204 -159 204s-158 -71 -158 -204c0 -130 69 -204 158 -204c90 0 159 70 159 204zM329 703l-63 -151h-28l31 151h60z" />
    <glyph glyph-name="uni03CD" unicode="&#x3cd;" horiz-adv-x="508" 
d="M433 186c0 -119 -65 -196 -180 -196c-114 0 -178 78 -178 192v288h47v-281c0 -95 45 -157 131 -157s133 57 133 153v285h47v-284zM323 698l-63 -151h-28l31 151h60z" />
    <glyph glyph-name="uni03CE" unicode="&#x3ce;" horiz-adv-x="765" 
d="M359 380h47v-93c0 -169 54 -256 142 -256c66 0 112 69 112 182c0 86 -31 168 -96 250l46 11c67 -82 99 -163 99 -263c0 -135 -66 -221 -161 -221c-83 0 -144 56 -167 159c-22 -103 -82 -159 -164 -159c-95 0 -161 86 -161 221c0 100 32 181 99 263l46 -11
c-65 -82 -96 -164 -96 -250c0 -113 48 -182 114 -182c88 0 140 87 140 256v93zM453 698l-63 -151h-28l31 151h60z" />
    <glyph glyph-name="uni03CA" unicode="&#x3ca;" horiz-adv-x="248" 
d="M85 470h47v-384c0 -37 15 -53 48 -53c13 0 27 3 39 7l-5 -41c-12 -4 -28 -7 -45 -7c-52 0 -84 25 -84 92v386zM229 566h-70v79h70v-79zM62 566h-69v79h69v-79z" />
    <glyph glyph-name="uni03CB" unicode="&#x3cb;" horiz-adv-x="508" 
d="M433 186c0 -119 -65 -196 -180 -196c-114 0 -178 78 -178 192v288h47v-281c0 -95 45 -157 131 -157s133 57 133 153v285h47v-284zM372 561h-70v79h70v-79zM205 561h-69v79h69v-79z" />
    <glyph glyph-name="uni0390" unicode="&#x390;" horiz-adv-x="248" 
d="M85 470h47v-384c0 -37 15 -53 48 -53c13 0 27 3 39 7l-5 -41c-12 -4 -28 -7 -45 -7c-52 0 -84 25 -84 92v386zM249 566h-68v79h68v-79zM40 566h-67v79h67v-79zM168 703l-63 -151h-28l31 151h60z" />
    <glyph glyph-name="uni03B0" unicode="&#x3b0;" horiz-adv-x="508" 
d="M433 186c0 -119 -65 -196 -180 -196c-114 0 -178 78 -178 192v288h47v-281c0 -95 45 -157 131 -157s133 57 133 153v285h47v-284zM392 561h-68v79h68v-79zM183 561h-67v79h67v-79zM311 698l-63 -151h-28l31 151h60z" />
    <glyph glyph-name="uni0462" unicode="&#x462;" horiz-adv-x="672" 
d="M624 188c0 -116 -83 -188 -223 -188h-166v539h-210l6 43h204v117h48v-117h228v-43h-228v-169h131c131 0 210 -64 210 -182zM575 186c0 92 -57 141 -164 141h-128v-284h120c111 0 172 53 172 143z" />
    <glyph glyph-name="uni0472" unicode="&#x472;" horiz-adv-x="744" 
d="M679 346c0 -210 -131 -359 -308 -359s-306 148 -306 357c0 210 131 359 308 359s306 -148 306 -357zM371 660c-147 0 -250 -121 -258 -294h517c-8 174 -112 294 -259 294zM373 30c146 0 250 121 257 294h-517c8 -174 113 -294 260 -294z" />
    <glyph glyph-name="uni0474" unicode="&#x474;" horiz-adv-x="705" 
d="M693 699l7 -44c-71 -16 -99 -52 -149 -180l-189 -479h-44l-271 690l47 11l247 -643l168 438c54 142 93 191 184 207z" />
    <glyph glyph-name="uni0490" unicode="&#x490;" horiz-adv-x="465" 
d="M100 690h294v145l46 -7v-182h-292v-646h-48v690z" />
    <glyph glyph-name="uni0404" unicode="&#x404;" horiz-adv-x="645" 
d="M585 58c-52 -40 -126 -71 -211 -71c-181 0 -309 144 -309 357c0 210 130 359 317 359c74 0 140 -24 192 -60l-9 -49c-57 41 -117 67 -184 67c-157 0 -259 -121 -267 -293l371 1l7 -45l-378 1c8 -174 111 -296 264 -296c75 0 144 31 200 75z" />
    <glyph glyph-name="uni0406" unicode="&#x406;" horiz-adv-x="264" 
d="M156 0h-48v690h48v-690z" />
    <glyph glyph-name="uni0407" unicode="&#x407;" horiz-adv-x="264" 
d="M156 0h-48v690h48v-690zM250 766h-70v79h70v-79zM83 766h-69v79h69v-79z" />
    <glyph glyph-name="uni0402" unicode="&#x402;" horiz-adv-x="745" 
d="M527 646h-227v-238c39 12 89 20 151 20c152 0 244 -80 244 -217c0 -126 -93 -218 -233 -218c-18 0 -31 1 -42 3l6 42c10 -1 20 -2 37 -2c113 0 183 79 183 174c0 112 -70 175 -197 175c-57 0 -109 -8 -149 -21v-364h-48v646h-219v44h488z" />
    <glyph glyph-name="uni0408" unicode="&#x408;" horiz-adv-x="359" 
d="M262 166c0 -116 -68 -172 -164 -172c-22 0 -44 3 -60 7l-7 46c20 -6 45 -10 68 -10c72 0 115 42 115 124v529h48v-524z" />
    <glyph glyph-name="uni0409" unicode="&#x409;" horiz-adv-x="964" 
d="M917 198c0 -122 -88 -198 -236 -198h-144v647h-255l-26 -240c-31 -287 -78 -382 -227 -419l-7 46c124 33 158 125 187 383l31 273h345v-300h110c138 0 222 -67 222 -192zM867 196c0 99 -61 151 -175 151h-107v-304h98c119 0 184 57 184 153z" />
    <glyph glyph-name="uni0409.alt" horiz-adv-x="917" 
d="M47 0l274 694h44l119 -304h164c138 0 222 -67 222 -192c0 -122 -88 -198 -236 -198h-47l-245 636l-245 -636h-50zM645 347h-144l119 -304h16c119 0 184 57 184 153c0 99 -61 151 -175 151z" />
    <glyph glyph-name="uni040A" unicode="&#x40a;" horiz-adv-x="966" 
d="M919 198c0 -122 -88 -198 -236 -198h-144v344h-391v-344h-48v690h48v-303h391v303h48v-300h110c138 0 222 -67 222 -192zM869 196c0 99 -61 151 -175 151h-107v-304h98c119 0 184 57 184 153z" />
    <glyph glyph-name="uni040B" unicode="&#x40b;" horiz-adv-x="756" 
d="M527 646h-227v-240c52 12 99 20 160 20c138 0 217 -68 217 -197v-229h-48v227c0 104 -61 156 -171 156c-56 0 -104 -6 -158 -20v-363h-48v646h-219v44h488z" />
    <glyph glyph-name="uni040F" unicode="&#x40f;" horiz-adv-x="703" 
d="M375 -155l-48 -7v162h-227v690h48v-647h407v647h48v-690h-228v-155z" />
    <glyph glyph-name="uni040E" unicode="&#x40e;" horiz-adv-x="631" 
d="M601 690l-304 -588c-42 -81 -85 -115 -149 -115c-20 0 -35 4 -47 9l-7 48c21 -8 32 -12 57 -12c44 0 74 31 105 89l53 98l-254 467l51 11l228 -430l212 423h55zM450 866c-7 -53 -44 -109 -124 -109s-117 56 -124 109l35 5c12 -42 45 -67 89 -67s76 25 89 67z" />
    <glyph glyph-name="uni0403" unicode="&#x403;" horiz-adv-x="465" 
d="M100 690h328l7 -44h-287v-646h-48v690zM420 892l-138 -140h-34l106 155z" />
    <glyph glyph-name="uni0405" unicode="&#x405;" horiz-adv-x="512" 
d="M454 178c0 -117 -97 -186 -211 -186c-74 0 -134 19 -176 41l7 49c39 -24 101 -47 172 -47c88 0 158 54 158 140c0 72 -40 113 -145 158c-134 57 -181 103 -181 197c0 98 83 168 188 168c64 0 115 -14 149 -34l-7 -48c-40 23 -85 39 -144 39c-83 0 -137 -55 -137 -123
c0 -70 39 -104 147 -150c123 -52 180 -105 180 -204z" />
    <glyph glyph-name="uni040C" unicode="&#x40c;" horiz-adv-x="603" 
d="M580 5l-56 -12l-376 368v-361h-48v690h48v-318l347 318h65l-356 -321zM449 892l-138 -140h-34l106 155z" />
    <glyph glyph-name="uni0400" unicode="&#x400;" horiz-adv-x="508" 
d="M459 0h-359v690h349v-44h-301v-263h241l7 -44h-248v-295h311v-44zM297 752h-33l-138 140l67 15z" />
    <glyph glyph-name="uni040D" unicode="&#x40d;" horiz-adv-x="707" 
d="M139 0h-39v690h47v-602l410 602h50v-690h-47v619zM375 752h-33l-138 140l67 15z" />
    <glyph glyph-name="uni0492" unicode="&#x492;" horiz-adv-x="477" 
d="M112 690h328l7 -44h-287v-260h161v-39h-161v-347h-48v347h-87l-5 39h92v304z" />
    <glyph glyph-name="uni0496" unicode="&#x496;" horiz-adv-x="889" 
d="M100 697l318 -323l-2 316h48l-2 -316l311 316h61l-321 -322l305 -325h57v-198l-46 -7v162h-33l-334 361l2 -361h-48l2 361l-330 -361h-61l340 368l-319 317z" />
    <glyph glyph-name="uni0498" unicode="&#x498;" horiz-adv-x="538" 
d="M468 185c0 -100 -78 -183 -198 -194v-146l-46 -7v151c-69 3 -126 24 -172 51l8 48c54 -33 116 -56 182 -56c111 0 177 70 177 153c0 98 -77 154 -212 154h-54l-5 44h67c119 0 191 63 191 144c0 80 -56 131 -150 131c-67 0 -127 -19 -188 -53l-6 46c56 30 117 50 196 50
c126 0 199 -72 199 -171c0 -82 -58 -143 -142 -168c98 -25 153 -81 153 -177z" />
    <glyph glyph-name="uni049A" unicode="&#x49a;" horiz-adv-x="611" 
d="M550 -162v162h-33l-369 361v-361h-48v690h48v-318l347 318h65l-356 -321l336 -326h56v-198z" />
    <glyph glyph-name="uni049C" unicode="&#x49c;" horiz-adv-x="621" 
d="M290 570v-182l227 302h60l-253 -326l263 -359l-51 -12l-246 342v-180h-38v187h-104v-342h-48v690h48v-307h104v187h38z" />
    <glyph glyph-name="uni04A0" unicode="&#x4a0;" horiz-adv-x="738" 
d="M715 5l-56 -12l-376 368v-361h-48v647h-210l6 43h252v-318l347 318h65l-356 -321z" />
    <glyph glyph-name="uni04A2" unicode="&#x4a2;" horiz-adv-x="717" 
d="M615 -162v162h-56v340h-411v-340h-48v690h48v-307h411v307h48v-647h54v-198z" />
    <glyph glyph-name="uni04A4" unicode="&#x4a4;" horiz-adv-x="914" 
d="M607 0h-48v340h-411v-340h-48v690h48v-307h411v307h318l7 -43h-277v-647z" />
    <glyph glyph-name="uni04AA" unicode="&#x4aa;" horiz-adv-x="643" 
d="M585 58c-50 -39 -121 -69 -202 -71v-142l-46 -7v151c-162 18 -272 157 -272 355c0 210 130 359 317 359c74 0 140 -24 192 -60l-9 -49c-57 41 -117 66 -184 66c-163 0 -266 -130 -266 -314c0 -185 104 -316 263 -316c75 0 144 30 200 74z" />
    <glyph glyph-name="uni04AE" unicode="&#x4ae;" horiz-adv-x="621" 
d="M580 690l-246 -394v-296h-48v295l-245 392l51 10l219 -360l214 353h55z" />
    <glyph glyph-name="uni04B0" unicode="&#x4b0;" horiz-adv-x="621" 
d="M580 690l-246 -394v-64h139l5 -39h-144v-193h-48v193h-148v39h148v63l-245 392l51 10l219 -360l214 353h55z" />
    <glyph glyph-name="uni04B2" unicode="&#x4b2;" horiz-adv-x="643" 
d="M515 690h52l-223 -329l217 -318h54v-198l-46 -7v162h-32l-221 325l-219 -325h-52l244 359l-222 325l47 10l202 -299z" />
    <glyph glyph-name="uni04B6" unicode="&#x4b6;" horiz-adv-x="610" 
d="M75 690h48v-227c0 -104 61 -156 171 -156c56 0 104 6 158 20v363h48v-647h54v-198l-46 -7v162h-56v284c-52 -12 -99 -20 -160 -20c-138 0 -217 68 -217 197v229z" />
    <glyph glyph-name="uni04B8" unicode="&#x4b8;" horiz-adv-x="600" 
d="M305 103h-38v161c-123 8 -192 76 -192 197v229h48v-227c0 -95 51 -147 144 -155v190h38v-191c51 1 96 7 147 20v363h48v-690h-48v284c-48 -11 -92 -19 -147 -20v-161z" />
    <glyph glyph-name="uni04BA" unicode="&#x4ba;" horiz-adv-x="600" 
d="M525 0h-48v227c0 104 -61 156 -171 156c-56 0 -104 -6 -158 -20v-363h-48v690h48v-284c52 12 99 20 160 20c138 0 217 -68 217 -197v-229z" />
    <glyph glyph-name="uni04C0" unicode="&#x4c0;" horiz-adv-x="264" 
d="M156 0h-48v690h48v-690z" />
    <glyph glyph-name="uni04C1" unicode="&#x4c1;" horiz-adv-x="881" 
d="M100 697l318 -323l-2 316h48l-2 -316l311 316h61l-321 -322l341 -363l-52 -12l-340 368l2 -361h-48l2 361l-330 -361h-61l340 368l-319 317zM565 866c-7 -53 -44 -109 -124 -109s-117 56 -124 109l35 5c12 -42 45 -67 89 -67s76 25 89 67z" />
    <glyph glyph-name="uni04D0" unicode="&#x4d0;" horiz-adv-x="694" 
d="M47 0l274 694h52l274 -690l-48 -11l-95 243h-315l-92 -236h-50zM346 640l-141 -361h282zM471 876c-7 -53 -44 -109 -124 -109s-117 56 -124 109l35 5c12 -42 45 -67 89 -67s76 25 89 67z" />
    <glyph glyph-name="uni04D2" unicode="&#x4d2;" horiz-adv-x="694" 
d="M47 0l274 694h52l274 -690l-48 -11l-95 243h-315l-92 -236h-50zM346 640l-141 -361h282zM465 776h-70v79h70v-79zM298 776h-69v79h69v-79z" />
    <glyph glyph-name="uni04D4" unicode="&#x4d4;" horiz-adv-x="860" 
d="M17 0l409 690h378v-43h-300v-264h240l7 -43h-247v-297h310v-43h-357v236h-250l-138 -236h-52zM232 278h225v381z" />
    <glyph glyph-name="uni04D6" unicode="&#x4d6;" horiz-adv-x="508" 
d="M459 0h-359v690h349v-44h-301v-263h241l7 -44h-248v-295h311v-44zM399 866c-7 -53 -44 -109 -124 -109s-117 56 -124 109l35 5c12 -42 45 -67 89 -67s76 25 89 67z" />
    <glyph glyph-name="uni04D8" unicode="&#x4d8;" horiz-adv-x="680" 
d="M322 660c-82 0 -155 -29 -216 -73l-7 46c65 43 133 70 225 70c158 0 291 -132 291 -351s-126 -365 -290 -365c-166 0 -260 149 -260 344v37h499c-6 184 -112 292 -242 292zM328 30c130 0 228 118 236 295h-450c0 -170 75 -295 214 -295z" />
    <glyph glyph-name="uni04DC" unicode="&#x4dc;" horiz-adv-x="881" 
d="M100 697l318 -323l-2 316h48l-2 -316l311 316h61l-321 -322l341 -363l-52 -12l-340 368l2 -361h-48l2 361l-330 -361h-61l340 368l-319 317zM559 766h-70v79h70v-79zM392 766h-69v79h69v-79z" />
    <glyph glyph-name="uni04DE" unicode="&#x4de;" horiz-adv-x="538" 
d="M468 185c0 -108 -90 -196 -227 -196c-76 0 -139 22 -189 51l8 48c54 -33 116 -56 182 -56c111 0 177 70 177 153c0 98 -77 154 -212 154h-54l-5 44h67c119 0 191 63 191 144c0 80 -56 131 -150 131c-67 0 -127 -19 -188 -53l-6 46c56 30 117 50 196 50
c126 0 199 -72 199 -171c0 -82 -58 -143 -142 -168c98 -25 153 -81 153 -177zM378 776h-70v79h70v-79zM211 776h-69v79h69v-79z" />
    <glyph glyph-name="uni04E2" unicode="&#x4e2;" horiz-adv-x="707" 
d="M139 0h-39v690h47v-602l410 602h50v-690h-47v619zM481 783h-255v43h255v-43z" />
    <glyph glyph-name="uni04E4" unicode="&#x4e4;" horiz-adv-x="707" 
d="M139 0h-39v690h47v-602l410 602h50v-690h-47v619zM471 766h-70v79h70v-79zM304 766h-69v79h69v-79z" />
    <glyph glyph-name="uni04E6" unicode="&#x4e6;" horiz-adv-x="744" 
d="M679 346c0 -210 -131 -359 -308 -359s-306 148 -306 357c0 210 131 359 308 359s306 -148 306 -357zM629 344c0 186 -105 316 -258 316c-152 0 -256 -130 -256 -314c0 -186 105 -316 258 -316c152 0 256 130 256 314zM490 776h-70v79h70v-79zM323 776h-69v79h69v-79z" />
    <glyph glyph-name="uni04E8" unicode="&#x4e8;" horiz-adv-x="744" 
d="M679 346c0 -210 -131 -359 -308 -359s-306 148 -306 357c0 210 131 359 308 359s306 -148 306 -357zM371 660c-147 0 -250 -121 -258 -294h517c-8 174 -112 294 -259 294zM373 30c146 0 250 121 257 294h-517c8 -174 113 -294 260 -294z" />
    <glyph glyph-name="uni04EE" unicode="&#x4ee;" horiz-adv-x="631" 
d="M601 690l-304 -588c-42 -81 -85 -115 -149 -115c-20 0 -35 4 -47 9l-7 48c21 -8 32 -12 57 -12c44 0 74 31 105 89l53 98l-254 467l51 11l228 -430l212 423h55zM454 783h-255v43h255v-43z" />
    <glyph glyph-name="uni04F0" unicode="&#x4f0;" horiz-adv-x="631" 
d="M601 690l-304 -588c-42 -81 -85 -115 -149 -115c-20 0 -35 4 -47 9l-7 48c21 -8 32 -12 57 -12c44 0 74 31 105 89l53 98l-254 467l51 11l228 -430l212 423h55zM444 766h-70v79h70v-79zM277 766h-69v79h69v-79z" />
    <glyph glyph-name="uni04F2" unicode="&#x4f2;" horiz-adv-x="631" 
d="M601 690l-304 -588c-42 -81 -85 -115 -149 -115c-20 0 -35 4 -47 9l-7 48c21 -8 32 -12 57 -12c44 0 74 31 105 89l53 98l-254 467l51 11l228 -430l212 423h55zM388 896l-139 -140h-31l106 157zM551 896l-138 -140h-31l105 157z" />
    <glyph glyph-name="uni04F4" unicode="&#x4f4;" horiz-adv-x="600" 
d="M75 690h48v-227c0 -104 61 -156 171 -156c56 0 104 6 158 20v363h48v-690h-48v284c-52 -12 -99 -20 -160 -20c-138 0 -217 68 -217 197v229zM407 766h-70v79h70v-79zM240 766h-69v79h69v-79z" />
    <glyph glyph-name="uni04F8" unicode="&#x4f8;" horiz-adv-x="748" 
d="M480 198c0 -122 -88 -198 -236 -198h-144v690h48v-300h110c138 0 222 -67 222 -192zM430 196c0 99 -61 151 -175 151h-107v-304h98c119 0 184 57 184 153zM643 0h-48v690h48v-690zM489 766h-70v79h70v-79zM322 766h-69v79h69v-79z" />
    <glyph glyph-name="uni0431.srb" horiz-adv-x="534" 
d="M422 715l7 -44l-187 -30c-64 -11 -90 -31 -90 -63c0 -37 39 -63 141 -109c126 -57 189 -134 189 -249c0 -126 -91 -230 -223 -230c-131 0 -207 103 -207 217c0 119 68 195 176 243c-89 42 -124 73 -124 126c0 59 45 95 130 109zM433 218c0 100 -49 161 -158 211
c-113 -43 -174 -117 -174 -220c0 -98 65 -178 160 -178c98 0 172 83 172 187z" />
    <glyph glyph-name="uni0463" unicode="&#x463;" horiz-adv-x="542" 
d="M504 154c0 -96 -72 -154 -183 -154h-148v429h-151l6 41h145v235l47 10v-245h169v-41h-169v-131h108c119 0 176 -57 176 -144zM456 151c0 66 -39 107 -129 107h-107v-218h102c85 0 134 42 134 111z" />
    <glyph glyph-name="uni0473" unicode="&#x473;" horiz-adv-x="519" 
d="M467 235c0 -155 -93 -245 -208 -245c-117 0 -207 90 -207 245c0 156 93 245 207 245c118 0 208 -89 208 -245zM259 30c88 0 156 65 162 186h-324c7 -118 74 -186 162 -186zM259 440c-88 0 -154 -65 -162 -182h324c-8 115 -75 182 -162 182z" />
    <glyph glyph-name="uni0475" unicode="&#x475;" horiz-adv-x="486" 
d="M481 437c-57 -12 -76 -43 -110 -133l-117 -309h-43l-176 470l47 10l152 -423l96 269c37 105 66 147 145 160z" />
    <glyph glyph-name="uni0491" unicode="&#x491;" horiz-adv-x="401" 
d="M130 428v-428h-47v470h241v142l45 -8v-176h-239z" />
    <glyph glyph-name="uni0454" unicode="&#x454;" horiz-adv-x="464" 
d="M343 215h-244c7 -112 73 -184 165 -184c51 0 98 18 147 60l6 -44c-43 -36 -95 -57 -158 -57c-115 0 -207 90 -207 245c0 156 93 245 210 245c59 0 111 -21 152 -52l-9 -48c-47 40 -91 59 -145 59c-86 0 -153 -64 -161 -181h238z" />
    <glyph glyph-name="uni0456" unicode="&#x456;" horiz-adv-x="226" 
d="M153 638c0 -21 -18 -41 -40 -41s-41 20 -41 41c0 22 19 40 41 40s40 -18 40 -40zM136 0h-46v470h46v-470z" />
    <glyph glyph-name="uni0457" unicode="&#x457;" horiz-adv-x="226" 
d="M136 0h-46v470h46v-470zM231 566h-70v79h70v-79zM64 566h-69v79h69v-79z" />
    <glyph glyph-name="uni0452" unicode="&#x452;" horiz-adv-x="503" 
d="M301 544h-164v-174c35 11 80 22 130 22c122 0 180 -72 180 -190c0 -132 -44 -246 -121 -383l-47 8c76 135 120 250 120 374c0 96 -42 148 -134 148c-45 0 -90 -10 -128 -22v-327h-47v544h-93l-7 41h100v120l47 10v-130h164v-41z" />
    <glyph glyph-name="uni0458" unicode="&#x458;" horiz-adv-x="226" 
d="M153 638c0 -21 -18 -41 -40 -41s-41 20 -41 41c0 22 19 40 41 40s40 -18 40 -40zM136 -83c0 -67 -41 -95 -92 -95c-11 0 -27 1 -36 2l-7 43c14 -2 23 -3 36 -3c33 0 53 16 53 58v548h46v-553z" />
    <glyph glyph-name="uni0459" unicode="&#x459;" horiz-adv-x="768" 
d="M730 154c0 -96 -72 -154 -183 -154h-148v430h-183l-16 -139c-28 -239 -69 -280 -176 -298l-7 44c85 16 112 53 137 263l20 170h272v-172h108c119 0 176 -57 176 -144zM682 151c0 66 -39 107 -129 107h-107v-218h102c85 0 134 42 134 111z" />
    <glyph glyph-name="uni0459.alt" horiz-adv-x="671" 
d="M398 0l-157 421l-157 -421h-49l185 478h45l69 -180h123c119 0 176 -57 176 -144c0 -96 -72 -154 -183 -154h-52zM456 258h-106l83 -218h18c85 0 134 42 134 111c0 66 -39 107 -129 107z" />
    <glyph glyph-name="uni045A" unicode="&#x45a;" horiz-adv-x="762" 
d="M724 154c0 -96 -72 -154 -183 -154h-148v227h-263v-227h-47v470h47v-201h263v201h47v-172h108c119 0 176 -57 176 -144zM676 151c0 66 -39 107 -129 107h-107v-218h102c85 0 134 42 134 111z" />
    <glyph glyph-name="uni045B" unicode="&#x45b;" horiz-adv-x="515" 
d="M301 544h-164v-174c44 13 89 22 139 22c106 0 167 -52 167 -152v-240h-47v238c0 73 -42 111 -125 111c-41 0 -86 -8 -134 -22v-327h-47v544h-93l-7 41h100v120l47 10v-130h164v-41z" />
    <glyph glyph-name="uni045F" unicode="&#x45f;" horiz-adv-x="526" 
d="M285 -145l-45 -8v153h-157v470h47v-430h266v430h47v-470h-158v-145z" />
    <glyph glyph-name="uni045E" unicode="&#x45e;" horiz-adv-x="477" 
d="M442 470l-206 -542c-29 -78 -63 -106 -126 -106c-8 0 -16 1 -22 2l-7 41c7 0 16 -1 30 -1c41 0 63 17 83 69l25 64l-183 468l46 10l160 -422l151 417h49zM366 661c-7 -53 -44 -109 -124 -109s-117 56 -124 109l35 5c12 -42 45 -67 89 -67s76 25 89 67z" />
    <glyph glyph-name="uni0453" unicode="&#x453;" horiz-adv-x="396" 
d="M83 0v470h280l6 -42h-239v-428h-47zM357 692l-138 -140h-34l106 155z" />
    <glyph glyph-name="uni0455" unicode="&#x455;" horiz-adv-x="434" 
d="M382 124c0 -85 -69 -132 -167 -132c-63 0 -125 19 -167 42l9 46c44 -25 101 -46 163 -46c70 0 116 31 116 86c0 49 -29 74 -130 102c-99 27 -144 61 -144 133s62 124 155 124c53 0 100 -13 138 -32l-8 -45c-43 22 -87 34 -132 34c-74 0 -107 -35 -107 -78
c0 -44 28 -66 112 -89c107 -29 162 -66 162 -145z" />
    <glyph glyph-name="uni045C" unicode="&#x45c;" horiz-adv-x="452" 
d="M377 -5l-247 248v-243h-47v470h47v-216l223 216h67l-237 -220l249 -245zM377 687l-138 -140h-34l106 155z" />
    <glyph glyph-name="uni0450" unicode="&#x450;" horiz-adv-x="484" 
d="M431 59c-43 -39 -105 -69 -172 -69c-124 0 -207 92 -207 245c0 150 83 245 197 245c120 0 183 -105 183 -235v-10h-332c0 -120 56 -204 161 -204c57 0 117 30 163 72zM249 441c-82 0 -137 -63 -148 -167h282c-3 92 -52 167 -134 167zM271 552h-33l-138 140l67 15z" />
    <glyph glyph-name="uni045D" unicode="&#x45d;" horiz-adv-x="538" 
d="M83 0v470h46v-397l273 397h53v-470h-46v409l-281 -409h-45zM291 547h-33l-138 140l67 15z" />
    <glyph glyph-name="uni0493" unicode="&#x493;" horiz-adv-x="412" 
d="M99 0v213h-68l-6 40h74v217h280l6 -42h-239v-175h155v-40h-155v-213h-47z" />
    <glyph glyph-name="uni0497" unicode="&#x497;" horiz-adv-x="682" 
d="M411 251l208 -211h53v-185l-45 -8v153h-30l-238 246l2 -246h-47l2 245l-231 -245h-63l242 249l-225 216l52 10l225 -221l-2 216h47l-2 -216l220 216h63z" />
    <glyph glyph-name="uni0499" unicode="&#x499;" horiz-adv-x="462" 
d="M394 356c0 -62 -39 -100 -107 -116c72 -12 116 -56 116 -117c0 -75 -59 -126 -160 -133v-135l-45 -8v143c-57 3 -107 21 -154 46l8 44c64 -33 110 -48 167 -48c90 0 136 36 136 91c0 60 -55 96 -154 96h-73l-6 42h84c85 0 141 35 141 91c0 48 -37 84 -122 84
c-62 0 -114 -22 -163 -46l-6 45c50 24 106 44 170 44c112 0 168 -53 168 -123z" />
    <glyph glyph-name="uni049B" unicode="&#x49b;" horiz-adv-x="458" 
d="M130 0h-47v470h47v-216l223 216h67l-237 -220l213 -210h51v-185l-45 -8v153h-30l-242 243v-243z" />
    <glyph glyph-name="uni049D" unicode="&#x49d;" horiz-adv-x="473" 
d="M223 387v-120l157 203h56l-178 -221l192 -244l-49 -10l-178 226v-118h-38v122h-56v-225h-46v470h46v-205h56v122h38z" />
    <glyph glyph-name="uni04A1" unicode="&#x4a1;" horiz-adv-x="542" 
d="M467 -5l-247 248v-243h-47v429h-151l6 41h192v-216l223 216h67l-237 -220l249 -245z" />
    <glyph glyph-name="uni04A3" unicode="&#x4a3;" horiz-adv-x="538" 
d="M450 -153v153h-52v227h-268v-227h-47v470h47v-201h268v201h47v-430h50v-185z" />
    <glyph glyph-name="uni04A5" unicode="&#x4a5;" horiz-adv-x="686" 
d="M441 0h-47v227h-264v-227h-47v470h47v-201h264v201h256l6 -42h-215v-428z" />
    <glyph glyph-name="uni04AB" unicode="&#x4ab;" horiz-adv-x="464" 
d="M417 47c-39 -32 -84 -52 -138 -56v-136l-45 -8v145c-103 11 -182 99 -182 243c0 156 93 245 210 245c59 0 111 -21 152 -52l-9 -48c-47 40 -91 59 -145 59c-91 0 -159 -74 -159 -204c0 -121 66 -204 163 -204c51 0 98 18 147 60z" />
    <glyph glyph-name="uni04AF" unicode="&#x4af;" horiz-adv-x="468" 
d="M433 470l-177 -470v-171l-47 -10v181l-174 465l47 10l152 -423l150 418h49z" />
    <glyph glyph-name="uni04B1" unicode="&#x4b1;" horiz-adv-x="468" 
d="M433 470l-177 -470h117l6 -40h-123v-131l-47 -10v141h-119v40h119l-174 465l47 10l152 -423l150 418h49z" />
    <glyph glyph-name="uni04B3" unicode="&#x4b3;" horiz-adv-x="474" 
d="M368 470h52l-160 -226l143 -204h47v-185l-45 -8v153h-29l-143 208l-141 -208h-52l168 242l-158 224l47 12l138 -200z" />
    <glyph glyph-name="uni04B7" unicode="&#x4b7;" horiz-adv-x="488" 
d="M62 470h47v-147c0 -73 38 -111 115 -111c39 0 80 8 124 22v236h47v-430h50v-185l-45 -8v153h-52v191c-42 -13 -83 -22 -129 -22c-100 0 -157 52 -157 152v149z" />
    <glyph glyph-name="uni04B9" unicode="&#x4b9;" horiz-adv-x="478" 
d="M206 49v120c-92 5 -144 56 -144 152v149h47v-147c0 -67 32 -105 97 -111v137h38v-137c33 2 67 10 104 22v236h47v-470h-47v191c-34 -11 -68 -19 -104 -21v-121h-38z" />
    <glyph glyph-name="uni04BB" unicode="&#x4bb;" horiz-adv-x="520" 
d="M443 0h-47v327c0 71 -34 110 -101 110c-52 0 -106 -30 -165 -85v-352h-47v705l47 10v-315c57 49 108 80 170 80c97 0 143 -54 143 -147v-333z" />
    <glyph glyph-name="uni04CF" unicode="&#x4cf;" horiz-adv-x="226" 
d="M136 0h-46v705l46 10v-715z" />
    <glyph glyph-name="uni04C2" unicode="&#x4c2;" horiz-adv-x="676" 
d="M85 0h-63l242 249l-225 216l52 10l225 -221l-2 216h47l-2 -216l220 216h63l-231 -219l243 -246l-52 -10l-243 251l2 -246h-47l2 245zM463 666c-7 -53 -44 -109 -124 -109s-117 56 -124 109l35 5c12 -42 45 -67 89 -67s76 25 89 67z" />
    <glyph glyph-name="uni04D1" unicode="&#x4d1;" horiz-adv-x="481" 
d="M404 0h-33l-11 63c-49 -43 -107 -73 -166 -73c-79 0 -142 40 -142 125c0 105 80 161 306 182v41c0 66 -39 98 -104 98c-54 0 -109 -15 -161 -42l-6 44c53 24 107 41 169 41c96 0 148 -49 148 -139v-340zM358 106v152c-194 -21 -258 -62 -258 -139c0 -60 43 -88 96 -88
c50 0 111 30 162 75zM365 666c-7 -53 -44 -109 -124 -109s-117 56 -124 109l35 5c12 -42 45 -67 89 -67s76 25 89 67z" />
    <glyph glyph-name="uni04D3" unicode="&#x4d3;" horiz-adv-x="481" 
d="M404 0h-33l-11 63c-49 -43 -107 -73 -166 -73c-79 0 -142 40 -142 125c0 105 80 161 306 182v41c0 66 -39 98 -104 98c-54 0 -109 -15 -161 -42l-6 44c53 24 107 41 169 41c96 0 148 -49 148 -139v-340zM358 106v152c-194 -21 -258 -62 -258 -139c0 -60 43 -88 96 -88
c50 0 111 30 162 75zM359 566h-70v79h70v-79zM192 566h-69v79h69v-79z" />
    <glyph glyph-name="uni04D5" unicode="&#x4d5;" horiz-adv-x="790" 
d="M736 245v-10h-332c0 -120 62 -204 160 -204c57 0 116 30 163 72l8 -44c-45 -38 -105 -69 -173 -69c-70 0 -129 34 -166 92c-58 -54 -121 -92 -200 -92c-83 0 -144 47 -144 126c0 104 80 160 306 181v43c0 65 -39 96 -104 96c-54 0 -109 -15 -161 -42l-6 44
c52 25 107 41 169 41c82 0 127 -35 139 -99c34 64 91 100 162 100c119 0 179 -105 179 -235zM686 274c-3 92 -48 167 -129 167c-89 0 -141 -69 -152 -167h281zM379 117c-13 34 -21 74 -21 118v24c-194 -21 -258 -63 -258 -139c0 -54 39 -89 99 -89c62 0 125 35 180 86z" />
    <glyph glyph-name="uni04D7" unicode="&#x4d7;" horiz-adv-x="484" 
d="M431 59c-43 -39 -105 -69 -172 -69c-124 0 -207 92 -207 245c0 150 83 245 197 245c120 0 183 -105 183 -235v-10h-332c0 -120 56 -204 161 -204c57 0 117 30 163 72zM249 441c-82 0 -137 -63 -148 -167h282c-3 92 -52 167 -134 167zM373 666c-7 -53 -44 -109 -124 -109
s-117 56 -124 109l35 5c12 -42 45 -67 89 -67s76 25 89 67z" />
    <glyph glyph-name="uni04D9" unicode="&#x4d9;" horiz-adv-x="484" 
d="M53 411c43 39 105 69 172 69c124 0 207 -92 207 -245c0 -150 -83 -245 -197 -245c-120 0 -183 105 -183 235v10h332c0 120 -56 204 -161 204c-57 0 -117 -30 -163 -72zM235 29c81 0 137 62 147 167h-281c3 -92 52 -167 134 -167z" />
    <glyph glyph-name="uni04DD" unicode="&#x4dd;" horiz-adv-x="676" 
d="M85 0h-63l242 249l-225 216l52 10l225 -221l-2 216h47l-2 -216l220 216h63l-231 -219l243 -246l-52 -10l-243 251l2 -246h-47l2 245zM457 566h-70v79h70v-79zM290 566h-69v79h69v-79z" />
    <glyph glyph-name="uni04DF" unicode="&#x4df;" horiz-adv-x="462" 
d="M394 356c0 -62 -39 -100 -107 -116c72 -12 116 -56 116 -117c0 -80 -68 -134 -184 -134c-65 0 -122 19 -175 47l8 44c64 -33 110 -48 167 -48c90 0 136 36 136 91c0 60 -55 96 -154 96h-73l-6 42h84c85 0 141 35 141 91c0 48 -37 84 -122 84c-62 0 -114 -22 -163 -46
l-6 45c50 24 106 44 170 44c112 0 168 -53 168 -123zM348 566h-70v79h70v-79zM181 566h-69v79h69v-79z" />
    <glyph glyph-name="uni04E3" unicode="&#x4e3;" horiz-adv-x="538" 
d="M83 0v470h46v-397l273 397h53v-470h-46v409l-281 -409h-45zM397 578h-255v43h255v-43z" />
    <glyph glyph-name="uni04E5" unicode="&#x4e5;" horiz-adv-x="538" 
d="M83 0v470h46v-397l273 397h53v-470h-46v409l-281 -409h-45zM387 561h-70v79h70v-79zM220 561h-69v79h69v-79z" />
    <glyph glyph-name="uni04E7" unicode="&#x4e7;" horiz-adv-x="519" 
d="M467 235c0 -155 -93 -245 -208 -245c-117 0 -207 90 -207 245c0 156 93 245 207 245c118 0 208 -89 208 -245zM418 235c0 130 -69 204 -159 204s-158 -71 -158 -204c0 -130 69 -204 158 -204c90 0 159 70 159 204zM378 566h-70v79h70v-79zM211 566h-69v79h69v-79z" />
    <glyph glyph-name="uni04E9" unicode="&#x4e9;" horiz-adv-x="519" 
d="M467 235c0 -155 -93 -245 -208 -245c-117 0 -207 90 -207 245c0 156 93 245 207 245c118 0 208 -89 208 -245zM259 30c88 0 156 65 162 186h-324c7 -118 74 -186 162 -186zM259 440c-88 0 -154 -65 -162 -182h324c-8 115 -75 182 -162 182z" />
    <glyph glyph-name="uni04EF" unicode="&#x4ef;" horiz-adv-x="477" 
d="M442 470l-206 -542c-29 -78 -63 -106 -126 -106c-8 0 -16 1 -22 2l-7 41c7 0 16 -1 30 -1c41 0 63 17 83 69l25 64l-183 468l46 10l160 -422l151 417h49zM370 578h-255v43h255v-43z" />
    <glyph glyph-name="uni04F1" unicode="&#x4f1;" horiz-adv-x="477" 
d="M442 470l-206 -542c-29 -78 -63 -106 -126 -106c-8 0 -16 1 -22 2l-7 41c7 0 16 -1 30 -1c41 0 63 17 83 69l25 64l-183 468l46 10l160 -422l151 417h49zM360 561h-70v79h70v-79zM193 561h-69v79h69v-79z" />
    <glyph glyph-name="uni04F3" unicode="&#x4f3;" horiz-adv-x="477" 
d="M442 470l-206 -542c-29 -78 -63 -106 -126 -106c-8 0 -16 1 -22 2l-7 41c7 0 16 -1 30 -1c41 0 63 17 83 69l25 64l-183 468l46 10l160 -422l151 417h49zM467 691l-138 -140h-31l105 157zM304 691l-139 -140h-31l106 157z" />
    <glyph glyph-name="uni04F5" unicode="&#x4f5;" horiz-adv-x="478" 
d="M62 470h47v-147c0 -73 38 -111 115 -111c39 0 80 8 124 22v236h47v-470h-47v191c-42 -13 -83 -22 -129 -22c-100 0 -157 52 -157 152v149zM348 561h-70v79h70v-79zM181 561h-69v79h69v-79z" />
    <glyph glyph-name="uni04F9" unicode="&#x4f9;" horiz-adv-x="640" 
d="M554 0h-46v470h46v-470zM406 154c0 -96 -72 -154 -183 -154h-140v470h47v-172h100c119 0 176 -57 176 -144zM358 151c0 66 -39 107 -129 107h-99v-218h94c85 0 134 42 134 111zM436 561h-70v79h70v-79zM269 561h-69v79h69v-79z" />
    <glyph glyph-name="zero" unicode="0" horiz-adv-x="613" 
d="M546 339c0 -207 -89 -352 -240 -352s-239 144 -239 350s89 352 240 352s239 -144 239 -350zM497 338c0 177 -65 309 -190 309c-126 0 -191 -132 -191 -309s65 -309 191 -309c125 0 190 132 190 309z" />
    <glyph glyph-name="one" unicode="1" horiz-adv-x="354" 
d="M238 0h-47v626l-149 -63l-7 40l169 77h34v-680z" />
    <glyph glyph-name="two" unicode="2" horiz-adv-x="536" 
d="M469 0h-414v32l248 269c81 88 105 137 105 207c0 86 -55 139 -143 139c-70 0 -131 -35 -185 -81l-8 49c51 41 114 74 195 74c120 0 190 -72 190 -178c0 -84 -34 -144 -117 -233l-221 -237h344z" />
    <glyph glyph-name="three" unicode="3" horiz-adv-x="531" 
d="M460 181c0 -112 -94 -194 -220 -194c-75 0 -140 22 -186 53l8 48c59 -40 108 -59 180 -59c103 0 169 64 169 151c0 93 -65 156 -206 156h-29l-5 43h41c120 0 186 57 186 142c0 73 -50 126 -144 126c-72 0 -131 -28 -183 -66l-6 46c52 37 113 62 191 62
c125 0 191 -74 191 -166c0 -91 -63 -140 -133 -163c88 -26 146 -82 146 -179z" />
    <glyph glyph-name="three.alt" horiz-adv-x="531" 
d="M460 184c0 -108 -89 -197 -222 -197c-68 0 -138 22 -184 53l8 48c59 -40 112 -59 180 -59c108 0 169 70 169 155c0 106 -76 156 -215 156h-25l-5 34l226 260h-323l-6 42h393v-33l-232 -264c132 -3 236 -60 236 -195z" />
    <glyph glyph-name="four" unicode="4" horiz-adv-x="596" 
d="M557 166h-114v-166h-45v166h-353v31l339 483h59v-474h114v-40zM398 206v423l-298 -423h298z" />
    <glyph glyph-name="four.alt" horiz-adv-x="596" 
d="M557 166h-114v-166h-45v166h-353v30l341 486l46 -9l-330 -467h296v199l45 11v-210h114v-40z" />
    <glyph glyph-name="five" unicode="5" horiz-adv-x="540" 
d="M476 205c0 -133 -109 -217 -237 -217c-77 0 -135 20 -181 47l7 48c53 -32 103 -53 176 -53c96 0 185 60 185 173c0 98 -62 160 -171 160c-61 0 -101 -14 -138 -29l-27 7l23 335h328l7 -42h-294l-18 -252c32 12 69 23 121 23c134 0 219 -76 219 -200z" />
    <glyph glyph-name="six" unicode="6" horiz-adv-x="572" 
d="M418 645c-177 -52 -278 -155 -297 -311c61 44 124 68 192 68c121 0 202 -77 202 -198c0 -132 -91 -217 -212 -217c-135 0 -233 115 -233 287c0 225 133 353 341 417zM308 360c-70 0 -133 -32 -190 -75v-8c0 -145 78 -249 186 -249c99 0 161 70 161 174
c0 91 -54 158 -157 158z" />
    <glyph glyph-name="seven" unicode="7" horiz-adv-x="535" 
d="M474 643l-287 -650l-45 11l278 630h-359l-6 42h419v-33z" />
    <glyph glyph-name="eight" unicode="8" horiz-adv-x="573" 
d="M66 168c0 86 56 147 150 191c-70 30 -123 80 -123 163c0 93 84 167 200 167s194 -73 194 -163c0 -80 -55 -135 -126 -173c91 -36 146 -92 146 -180c0 -109 -97 -186 -219 -186c-133 0 -222 79 -222 181zM115 171c0 -86 72 -143 175 -143c89 0 168 57 168 145
c0 78 -44 120 -198 170c-88 -37 -145 -96 -145 -172zM142 523c0 -72 37 -111 174 -154c76 36 122 89 122 153c0 71 -60 126 -147 126c-97 0 -149 -64 -149 -125z" />
    <glyph glyph-name="nine" unicode="9" horiz-adv-x="572" 
d="M144 30c181 42 283 148 306 301c-62 -43 -123 -65 -190 -65c-119 0 -202 78 -202 205c0 122 81 218 212 218c138 0 232 -115 232 -287c0 -225 -135 -359 -350 -417zM265 308c65 0 133 29 190 73v18c0 149 -79 249 -185 249c-103 0 -163 -74 -163 -175
c0 -96 56 -165 158 -165z" />
    <glyph glyph-name="zero.osf" horiz-adv-x="542" 
d="M492 253c0 -139 -80 -262 -223 -262c-142 0 -219 123 -219 261s80 262 221 262c142 0 221 -121 221 -261zM445 252c0 116 -60 221 -174 221s-174 -105 -174 -221s60 -220 174 -220s174 104 174 220z" />
    <glyph glyph-name="one.osf" horiz-adv-x="291" 
d="M194 0h-46v466l-118 -51l-7 38l129 59h42v-512z" />
    <glyph glyph-name="two.osf" horiz-adv-x="461" 
d="M415 0h-372v39l206 172c65 55 106 97 106 158c0 70 -54 103 -117 103c-59 0 -117 -25 -173 -61l-9 42c50 32 114 59 183 59c101 0 165 -58 165 -140c0 -78 -52 -128 -129 -191l-172 -141h306z" />
    <glyph glyph-name="three.osf" horiz-adv-x="462" 
d="M405 31c0 -125 -118 -216 -278 -216c-41 0 -72 4 -95 9l-8 44c29 -7 68 -12 107 -12c130 0 227 71 227 174c0 72 -55 121 -143 121c-38 0 -55 -2 -69 -4l-16 -2v39l34 7c114 23 181 88 181 171c0 78 -58 113 -122 113c-67 0 -124 -27 -178 -68l-9 41c48 37 109 66 187 66
c93 0 169 -54 169 -149c0 -87 -66 -152 -143 -182c91 -7 156 -63 156 -152z" />
    <glyph glyph-name="three.osf_alt" horiz-adv-x="462" 
d="M180 199c17 2 31 3 43 3c118 0 184 -60 184 -159c0 -129 -126 -229 -294 -229c-35 0 -56 2 -79 6l-8 44c29 -6 58 -9 89 -9c142 0 245 78 245 186c0 83 -59 122 -143 122c-32 0 -62 -2 -76 -4l-16 -2l-7 28l234 279h-312l-6 41h377v-32z" />
    <glyph glyph-name="four.osf" horiz-adv-x="567" 
d="M529 18h-115v-192l-43 -13v205h-330v30l314 464h59v-456h115v-38zM371 56v408l-275 -408h275z" />
    <glyph glyph-name="five.osf" horiz-adv-x="475" 
d="M429 63c0 -152 -146 -247 -323 -247c-26 0 -38 1 -60 3l-8 44c23 -3 42 -5 68 -5c166 0 274 81 274 201c0 92 -61 134 -137 134c-52 0 -89 -11 -134 -31l-41 11l5 332h324l8 -42h-290l-5 -257c42 18 78 29 138 29c93 0 181 -56 181 -172z" />
    <glyph glyph-name="six.osf" horiz-adv-x="541" 
d="M408 649c-207 -64 -275 -198 -294 -309c53 37 122 70 187 70c112 0 192 -78 192 -201c0 -130 -98 -218 -215 -218c-130 0 -216 102 -216 265c0 232 138 374 339 437zM296 371c-63 0 -134 -37 -188 -77c-1 -12 -1 -23 -1 -34c0 -143 69 -230 172 -230c92 0 167 66 167 177
c0 91 -49 164 -150 164z" />
    <glyph glyph-name="seven.osf" horiz-adv-x="462" 
d="M421 472l-273 -659l-44 11l270 639h-339l-7 42h393v-33z" />
    <glyph glyph-name="eight.osf" horiz-adv-x="524" 
d="M50 168c0 87 53 147 144 197c-80 36 -116 85 -116 158c0 96 85 168 194 168c115 0 184 -67 184 -164c0 -78 -55 -136 -122 -175c101 -44 140 -96 140 -172c0 -112 -94 -189 -213 -189c-137 0 -211 83 -211 177zM99 172c0 -80 58 -140 164 -140c92 0 162 62 162 144
c0 84 -51 122 -190 172c-89 -46 -136 -96 -136 -176zM124 526c0 -67 31 -109 170 -159c72 42 116 91 116 160c0 73 -51 124 -140 124c-95 0 -146 -63 -146 -125z" />
    <glyph glyph-name="nine.osf" horiz-adv-x="541" 
d="M133 -144c207 63 275 198 294 308c-53 -36 -122 -69 -187 -69c-112 0 -192 78 -192 201c0 130 98 218 215 218c130 0 216 -102 216 -265c0 -232 -138 -374 -339 -437zM245 134c62 0 134 36 188 77c1 12 1 23 1 34c0 143 -69 230 -172 230c-92 0 -167 -66 -167 -177
c0 -91 49 -164 150 -164z" />
    <glyph glyph-name="period" unicode="." horiz-adv-x="212" 
d="M136 0h-60v81h60v-81z" />
    <glyph glyph-name="comma" unicode="," horiz-adv-x="212" 
d="M151 81l-89 -214l-25 6l53 208h61z" />
    <glyph glyph-name="comma.alt" horiz-adv-x="212" 
d="M84 81h55c3 -15 5 -30 5 -44c0 -56 -25 -109 -84 -172l-25 12c40 60 54 108 54 154c0 17 -2 33 -5 50z" />
    <glyph glyph-name="colon" unicode=":" horiz-adv-x="220" 
d="M140 389h-60v81h60v-81zM140 0h-60v81h60v-81z" />
    <glyph glyph-name="semicolon" unicode=";" horiz-adv-x="220" 
d="M144 389h-60v81h60v-81zM145 81l-89 -214l-25 6l53 208h61z" />
    <glyph glyph-name="semicolon.alt" horiz-adv-x="220" 
d="M146 390h-60v80h60v-80zM86 81h55c3 -15 5 -30 5 -44c0 -56 -25 -109 -84 -172l-25 12c40 60 54 108 54 154c0 17 -2 33 -5 50z" />
    <glyph glyph-name="ellipsis" unicode="&#x2026;" horiz-adv-x="666" 
d="M586 0h-61v81h61v-81zM363 0h-60v81h60v-81zM141 0h-60v81h60v-81z" />
    <glyph glyph-name="periodcentered" unicode="&#xb7;" horiz-adv-x="203" 
d="M132 242h-61v81h61v-81z" />
    <glyph glyph-name="bullet" unicode="&#x2022;" horiz-adv-x="413" 
d="M310 350l-14 -97l-89 -17l-89 17l-15 97l15 97l89 16l89 -16z" />
    <glyph glyph-name="ampersand" unicode="&#x26;" horiz-adv-x="685" 
d="M662 7l-51 -13l-119 120c-59 -82 -137 -124 -228 -124c-129 0 -212 81 -212 187s71 168 170 210c-51 54 -76 95 -76 158c0 88 68 155 174 155c57 0 109 -16 157 -44l-11 -49c-52 33 -102 50 -148 50c-77 0 -122 -48 -122 -109c0 -53 21 -90 77 -147l212 -215
c29 55 51 127 64 217l47 -10c-17 -98 -44 -177 -79 -240zM264 33c76 0 145 35 197 112l-209 211c-95 -37 -151 -96 -151 -177c0 -83 68 -146 163 -146z" />
    <glyph glyph-name="ampersand.sc" horiz-adv-x="511" 
d="M498 6l-47 -11l-83 83c-38 -51 -92 -86 -165 -86c-99 0 -158 56 -158 135c0 72 44 123 122 155c-35 38 -55 70 -55 115c0 61 45 117 130 117c45 0 82 -13 118 -32l-10 -45c-38 24 -73 38 -110 38c-54 0 -83 -32 -83 -76c0 -35 13 -61 57 -105l148 -151
c23 45 37 99 45 152l41 -10c-10 -58 -28 -120 -57 -171zM204 30c60 0 104 30 136 76l-146 149c-69 -26 -104 -70 -104 -127c0 -58 47 -98 114 -98z" />
    <glyph glyph-name="exclam" unicode="!" horiz-adv-x="264" 
d="M161 690l-16 -505l-26 -6l-16 511h58zM162 0h-60v81h60v-81z" />
    <glyph glyph-name="exclamdown" unicode="&#xa1;" horiz-adv-x="264" 
d="M162 609h-60v81h60v-81zM161 0h-58l16 505l26 6z" />
    <glyph glyph-name="question" unicode="?" horiz-adv-x="482" 
d="M424 539c0 -101 -67 -154 -175 -215l-10 -139l-32 -7l-11 166l17 9c128 68 162 115 162 184c0 76 -55 123 -142 123c-64 0 -124 -25 -177 -67l-7 46c47 36 113 64 186 64c109 0 189 -62 189 -164zM253 0h-60v81h60v-81z" />
    <glyph glyph-name="questiondown" unicode="&#xbf;" horiz-adv-x="482" 
d="M58 151c0 101 67 154 175 215l10 139l32 7l11 -166l-17 -9c-128 -68 -162 -115 -162 -184c0 -76 55 -123 142 -123c64 0 124 25 177 67l7 -46c-47 -36 -113 -64 -186 -64c-109 0 -189 62 -189 164zM229 690h60v-81h-60v81z" />
    <glyph glyph-name="quotedblleft" unicode="&#x201c;" horiz-adv-x="370" 
d="M158 688l-39 -208h-61l74 214zM316 688l-39 -208h-61l74 214z" />
    <glyph glyph-name="quotedblright" unicode="&#x201d;" horiz-adv-x="370" 
d="M154 690l-74 -214l-26 6l39 208h61zM312 690l-74 -214l-26 6l39 208h61z" />
    <glyph glyph-name="quotedblleft.alt" horiz-adv-x="364" 
d="M122 480h-52c-6 20 -9 39 -9 58c0 50 22 99 71 158l25 -11c-32 -54 -45 -99 -45 -141c0 -22 4 -43 10 -64zM277 480h-52c-6 20 -9 39 -9 58c0 50 22 99 71 158l25 -11c-32 -54 -45 -99 -45 -141c0 -22 4 -43 10 -64z" />
    <glyph glyph-name="quotedblright.alt" horiz-adv-x="364" 
d="M87 690h52c6 -20 9 -39 9 -58c0 -50 -22 -99 -71 -158l-25 11c32 54 45 99 45 141c0 22 -4 43 -10 64zM242 690h52c6 -20 9 -39 9 -58c0 -50 -22 -99 -71 -158l-25 11c32 54 45 99 45 141c0 22 -4 43 -10 64z" />
    <glyph glyph-name="quoteleft" unicode="&#x2018;" horiz-adv-x="212" 
d="M158 688l-39 -208h-61l74 214z" />
    <glyph glyph-name="quoteright" unicode="&#x2019;" horiz-adv-x="212" 
d="M154 690l-74 -214l-26 6l39 208h61z" />
    <glyph glyph-name="quoteleft.alt" horiz-adv-x="209" 
d="M122 480h-52c-6 20 -9 39 -9 58c0 50 22 99 71 158l25 -11c-32 -54 -45 -99 -45 -141c0 -22 4 -43 10 -64z" />
    <glyph glyph-name="quoteright.alt" horiz-adv-x="209" 
d="M87 690h52c6 -20 9 -39 9 -58c0 -50 -22 -99 -71 -158l-25 11c32 54 45 99 45 141c0 22 -4 43 -10 64z" />
    <glyph glyph-name="quotedblbase" unicode="&#x201e;" horiz-adv-x="369" 
d="M154 81l-74 -214l-26 6l39 208h61zM312 81l-74 -214l-26 6l39 208h61z" />
    <glyph glyph-name="quotesinglbase" unicode="&#x201a;" horiz-adv-x="212" 
d="M147 81l-74 -214l-26 6l39 208h61z" />
    <glyph glyph-name="quotedblbase.alt" horiz-adv-x="364" 
d="M80 81h52c6 -20 9 -39 9 -58c0 -50 -22 -99 -71 -158l-25 11c32 54 45 99 45 141c0 22 -4 43 -10 64zM235 81h52c6 -20 9 -39 9 -58c0 -50 -22 -99 -71 -158l-25 11c32 54 45 99 45 141c0 22 -4 43 -10 64z" />
    <glyph glyph-name="quotesinglbase.alt" horiz-adv-x="209" 
d="M80 81h52c6 -20 9 -39 9 -58c0 -50 -22 -99 -71 -158l-25 11c32 54 45 99 45 141c0 22 -4 43 -10 64z" />
    <glyph glyph-name="guillemotleft" unicode="&#xab;" horiz-adv-x="503" 
d="M243 470l-141 -234l139 -233l-29 -8l-169 241l166 234h34zM442 470l-141 -234l139 -233l-29 -8l-169 241l166 234h34z" />
    <glyph glyph-name="guillemotright" unicode="&#xbb;" horiz-adv-x="503" 
d="M460 234l-166 -234h-34l141 234l-139 233l29 8zM261 234l-166 -234h-34l141 234l-139 233l29 8z" />
    <glyph glyph-name="guilsinglleft" unicode="&#x2039;" horiz-adv-x="304" 
d="M243 470l-141 -234l139 -233l-29 -8l-169 241l166 234h34z" />
    <glyph glyph-name="guilsinglright" unicode="&#x203a;" horiz-adv-x="304" 
d="M261 234l-166 -234h-34l141 234l-139 233l29 8z" />
    <glyph glyph-name="guillemotleft.sc" horiz-adv-x="512" 
d="M451 505l-144 -252l142 -249l-31 -9l-171 258l168 252h36zM248 505l-145 -252l143 -249l-31 -9l-171 258l168 252h36z" />
    <glyph glyph-name="guillemotright.sc" horiz-adv-x="512" 
d="M468 252l-168 -252h-36l145 252l-143 249l31 9zM265 252l-168 -252h-36l145 252l-143 249l31 9z" />
    <glyph glyph-name="guilsinglleft.sc" horiz-adv-x="309" 
d="M248 505l-145 -252l143 -249l-31 -9l-171 258l168 252h36z" />
    <glyph glyph-name="guilsinglright.sc" horiz-adv-x="309" 
d="M265 252l-168 -252h-36l145 252l-143 249l31 9z" />
    <glyph glyph-name="hyphen" unicode="-" horiz-adv-x="372" 
d="M306 257h-240v50h240v-50z" />
    <glyph glyph-name="endash" unicode="&#x2013;" horiz-adv-x="457" 
d="M395 259h-333v47h333v-47z" />
    <glyph glyph-name="emdash" unicode="&#x2014;" horiz-adv-x="915" 
d="M853 259h-791v47h791v-47z" />
    <glyph glyph-name="underscore" unicode="_" horiz-adv-x="476" 
d="M473 -106h-470v41h470v-41z" />
    <glyph glyph-name="slash" unicode="/" horiz-adv-x="501" 
d="M480 686l-472 -808l-42 9l472 808z" />
    <glyph glyph-name="backslash" unicode="\" horiz-adv-x="501" 
d="M535 -113l-42 -9l-472 808l42 9z" />
    <glyph glyph-name="slash.sc" horiz-adv-x="403" 
d="M391 534l-340 -581l-41 8l340 582z" />
    <glyph glyph-name="backslash.sc" horiz-adv-x="403" 
d="M393 -39l-41 -8l-340 581l41 9z" />
    <glyph glyph-name="slash.osf" horiz-adv-x="383" 
d="M425 590l-426 -688l-41 9l426 688z" />
    <glyph glyph-name="bar" unicode="|" horiz-adv-x="268" 
d="M155 -184l-42 -7v907l42 7v-907z" />
    <glyph glyph-name="parenleft" unicode="(" horiz-adv-x="392" 
d="M338 -87l-50 -10c-120 106 -213 238 -213 406c0 177 88 312 253 418l9 -44c-142 -97 -213 -211 -213 -375c0 -152 83 -282 214 -395z" />
    <glyph glyph-name="parenright" unicode=")" horiz-adv-x="392" 
d="M54 713l50 10c120 -106 213 -238 213 -406c0 -177 -88 -312 -253 -418l-9 44c142 97 213 211 213 375c0 152 -83 282 -214 395z" />
    <glyph glyph-name="parenleft.sc" horiz-adv-x="298" 
d="M264 -59l-43 -11c-98 87 -153 181 -153 292c0 127 64 225 182 300l7 -41c-98 -66 -144 -151 -144 -261c0 -92 47 -188 151 -279z" />
    <glyph glyph-name="parenright.sc" horiz-adv-x="298" 
d="M35 509l43 11c98 -87 153 -181 153 -292c0 -127 -64 -225 -182 -300l-7 41c98 66 144 151 144 261c0 92 -47 188 -151 279z" />
    <glyph glyph-name="bracketleft" unicode="[" horiz-adv-x="405" 
d="M342 -106h-237v796h233v-39h-187v-718h185z" />
    <glyph glyph-name="bracketright" unicode="]" horiz-adv-x="405" 
d="M63 690h237v-796h-233v39h187v718h-185z" />
    <glyph glyph-name="bracketleft.sc" horiz-adv-x="306" 
d="M267 -76h-179v581h176v-33h-134v-515h132z" />
    <glyph glyph-name="bracketright.sc" horiz-adv-x="306" 
d="M219 -76h-176v33h134v515h-132l-5 33h179v-581z" />
    <glyph glyph-name="braceleft" unicode="{" horiz-adv-x="463" 
d="M400 -106h-80c-98 0 -143 45 -143 130c0 46 12 90 12 139c0 83 -48 110 -112 110h-25l-5 37h30c65 0 112 26 112 110c0 48 -12 91 -12 138c0 85 45 132 143 132h75v-39h-77c-67 0 -96 -35 -96 -92c0 -41 13 -94 13 -138c0 -82 -41 -115 -101 -128v-2
c60 -15 101 -46 101 -129c0 -44 -13 -98 -13 -139c0 -57 26 -90 95 -90h76z" />
    <glyph glyph-name="braceright" unicode="}" horiz-adv-x="463" 
d="M63 690h80c98 0 143 -45 143 -130c0 -46 -12 -90 -12 -139c0 -83 48 -110 112 -110h25l5 -37h-30c-65 0 -112 -26 -112 -110c0 -48 12 -91 12 -138c0 -85 -45 -132 -143 -132h-75v39h77c67 0 96 35 96 92c0 41 -13 94 -13 138c0 82 41 115 101 128v2
c-60 15 -101 46 -101 129c0 44 13 98 13 139c0 57 -26 90 -95 90h-76z" />
    <glyph glyph-name="braceleft.sc" horiz-adv-x="333" 
d="M295 -76h-66c-71 0 -105 34 -105 94c0 33 11 70 11 105c0 56 -33 75 -78 75h-20l-6 33h26c45 0 78 18 78 76c0 35 -11 70 -11 104c0 60 34 94 105 94h63v-35h-63c-43 0 -62 -23 -62 -58c0 -30 11 -73 11 -105c0 -59 -31 -82 -74 -92v-1c43 -10 74 -33 74 -92
c0 -31 -11 -74 -11 -105c0 -35 18 -58 61 -58h61z" />
    <glyph glyph-name="braceright.sc" horiz-adv-x="333" 
d="M39 505h66c71 0 105 -34 105 -94c0 -33 -11 -70 -11 -105c0 -56 33 -75 78 -75h20l6 -33h-26c-45 0 -78 -18 -78 -76c0 -35 11 -70 11 -104c0 -60 -34 -94 -105 -94h-63v35h63c43 0 62 23 62 58c0 30 -11 73 -11 105c0 59 31 82 74 92v1c-43 10 -74 33 -74 92
c0 31 11 74 11 105c0 35 -18 58 -61 58h-61z" />
    <glyph glyph-name="at" unicode="@" horiz-adv-x="845" 
d="M604 49c-71 0 -110 42 -110 103c-55 -63 -97 -102 -149 -102c-56 0 -100 49 -100 134c0 151 106 259 221 259c41 0 82 -14 112 -29l-36 -213c-3 -15 -5 -33 -5 -52c0 -39 19 -72 73 -72c75 0 144 85 144 241c0 174 -100 280 -286 280c-212 0 -379 -166 -379 -415
c0 -197 112 -298 293 -298c79 0 157 17 214 47l4 -24c-54 -28 -136 -48 -222 -48c-201 0 -318 115 -318 322c0 260 178 441 411 441c200 0 311 -118 311 -304c0 -172 -84 -270 -178 -270zM354 89c39 0 75 31 145 115l33 184c-23 11 -44 17 -70 17c-87 0 -173 -85 -173 -219
c0 -66 26 -97 65 -97z" />
    <glyph glyph-name="copyright" unicode="&#xa9;" horiz-adv-x="811" 
d="M749 345c0 -208 -134 -358 -343 -358c-208 0 -345 150 -345 358s135 358 343 358c209 0 345 -150 345 -358zM722 345c0 195 -124 334 -318 334c-195 0 -315 -139 -315 -334s123 -334 318 -334s315 139 315 334zM537 188c-34 -25 -77 -43 -126 -43
c-101 0 -174 84 -174 203c0 120 74 204 177 204c44 0 83 -14 117 -36l-8 -43c-36 28 -70 41 -110 41c-83 0 -134 -69 -134 -166c0 -96 53 -166 134 -166c42 0 79 16 119 47z" />
    <glyph glyph-name="published" unicode="&#x2117;" horiz-adv-x="811" 
d="M749 345c0 -208 -134 -358 -343 -358c-208 0 -345 150 -345 358s135 358 343 358c209 0 345 -150 345 -358zM722 345c0 195 -124 334 -318 334c-195 0 -315 -139 -315 -334s123 -334 318 -334s315 139 315 334zM541 428c0 -78 -62 -119 -138 -119h-53v-159h-41v393h101
c76 0 131 -43 131 -115zM499 426c0 52 -36 79 -91 79h-58v-159h54c58 0 95 27 95 80z" />
    <glyph glyph-name="registered.alt" horiz-adv-x="811" 
d="M749 345c0 -208 -134 -358 -343 -358c-208 0 -345 150 -345 358s135 358 343 358c209 0 345 -150 345 -358zM722 345c0 195 -124 334 -318 334c-195 0 -315 -139 -315 -334s123 -334 318 -334s315 139 315 334zM518 151l-128 171h-54v-168h-40v393h104
c76 0 125 -43 125 -110c0 -59 -39 -97 -91 -110l128 -168zM336 509v-150h56c55 0 91 28 91 77c0 46 -30 73 -84 73h-63z" />
    <glyph glyph-name="registered" unicode="&#xae;" horiz-adv-x="569" 
d="M511 465c0 -135 -91 -232 -226 -232c-136 0 -227 98 -227 234c0 134 91 231 227 231c135 0 226 -98 226 -233zM490 465c0 123 -83 213 -206 213s-204 -90 -204 -211c0 -124 82 -214 205 -214s205 90 205 212zM388 350l-34 -7l-77 109h-31v-107h-31v258h64
c54 0 88 -28 88 -74c0 -41 -26 -63 -57 -72zM336 527c0 30 -21 48 -59 48h-32v-96h31c36 0 60 17 60 48z" />
    <glyph glyph-name="servicemark" unicode="&#x2120;" horiz-adv-x="802" 
d="M726 345h-37l-21 286l-114 -287h-31l-112 286l-22 -285h-35l26 345h44l116 -304l116 304h43zM164 340c-39 0 -69 11 -93 23l4 36c27 -16 53 -27 91 -27c39 0 74 22 74 62c0 34 -21 53 -68 73c-69 30 -96 51 -96 101s45 87 99 87c32 0 61 -8 83 -20l-6 -34
c-25 14 -50 22 -78 22c-38 0 -64 -22 -64 -53c0 -32 21 -47 74 -70c61 -26 91 -52 91 -104c0 -61 -52 -96 -111 -96z" />
    <glyph glyph-name="servicemark.alt" horiz-adv-x="802" 
d="M164 340c-39 0 -69 11 -93 23l4 36c27 -16 53 -27 91 -27c39 0 74 22 74 62c0 34 -21 53 -68 73c-69 30 -96 51 -96 101s45 87 99 87c32 0 61 -8 83 -20l-6 -34c-25 14 -50 22 -78 22c-38 0 -64 -22 -64 -53c0 -32 21 -47 74 -70c61 -26 91 -52 91 -104
c0 -61 -52 -96 -111 -96zM712 345h-35v275l-123 -277h-30l-121 277v-275h-35v345h42l130 -306l130 306h42v-345z" />
    <glyph glyph-name="trademark" unicode="&#x2122;" horiz-adv-x="802" 
d="M726 345h-37l-21 286l-114 -287h-31l-112 286l-22 -285h-35l26 345h44l116 -304l116 304h43zM294 656h-110v-311h-37v311h-107v34h249z" />
    <glyph glyph-name="trademark.alt" horiz-adv-x="802" 
d="M712 345h-35v275l-123 -277h-30l-121 277v-275h-35v345h42l130 -306l130 306h42v-345zM294 656h-110v-311h-37v311h-107v34h249z" />
    <glyph glyph-name="asterisk" unicode="*" horiz-adv-x="410" 
d="M355 581l-122 -50l70 -116l-11 -7l-87 104l-87 -104l-11 7l69 116l-121 50l4 13l128 -30l11 133h14l11 -133l128 30z" />
    <glyph glyph-name="dagger" unicode="&#x2020;" horiz-adv-x="498" 
d="M269 577l-14 -97h-13l-13 97v113h40v-113zM442 427h-58l-101 15v11l101 15h58v-41zM215 442l-102 -15h-57v41h57l102 -15v-11zM268 -15l-15 -102h-9l-14 102v341l12 89h13l13 -89v-341z" />
    <glyph glyph-name="daggerdbl" unicode="&#x2021;" horiz-adv-x="516" 
d="M278 577l-14 -97h-12l-14 97v113h40v-113zM451 427h-58l-101 15v11l101 15h58v-41zM224 442l-101 -15h-58v41h58l101 -15v-11zM277 178l-13 -90h-12l-13 90v148l13 89h12l13 -89v-148zM451 35h-58l-101 15v11l101 15h58v-41zM224 50l-101 -15h-58v41h58l101 -15v-11z
M278 -187h-40v113l14 97h12l14 -97v-113z" />
    <glyph glyph-name="asciicircum" unicode="^" horiz-adv-x="457" 
d="M357 552h-32l-97 93l-97 -93h-32l107 149h44z" />
    <glyph glyph-name="asciitilde" unicode="~" horiz-adv-x="408" 
d="M347 321c-11 -60 -37 -93 -71 -93c-28 0 -44 8 -79 27c-32 18 -47 26 -63 26c-17 0 -30 -17 -39 -54l-34 7c11 61 37 94 71 94c28 0 44 -9 79 -28c32 -17 47 -26 63 -26c17 0 30 18 39 54z" />
    <glyph glyph-name="dollar" unicode="$" horiz-adv-x="543" 
d="M355 746l-12 -72c38 -6 73 -16 104 -28l-8 -44c-31 14 -67 25 -102 32l-42 -267c126 -46 178 -94 178 -184c0 -110 -83 -187 -212 -187c-8 0 -16 0 -24 1l-19 -121l-35 8l18 116c-50 7 -94 21 -137 39l7 45c40 -19 87 -36 136 -44l47 297c-112 39 -177 79 -177 175
c0 101 77 168 198 168c11 0 21 0 32 -1l12 76zM430 178c0 66 -30 107 -142 147l-45 -290h23c105 0 164 65 164 143zM121 514c0 -72 45 -102 139 -136l41 261c-10 1 -20 2 -30 2c-99 0 -150 -56 -150 -127z" />
    <glyph glyph-name="dollar.osf" horiz-adv-x="456" 
d="M192 -113l-40 10l15 105c-50 7 -99 25 -133 43l9 44c39 -22 84 -40 131 -47l31 212c-95 27 -146 57 -146 132c0 84 73 134 170 134h16l10 64l39 -9l-9 -59c36 -5 70 -14 106 -28l-10 -44c-36 14 -68 25 -102 31l-28 -188c109 -32 152 -69 152 -144
c0 -96 -80 -144 -194 -144h-1zM215 39c76 0 145 27 145 101c0 57 -33 81 -115 104l-31 -205h1zM103 389c0 -53 40 -72 109 -91l27 182h-15c-72 0 -121 -34 -121 -91z" />
    <glyph glyph-name="sterling" unicode="&#xa3;" horiz-adv-x="550" 
d="M74 353h99l49 161c35 114 91 175 195 175c29 0 50 -4 75 -10l-7 -42c-23 6 -44 9 -73 9c-80 0 -118 -47 -147 -143l-46 -150h192l6 -42h-211l-82 -270h365l6 -41h-421v29l86 282h-86v42z" />
    <glyph glyph-name="sterling.osf" horiz-adv-x="468" 
d="M58 233v40h93l45 120c30 80 78 121 155 121c27 0 47 -5 67 -10l-5 -40c-20 6 -42 10 -65 10c-57 0 -88 -28 -113 -95l-40 -106h153l7 -40h-175l-72 -193h300l6 -40h-353v33l75 200h-78z" />
    <glyph glyph-name="Euro" unicode="&#x20ac;" horiz-adv-x="612" 
d="M37 414v40h98c34 147 134 235 259 235c66 0 117 -19 165 -51l-8 -47c-49 35 -93 57 -158 57c-106 0 -181 -76 -210 -194h269l7 -40h-284c-3 -24 -5 -50 -5 -76c0 -18 1 -36 2 -52h284v-40h-278c24 -135 102 -219 211 -219c68 0 118 23 175 63l5 -43
c-50 -35 -109 -60 -183 -60c-129 0 -229 97 -256 259h-90l-6 40h91c-1 16 -2 33 -2 51c0 27 2 52 5 77h-91z" />
    <glyph glyph-name="Euro.osf" horiz-adv-x="520" 
d="M376 232h-226c7 -117 69 -200 171 -200c58 0 107 23 147 54l7 -45c-38 -28 -94 -50 -156 -50c-128 0 -210 98 -217 241h-68v42h68c8 142 91 240 220 240c58 0 107 -15 144 -43l-7 -48c-37 30 -81 50 -138 50c-102 0 -164 -83 -171 -199h219z" />
    <glyph glyph-name="yen" unicode="&#xa5;" horiz-adv-x="620" 
d="M121 256v38h163l-225 376l44 13l209 -359l203 352h50l-229 -382h161l7 -38h-172v-104h168v-38h-168v-114h-43v114h-165l-7 38h172v104h-168z" />
    <glyph glyph-name="yen.osf" horiz-adv-x="481" 
d="M388 183h-126v-183h-46v183h-128v41h114l-186 277l46 10l177 -267l174 261h52l-190 -281h107z" />
    <glyph glyph-name="cent" unicode="&#xa2;" horiz-adv-x="495" 
d="M431 149c-43 -30 -98 -52 -159 -52c-9 0 -17 0 -25 1l-17 -108l-34 8l17 108c-83 25 -149 106 -149 230c0 144 96 241 220 241h2l18 108l35 -8l-17 -103c39 -7 77 -23 106 -44l-9 -41c-34 25 -67 42 -103 48l-63 -402c7 -1 15 -1 23 -1c50 0 100 19 149 54zM108 336
c0 -94 43 -167 111 -192l62 396c-108 -2 -173 -84 -173 -204z" />
    <glyph glyph-name="cent.osf" horiz-adv-x="485" 
d="M426 64c-43 -30 -98 -52 -159 -52c-9 0 -17 0 -25 1l-17 -108l-34 8l17 108c-83 25 -149 106 -149 230c0 144 96 241 220 241h2l18 108l35 -8l-17 -103c39 -7 77 -23 106 -44l-9 -41c-34 25 -67 42 -103 48l-63 -402c7 -1 15 -1 23 -1c50 0 100 19 149 54zM103 251
c0 -94 43 -167 111 -192l62 396c-108 -2 -173 -84 -173 -204z" />
    <glyph glyph-name="baht" unicode="&#xe3f;" horiz-adv-x="540" 
d="M41 -127l-38 8l79 142v653h178c67 0 121 -17 157 -49l61 107l38 -9l-72 -130c13 -23 21 -51 21 -83c0 -72 -42 -128 -109 -153c85 -23 141 -75 141 -164c0 -127 -99 -195 -237 -195h-148zM261 333h-129v-290h132c109 0 184 56 184 145c0 104 -79 145 -187 145zM258 633
h-126v-259h128c105 0 156 63 156 137c0 75 -57 122 -158 122z" />
    <glyph glyph-name="colonmonetary" unicode="&#x20a1;" horiz-adv-x="540" 
d="M206 -121l-36 9l22 134c-100 51 -156 167 -156 305c0 188 98 342 266 352l12 74l36 -9l-11 -65c44 -3 81 -15 112 -29l17 103l36 -9l-117 -701c37 11 72 31 114 61l6 -44c-37 -27 -79 -49 -127 -59l-20 -122l-36 9l18 108c-9 -1 -18 -2 -27 -2c-32 0 -61 5 -88 13z
M82 329c0 -114 40 -214 118 -264l96 575c-138 -12 -214 -149 -214 -311zM319 33c11 0 21 0 31 2l95 571c-31 17 -73 31 -113 34l-99 -591c26 -10 54 -16 86 -16z" />
    <glyph glyph-name="florin" unicode="&#x192;" horiz-adv-x="381" 
d="M308 453v-41h-114l-66 -412h-45l65 412h-68l6 41h69l17 105c14 88 57 126 137 126c15 0 31 -3 42 -4v-44c-14 3 -29 5 -44 5c-58 0 -80 -28 -90 -87l-16 -101h107z" />
    <glyph glyph-name="florin.osf" horiz-adv-x="350" 
d="M279 283v-41h-114l-65 -413l-47 -10l67 423h-69l6 41h69l17 105c14 88 57 126 137 126c15 0 31 -3 42 -4v-44c-14 3 -29 5 -44 5c-58 0 -80 -28 -90 -87l-16 -101h107z" />
    <glyph glyph-name="naira" unicode="&#x20a6;" horiz-adv-x="712" 
d="M605 0h-47l-158 243h-251l1 -243h-42v243h-89l-6 37h95v126h-93v37h93v233h58l150 -233h247v233h42v-233h89l6 -37h-95v-126h93v-37h-93v-243zM294 406h-146l1 -126h227zM340 406l82 -126h141v126h-223zM148 632v-189h122zM564 60l-1 183h-117z" />
    <glyph glyph-name="peso" unicode="&#x20b1;" horiz-adv-x="590" 
d="M560 454h-62c-11 -118 -109 -188 -235 -188h-96v-266h-48v454h-78l-7 38h85v184h160c127 0 212 -72 219 -184h62v-38zM265 309c106 0 177 56 186 145h-284v-145h98zM167 633v-141h284c-7 85 -70 141 -176 141h-108z" />
    <glyph glyph-name="R_p" horiz-adv-x="1080" 
d="M524 -7l-222 290h-170v-283h-49v676h215c145 0 219 -69 219 -192c0 -101 -68 -169 -161 -194l220 -286zM1036 243c0 -168 -102 -249 -217 -249c-54 0 -94 8 -141 30v-192l-47 -9v638h34l12 -81c45 54 98 90 166 90c105 0 193 -72 193 -227zM988 241
c0 122 -63 187 -147 187c-66 0 -125 -54 -163 -106v-253c50 -25 95 -35 141 -35c92 0 169 66 169 207zM132 324h156c127 0 179 79 179 158c0 97 -51 151 -174 151h-161v-309z" />
    <glyph glyph-name="rupee" unicode="&#x20a8;" horiz-adv-x="1080" 
d="M524 -7l-222 290h-170v-283h-49v676h215c145 0 219 -69 219 -192c0 -101 -68 -169 -161 -194l220 -286zM132 324h156c127 0 179 79 179 158c0 97 -51 151 -174 151h-161v-309zM1037 129c0 -78 -68 -137 -195 -137c-73 0 -160 23 -212 50l12 47c62 -31 139 -52 208 -52
c83 0 137 36 137 90c0 56 -46 75 -155 91c-132 19 -192 49 -192 126c0 74 65 125 184 125c70 0 123 -15 182 -39l-10 -47c-55 24 -117 41 -174 41c-94 0 -133 -35 -133 -76c0 -47 38 -67 151 -84c118 -18 197 -46 197 -135z" />
    <glyph glyph-name="won" unicode="&#x20a9;" horiz-adv-x="1012" 
d="M959 676l-67 -233h99l6 -37h-116l-36 -126h149v-37h-160l-70 -245h-62l-75 245h-242l-74 -245h-62l-71 245h-156l-7 37h152l-36 126h-113v37h102l-66 229l47 11l67 -240h235l69 233h68l70 -233h237l65 233h47zM434 406l-38 -126h219l-38 126h-143zM621 406l38 -126h142
l35 126h-215zM179 406l35 -126h140l38 126h-213zM670 243l63 -205l57 205h-120zM225 243l58 -205l60 205h-118zM505 640l-60 -197h120z" />
    <glyph glyph-name="sheqel" unicode="&#x20aa;" horiz-adv-x="540" 
d="M491 0h-149c-97 0 -124 29 -140 126l-34 210h42l32 -198c13 -80 35 -98 92 -98h115v454l42 -10v-484zM356 164h-41v200c0 62 -24 87 -88 87h-137v-451h-42v491h171c104 0 137 -35 137 -127v-200z" />
    <glyph glyph-name="hryvnia" unicode="&#x20b4;" horiz-adv-x="549" 
d="M526 404l-7 -37l-167 19l-117 -101l267 -31v-38l-305 35c-57 -50 -78 -90 -78 -131c0 -60 43 -93 130 -93c70 0 144 30 202 64l9 -40c-61 -32 -133 -63 -213 -63c-100 0 -172 38 -172 130c0 51 22 92 71 139l-123 15l7 37l154 -18l119 101l-257 31v37l294 -35l3 3
c60 53 90 86 90 134c0 53 -42 87 -128 87c-65 0 -132 -26 -193 -61l-9 40c62 34 131 60 204 60c113 0 170 -50 170 -124c0 -55 -32 -95 -87 -145z" />
    <glyph glyph-name="numbersign" unicode="#" horiz-adv-x="637" 
d="M510 675l-30 -185h111v-41h-117l-35 -222h125l6 -41h-138l-29 -188h-38l29 188h-200l-30 -193l-37 8l29 185h-110v41h116l35 222h-124l-6 41h137l30 188h38l-30 -188h200l31 193zM236 449l-35 -222h200l35 222h-200z" />
    <glyph glyph-name="numbersign.osf" horiz-adv-x="531" 
d="M293 0l25 131h-152l-26 -136l-38 13l23 123h-93v38h101l31 166h-104l-9 38h121l25 131h41l-25 -131h152l26 136l38 -13l-24 -123h94v-38h-101l-32 -166h105l9 -38h-121l-25 -131h-41zM205 335l-32 -166h152l32 166h-152z" />
    <glyph glyph-name="numero" unicode="&#x2116;" horiz-adv-x="1055" 
d="M969 0h-306v39h306v-39zM652 333c0 114 67 198 165 198s163 -84 163 -198s-67 -198 -165 -198s-163 84 -163 198zM695 333c0 -89 47 -159 121 -159s121 70 121 159s-47 159 -121 159s-121 -70 -121 -159zM533 0h-43l-346 617v-617h-44v690h54l335 -600v600h44v-690z" />
    <glyph glyph-name="paragraph" unicode="&#xb6;" horiz-adv-x="520" 
d="M412 0h-44v639h-92v-142l-27 -170c-122 5 -200 63 -200 178c0 109 77 171 202 171h161v-676z" />
    <glyph glyph-name="paragraph.osf" horiz-adv-x="511" 
d="M412 -172l-44 -9v649h-92v-142l-27 -170c-122 5 -200 63 -200 178c0 109 77 171 202 171h161v-677z" />
    <glyph glyph-name="section" unicode="&#xa7;" horiz-adv-x="575" 
d="M508 350c0 -38 -17 -67 -36 -88l-41 9c18 20 32 46 32 76c0 40 -30 62 -102 83l-94 27c-97 28 -136 54 -136 114c0 66 67 113 158 113c56 0 96 -8 147 -28l-8 -45c-45 21 -92 32 -143 32c-70 0 -107 -30 -107 -70c0 -36 23 -52 104 -76l96 -28c78 -23 130 -55 130 -119z
M67 326c0 38 17 67 36 88l41 -9c-18 -20 -32 -46 -32 -76c0 -40 30 -62 102 -83l94 -27c97 -28 136 -54 136 -114c0 -66 -67 -113 -158 -113c-56 0 -96 8 -147 28l8 45c45 -21 92 -32 143 -32c70 0 107 30 107 70c0 36 -23 52 -104 76l-96 28c-78 23 -130 55 -130 119z" />
    <glyph glyph-name="ordfeminine" unicode="&#xaa;" horiz-adv-x="403" 
d="M313 361h-29l-7 38c-30 -25 -68 -44 -105 -44c-56 0 -95 31 -95 85c0 69 60 111 198 120v24c0 41 -24 62 -69 62c-33 0 -65 -9 -102 -26l-4 36c34 14 69 24 109 24c66 0 104 -32 104 -94v-225zM320 236h-240v37h234zM275 432v97c-124 -9 -160 -42 -160 -87
c0 -33 24 -54 61 -54c31 0 66 16 99 44z" />
    <glyph glyph-name="ordmasculine" unicode="&#xba;" horiz-adv-x="403" 
d="M339 518c0 -91 -49 -163 -138 -163c-88 0 -138 72 -138 163c0 90 50 162 138 162c89 0 138 -72 138 -162zM332 236h-259v37h253zM299 518c0 68 -31 127 -98 127c-66 0 -98 -58 -98 -127s32 -128 98 -128c67 0 98 58 98 128z" />
    <glyph glyph-name="degree" unicode="&#xb0;" horiz-adv-x="428" 
d="M366 530c0 -87 -66 -152 -152 -152c-85 0 -152 65 -152 152c0 86 67 151 152 151c86 0 152 -65 152 -151zM325 530c0 64 -46 117 -112 117c-65 0 -110 -53 -110 -117c0 -65 47 -118 112 -118c66 0 110 53 110 118z" />
    <glyph glyph-name="percent" unicode="%" horiz-adv-x="864" 
d="M363 501c0 -112 -63 -183 -147 -183c-85 0 -148 71 -148 183c0 111 63 183 148 183c84 0 147 -72 147 -183zM233 -7l-38 9l217 340l217 341l38 -9l-217 -340zM796 175c0 -112 -63 -183 -147 -183c-85 0 -148 71 -148 183c0 111 63 183 148 183c84 0 147 -72 147 -183z
M319 501c0 83 -40 146 -104 146c-65 0 -103 -63 -103 -146c0 -84 40 -146 105 -146c64 0 102 62 102 146zM752 175c0 83 -40 146 -104 146c-65 0 -103 -63 -103 -146c0 -84 40 -146 105 -146c64 0 102 62 102 146z" />
    <glyph glyph-name="percent.osf" horiz-adv-x="679" 
d="M285 385c0 -73 -53 -123 -123 -123s-123 50 -123 123c0 75 53 125 123 125s123 -50 123 -125zM514 499l-170 -273l-143 -233l-36 9l152 244l161 262zM641 114c0 -73 -53 -122 -124 -122c-70 0 -123 49 -123 122c0 75 53 126 123 126c71 0 124 -51 124 -126zM247 387
c0 52 -33 92 -85 92c-53 0 -85 -41 -85 -94s34 -92 87 -92c52 0 83 41 83 94zM602 116c0 53 -34 93 -87 93c-52 0 -81 -42 -81 -95c0 -52 33 -91 85 -91c53 0 83 40 83 93z" />
    <glyph glyph-name="quotedbl" unicode="&#x22;" horiz-adv-x="369" 
d="M294 676l-19 -184l-25 5l-19 179h63zM137 676l-18 -184l-26 5l-18 179h62z" />
    <glyph glyph-name="quotesingle" unicode="'" horiz-adv-x="212" 
d="M137 676l-18 -184l-26 5l-18 179h62z" />
    <glyph glyph-name="plus" unicode="+" horiz-adv-x="568" 
d="M508 319h-203v-205h-41v205h-204v38h204v205h41v-205h203v-38z" />
    <glyph glyph-name="plus.osf" horiz-adv-x="568" 
d="M508 232h-203v-205h-41v205h-204v39h204v205h41v-205h203v-39z" />
    <glyph glyph-name="minus" unicode="&#x2212;" horiz-adv-x="568" 
d="M508 317h-448v42h448v-42z" />
    <glyph glyph-name="minus.osf" horiz-adv-x="568" 
d="M508 231h-448v42h448v-42z" />
    <glyph glyph-name="divide" unicode="&#xf7;" horiz-adv-x="568" 
d="M314 486h-59v76h59v-76zM508 319h-448v38h448v-38zM314 114h-59v76h59v-76z" />
    <glyph glyph-name="divide.osf" horiz-adv-x="568" 
d="M314 400h-59v76h59v-76zM508 233h-448v38h448v-38zM314 28h-59v76h59v-76z" />
    <glyph glyph-name="equal" unicode="=" horiz-adv-x="615" 
d="M535 425h-455v43h455v-43zM535 208h-455v43h455v-43z" />
    <glyph glyph-name="equal.osf" horiz-adv-x="615" 
d="M535 339h-455v43h455v-43zM535 122h-455v43h455v-43z" />
    <glyph glyph-name="multiply" unicode="&#xd7;" horiz-adv-x="568" 
d="M454 139l-171 172l-170 -171l-27 27l171 170l-172 171l29 29l171 -172l170 171l27 -27l-171 -170l172 -171z" />
    <glyph glyph-name="multiply.osf" horiz-adv-x="568" 
d="M454 53l-171 172l-170 -171l-27 27l171 170l-172 171l29 29l171 -172l170 171l27 -27l-171 -170l172 -171z" />
    <glyph glyph-name="less" unicode="&#x3c;" horiz-adv-x="568" 
d="M489 94l-431 225v38l431 225v-46l-382 -197l382 -198v-47z" />
    <glyph glyph-name="less.osf" horiz-adv-x="568" 
d="M494 6l-431 225v39l431 225v-47l-382 -196l382 -198v-48z" />
    <glyph glyph-name="greater" unicode="&#x3e;" horiz-adv-x="568" 
d="M510 319l-431 -225v46l383 197l-383 198v47l431 -225v-38z" />
    <glyph glyph-name="greater.osf" horiz-adv-x="568" 
d="M505 233l-431 -225v47l383 197l-383 197v48l431 -225v-39z" />
    <glyph glyph-name="plusminus" unicode="&#xb1;" horiz-adv-x="540" 
d="M452 386h-161v-164h-42v164h-161v39h161v162h42v-162h161v-39zM484 128h-428v42h428v-42z" />
    <glyph glyph-name="onehalf" unicode="&#xbd;" horiz-adv-x="810" 
d="M220 -8l-34 9l214 345l210 344l34 -10l-215 -345zM318 311h-245v34h102v300l-102 -38l-6 32l121 48h27v-342h97zM765 0h-268v31l149 132c49 43 65 71 65 104c0 42 -33 73 -87 73c-42 0 -80 -18 -113 -41l-5 35c31 21 70 40 122 40c81 0 125 -46 125 -103
c0 -45 -24 -80 -77 -125l-126 -110h209z" />
    <glyph glyph-name="onethird" unicode="&#x2153;" horiz-adv-x="810" 
d="M220 -8l-34 9l214 345l210 344l34 -10l-215 -345zM318 311h-245v34h102v300l-102 -38l-6 32l121 48h27v-342h97zM749 97c0 -63 -57 -106 -134 -106c-47 0 -89 13 -117 30l6 35c34 -19 70 -31 109 -31c57 0 95 29 95 74c0 46 -38 77 -120 77h-22l-5 33h31
c72 0 108 27 108 70c0 37 -30 61 -83 61c-40 0 -77 -15 -107 -33l-5 33c30 18 69 34 116 34c77 0 121 -39 121 -91c0 -51 -39 -78 -85 -90c55 -14 92 -43 92 -96z" />
    <glyph glyph-name="twothirds" unicode="&#x2154;" horiz-adv-x="810" 
d="M220 -8l-34 9l214 345l210 344l34 -10l-215 -345zM315 311h-268v31l149 132c49 43 65 71 65 104c0 42 -33 73 -87 73c-42 0 -80 -18 -113 -41l-5 35c31 21 70 40 122 40c81 0 125 -46 125 -103c0 -45 -24 -80 -77 -125l-126 -110h209zM749 97c0 -63 -57 -106 -134 -106
c-47 0 -89 13 -117 30l6 35c34 -19 70 -31 109 -31c57 0 95 29 95 74c0 46 -38 77 -120 77h-22l-5 33h31c72 0 108 27 108 70c0 37 -30 61 -83 61c-40 0 -77 -15 -107 -33l-5 33c30 18 69 34 116 34c77 0 121 -39 121 -91c0 -51 -39 -78 -85 -90c55 -14 92 -43 92 -96z" />
    </font>
</defs>
</svg>
