<svg xmlns="http://www.w3.org/2000/svg" viewBox="0 0 83.32 58.1"><defs><style>.cls-1{fill:#b4975a}</style></defs><g id="Layer_2" data-name="Layer 2"><g id="Layer_1-2" data-name="Layer 1"><path class="cls-1" d="M60.65 15.76C57 5.18 46.17.51 41.79 0h-.12c-4.38.5-15.22 5.17-18.86 15.75-5 14.6 7.32 30.9 18.57 42l.35.34.35-.34c11.25-11.09 23.6-27.39 18.57-41.99zm-6.55-7l-3-.22a26.15 26.15 0 0 0-7.07-7c.45.14.92.3 1.41.5a21.77 21.77 0 0 1 8.66 6.73zM37.71 2.15c.58-.24 1.13-.44 1.66-.6a26.35 26.35 0 0 0-7.07 7l-2.95.22a21.68 21.68 0 0 1 8.36-6.62zm4 37.05c-8.64-8.05-12.56-15.76-11.65-22.92s6.4-11.93 9.67-14.16a12.73 12.73 0 0 0-3.5 9.09c0 7.66 5.48 12.79 5.48 12.79s5.47-5.13 5.47-12.79a12.69 12.69 0 0 0-3.5-9.09c3.27 2.23 8.77 7 9.68 14.16S50.37 31.15 41.73 39.2zm0-37.15c1.9 0 3.45 3.36 3.45 7.49S43.63 17 41.73 17s-3.45-3.36-3.45-7.5 1.54-7.45 3.45-7.45zm-13 7.6l3-.22a17.87 17.87 0 0 0-1.5 3.18l-3.21.52a16.68 16.68 0 0 1 1.73-3.48zM26.68 14l3.3-.52a16.54 16.54 0 0 0-.55 2.5l-3.29.52a16.17 16.17 0 0 1 .54-2.5zm-.63 3.35l3.29-.52a17 17 0 0 0 0 2.67l-3.26.94a18.73 18.73 0 0 1-.03-3.08zm3.33 3a18.81 18.81 0 0 0 .37 2l-3.2 1.24a21.68 21.68 0 0 1-.41-2.36zm.56 2.86c.16.58.35 1.17.57 1.76l-3 1.82c-.29-.81-.54-1.59-.74-2.35zm.88 2.54c.24.58.49 1.16.79 1.75L28.85 30c-.4-.83-.75-1.63-1.06-2.4zM32 28.26c.31.57.64 1.15 1 1.73l-2.55 3q-.67-1.14-1.23-2.22zm1.46 2.47c.41.61.85 1.22 1.31 1.84l-2.59 3.1c-.46-.67-.87-1.32-1.27-2zm1.82 2.51c.4.52.83 1 1.28 1.57L33.87 38c-.42-.56-.82-1.11-1.21-1.65zm1.82 2.21c.36.41.73.82 1.12 1.23l-2.56 3.61c-.44-.54-.87-1.07-1.28-1.6zm1.7 1.84c.57.59 1.17 1.18 1.79 1.77v6.71Q38.16 43.28 36.2 41zm4.06 1.77c.59-.56 1.17-1.13 1.72-1.69L47 41.22q-1.87 2.19-4.17 4.55zm4.72 1.49l-2.41-3.79c.44-.47.86-.94 1.27-1.41l2.7 3.26c-.49.64-1.01 1.28-1.56 1.94zm2.07-2.62L47 34.71c.44-.52.86-1 1.27-1.56l2.59 3.14c-.39.54-.79 1.09-1.21 1.64zm1.68-2.34l-2.57-3.11c.45-.61.88-1.22 1.28-1.83l2.55 3q-.59.95-1.26 1.94zm1.67-2.7l-2.55-3c.36-.58.69-1.15 1-1.72l2.77 2.48c-.33.75-.74 1.49-1.22 2.24zm1.6-3l-2.76-2.47c.29-.58.54-1.16.78-1.74l3 1.82c-.23.8-.62 1.59-.98 2.41zm1.4-3.15l-3-1.82a17.87 17.87 0 0 0 .56-1.76l3.2 1.23c-.24.76-.49 1.54-.76 2.35zm.94-3.16l-3.2-1.23c.15-.68.28-1.35.36-2l3.24.93a23.54 23.54 0 0 1-.42 2.3zm.49-3.16l-3.27-.93a15.62 15.62 0 0 0 0-2.37l3.29.59a19 19 0 0 1-.04 2.71zm-3.34-4.15a.22.22 0 0 0 0-.08 15.61 15.61 0 0 0-.51-2.43l3.33.6a17.61 17.61 0 0 1 .48 2.5zm-.78-3.4a18.54 18.54 0 0 0-1.6-3.46l3 .23a17.1 17.1 0 0 1 1.86 3.73v.1zM41.73 56.7c-19.67-19.56-20.65-32.87-18-40.62a21.44 21.44 0 0 1 5-7.9 18.07 18.07 0 0 0-2.63 4.92c-4.16 12.07 6 25.53 15.34 34.7l.29.29.27-.29c9.29-9.17 19.5-22.63 15.34-34.7a18 18 0 0 0-2.64-4.92 21.31 21.31 0 0 1 5 7.9c4.81 13.97-7.02 29.73-17.97 40.62z"/><path class="cls-1" d="M58.65 36.47a1.84 1.84 0 0 0-1.84 1.8l-.51.2c1 2.52 4 4.11 7.4 4.11a11.63 11.63 0 0 0 2.1-.19c4.39-.83 9.07-4.43 9-12C74.78 10.77 55 7 54.76 7l-.1.59a26.66 26.66 0 0 1 5.24 1.7 6.88 6.88 0 0 1-2.45 1l.1.6a7.33 7.33 0 0 0 3-1.31 28.65 28.65 0 0 1 3.41 1.87 8.58 8.58 0 0 1-5.4.29l-.21.56a4.07 4.07 0 0 0 .81.21l-.19.77c5.49 1.34 8 7.4 8.13 12.81.07 4.32-1.47 9.74-5.88 11.93a3.74 3.74 0 0 0 .48-2.2 3.66 3.66 0 0 0-.33-1.18c0-.15.13-.46.22-.74.61-1.92 1.87-5.92.13-9.34l-.89.45c1.54 3 .41 6.69-.17 8.51a8.13 8.13 0 0 0-1.26-1.21l-.62.78a4.44 4.44 0 0 1 1.93 2.83 2.84 2.84 0 0 1-.36 1.61 1.85 1.85 0 0 0-1.7-1.06zm-.51 3.61a1.75 1.75 0 0 0 .51.08 1.82 1.82 0 0 0 1.35-.62 9.5 9.5 0 0 0 1.83-.75A4.82 4.82 0 0 0 64.17 42a8.45 8.45 0 0 1-6.03-1.92zm12.37-.58c-4.45.14-5.72-1.91-6.05-2.74a11.62 11.62 0 0 0 1.75-2.46 7.79 7.79 0 0 0 5.4 2.1 8.49 8.49 0 0 0 1.39-.12 10 10 0 0 1-2.49 3.22zm.39-21.19c.22.35.44.72.65 1.1a6.59 6.59 0 0 1-4.64.5c-.12-.32-.25-.64-.38-.95a17.85 17.85 0 0 0 4.37-.65zm-4.65.06a12.74 12.74 0 0 0-.77-1.37h.42a5.91 5.91 0 0 0 3.4-.9c.44.52.86 1.08 1.26 1.66a18.77 18.77 0 0 1-4.31.61zm2.53 2.35a5.7 5.7 0 0 0 3-.8 19.21 19.21 0 0 1 1 2.21c-1.63 1-4.18.63-5.14.44a20.27 20.27 0 0 0-.52-2 9.06 9.06 0 0 0 1.66.15zM68 25a10.05 10.05 0 0 0 2.9.44 7.29 7.29 0 0 0 2.73-.52 23 23 0 0 1 .49 3.13c-2.14.86-5.06.29-6.15 0a19.25 19.25 0 0 0 .08-2c0-.33-.05-.68-.05-1.05zm-.07-.65c0-.39-.09-.78-.15-1.16a12.28 12.28 0 0 0 2.1.19 6.43 6.43 0 0 0 3.12-.69c.18.54.35 1.09.49 1.67a8.53 8.53 0 0 1-5.55.01zm0 4.33a15.25 15.25 0 0 0 3.46.44 8.38 8.38 0 0 0 2.8-.45v1.67a14.3 14.3 0 0 1-.06 1.48c-2 .85-5.38-.12-6.67-.49h-.1a17.87 17.87 0 0 0 .57-2.63zm-.69 3.2h.1a18.7 18.7 0 0 0 4.85.86 6.26 6.26 0 0 0 1.91-.27 12.62 12.62 0 0 1-.82 3.11 7.19 7.19 0 0 1-6.78-1.88 13.21 13.21 0 0 0 .74-1.8zm-6.65-19.25a11 11 0 0 0 3.94-.79c.6.41 1.19.84 1.77 1.32a8.21 8.21 0 0 1-3.65.78 9.88 9.88 0 0 0-2.44-1.32zm2.77 1.88a7.23 7.23 0 0 0 3.4-.95 23.78 23.78 0 0 1 2.16 2.11 6.24 6.24 0 0 1-3.86.72 11.7 11.7 0 0 0-1.7-1.88zM64 37.22c.49 1 1.88 2.78 5.72 2.88A10.42 10.42 0 0 1 66 41.74c-2.7 0-3.41-2.51-3.56-3.26A9.79 9.79 0 0 0 64 37.22z"/><path class="cls-1" d="M79.63 23.1a4.38 4.38 0 0 0 .51 0 2.7 2.7 0 0 0 1-.17 2.55 2.55 0 0 0 1.48-1.66 2.7 2.7 0 0 0-.49-2.27c-1.12-1.78-3.81-3.57-5.86-4.46a2.49 2.49 0 0 0 .8-.32 2.37 2.37 0 0 0 1.08-1.65 2.87 2.87 0 0 0-.87-2.57c-1.7-1.83-5.28-3-9.02-3a1.75 1.75 0 0 0 .58-.5 1.69 1.69 0 0 0 .08-1.71c-.94-2.29-6-1.53-9-.81a4 4 0 0 0 1.87-3 .88.88 0 0 0-.43-.8C59.72-.75 53.43 3 52 3.85l-1.16-.05v.6c.35 0 13.92.09 22 8.5 4.3 4.49 6.3 10.56 5.94 18.06 0 3.85-2.27 10.63-7.46 13.66-4.62 2.68-10.46 2-17.36-1.93l-.29.52c4.21 2.42 8 3.64 11.48 3.63a12.65 12.65 0 0 0 6.47-1.71 13.78 13.78 0 0 0 3.86-3.4 2.1 2.1 0 0 0 .35.81 2.42 2.42 0 0 0 1.67.93h.29a2.33 2.33 0 0 0 1.79-1c1.16-1.48 1.72-4.69-.06-9.34a3.84 3.84 0 0 0 1.09.17 2.51 2.51 0 0 0 1.18-.27 3.12 3.12 0 0 0 1.47-2.53c.47-3.19-2.08-6.01-3.63-7.4zm2-3.82a2.12 2.12 0 0 1 .37 1.83 2 2 0 0 1-1.12 1.3 3.19 3.19 0 0 1-2.31-.24 21.75 21.75 0 0 0-3.45-7.45c1.88.6 5.25 2.58 6.51 4.56zM68.37 5a1.12 1.12 0 0 1 0 1.13c-.56.79-2.49.86-3.18.82a36.84 36.84 0 0 0-6.38-2.11C61.92 4 67.55 3 68.37 5zM61 .66s.12.07.12.27c0 2.17-3.29 3.52-3.62 3.65a44.39 44.39 0 0 0-4.46-.65C56 2.23 60.09.14 61 .66zm5.55 7c4.68-.35 8.71 1.1 10.26 2.76a2.28 2.28 0 0 1 .73 2 1.83 1.83 0 0 1-.81 1.26 3.3 3.3 0 0 1-2.26.22c-.39-.48-.8-1-1.23-1.41a24.35 24.35 0 0 0-6.66-4.86zm12.56 34.48a1.64 1.64 0 0 1-1.52.73 1.84 1.84 0 0 1-1.27-.68A1.81 1.81 0 0 1 76 41a19.25 19.25 0 0 0 3.06-7.27c1.57 4.27 1.04 7.15.05 8.41zm3.56-11.69a2.61 2.61 0 0 1-1.15 2.09 2.85 2.85 0 0 1-2.23-.08 13.62 13.62 0 0 0 .09-1.46 30.53 30.53 0 0 0-.56-7.78c1.35 1.11 4.32 4.02 3.85 7.23zM31.28 3.85C29.87 3 23.59-.75 22 .13a.88.88 0 0 0-.43.8 4 4 0 0 0 1.87 3c-3.08-.71-8.09-1.48-9 .81a1.69 1.69 0 0 0 .08 1.71 1.75 1.75 0 0 0 .58.5C11.28 7 7.74 8.17 6 10a2.87 2.87 0 0 0-.87 2.55 2.37 2.37 0 0 0 1.08 1.65 2.49 2.49 0 0 0 .8.32C5 15.39 2.31 17.18 1.19 19a2.7 2.7 0 0 0-.45 2.35A2.55 2.55 0 0 0 2.22 23a2.7 2.7 0 0 0 1 .17 4.38 4.38 0 0 0 .51 0C2.14 24.49-.41 27.31.06 30.54a3.12 3.12 0 0 0 1.47 2.53 2.51 2.51 0 0 0 1.18.27 3.84 3.84 0 0 0 1.09-.17C2 37.82 2.58 41 3.74 42.51a2.33 2.33 0 0 0 1.79 1h.29a2.42 2.42 0 0 0 1.67-.93 2 2 0 0 0 .35-.81 13.78 13.78 0 0 0 3.86 3.4 12.55 12.55 0 0 0 6.47 1.71q5.16 0 11.48-3.63l-.29-.52c-6.9 4-12.74 4.61-17.36 1.93-5.18-3-7.48-9.81-7.46-13.68-.36-7.48 1.64-13.55 5.94-18 8.07-8.42 21.66-8.5 22-8.5V3.8c-.06 0-.48.01-1.2.05zM22.17.93c0-.2.09-.25.13-.27.92-.52 5.06 1.57 7.94 3.27a39.25 39.25 0 0 0-4.46.65c-.43-.17-3.61-1.52-3.61-3.65zM15 5c.83-2 6.44-1 9.57-.15A36.4 36.4 0 0 0 18.15 7c-.68 0-2.62 0-3.18-.82A1.12 1.12 0 0 1 15 5zM2.43 22.41a2 2 0 0 1-1.12-1.3 2.15 2.15 0 0 1 .38-1.83c1.26-2 4.64-4 6.5-4.56a21.75 21.75 0 0 0-3.45 7.45 3.19 3.19 0 0 1-2.31.24zM1.8 32.54a2.61 2.61 0 0 1-1.15-2.09c-.47-3.21 2.5-6.11 3.85-7.25a30.78 30.78 0 0 0-.56 7.8A13.65 13.65 0 0 0 4 32.45a2.8 2.8 0 0 1-2.2.09zM7 42.19a1.82 1.82 0 0 1-1.27.68 1.61 1.61 0 0 1-1.51-.73c-1-1.26-1.53-4.18 0-8.42A19.28 19.28 0 0 0 7.29 41 1.83 1.83 0 0 1 7 42.19zm3.05-29.71c-.43.45-.84.93-1.23 1.41a3.3 3.3 0 0 1-2.26-.22 1.83 1.83 0 0 1-.81-1.26 2.28 2.28 0 0 1 .73-2C8 8.73 12.07 7.28 16.73 7.63a24.66 24.66 0 0 0-6.68 4.85z"/><path class="cls-1" d="M28.56 7c-.2 0-20 3.8-20.08 23.38 0 7.61 4.65 11.21 9 12a11.63 11.63 0 0 0 2.1.19C23 42.58 26 41 27 38.47l-.51-.2a1.84 1.84 0 0 0-3.5-.75 2.83 2.83 0 0 1-.36-1.61 4.44 4.44 0 0 1 1.93-2.83L24 32.3a8.13 8.13 0 0 0-1.26 1.21C22.12 31.69 21 28 22.54 25l-.89-.45c-1.75 3.42-.49 7.42.12 9.34.09.29.19.59.22.74a3.66 3.66 0 0 0-.33 1.18 3.74 3.74 0 0 0 .48 2.2c-4.41-2.19-5.95-7.61-5.88-11.93.1-5.41 2.64-11.47 8.13-12.81l-.19-.77a4.07 4.07 0 0 0 .81-.21l-.21-.56a8.64 8.64 0 0 1-5.38-.3 28.33 28.33 0 0 1 3.39-1.86 7.33 7.33 0 0 0 3 1.31l.1-.6a6.88 6.88 0 0 1-2.45-1 26.66 26.66 0 0 1 5.24-1.73zM9.22 32.52a6.26 6.26 0 0 0 1.91.27 18.7 18.7 0 0 0 4.87-.86h.1a13.72 13.72 0 0 0 .74 1.85A7.3 7.3 0 0 1 10 35.63a12.62 12.62 0 0 1-.78-3.11zm6.59-1.17c-1.29.37-4.66 1.34-6.67.49 0-.48-.06-1-.06-1.48s0-1.13.06-1.67a8.28 8.28 0 0 0 2.79.45 15.35 15.35 0 0 0 3.47-.44 16.64 16.64 0 0 0 .51 2.62zm-.43-7a8.4 8.4 0 0 1-5.56 0c.15-.58.31-1.13.49-1.67a6.43 6.43 0 0 0 3.12.71 12.41 12.41 0 0 0 2.11-.19c-.07.39-.12.8-.16 1.17zm-3 1.09a10.05 10.05 0 0 0 2.9-.44c0 .35 0 .7-.05 1a19.25 19.25 0 0 0 .08 2c-1.08.27-4 .84-6.15 0a23 23 0 0 1 .49-3.13 7.29 7.29 0 0 0 2.76.59zm3.24-2.89c-1 .19-3.51.55-5.14-.43a20.39 20.39 0 0 1 1-2.22 5.72 5.72 0 0 0 3 .8 9.06 9.06 0 0 0 1.63-.15 20.27 20.27 0 0 0-.46 2.02zm.76-2.66a6.59 6.59 0 0 1-4.64-.5c.21-.38.43-.75.65-1.1a17.86 17.86 0 0 0 4.41.71c-.14.27-.27.59-.39.91zm-3.65-2.12c.4-.58.82-1.13 1.26-1.66a5.91 5.91 0 0 0 3.4.9h.42a12.74 12.74 0 0 0-.77 1.35 18.77 18.77 0 0 1-4.28-.57zm-2.4 18.51a8.49 8.49 0 0 0 1.38.12 7.79 7.79 0 0 0 5.4-2.1 11.62 11.62 0 0 0 1.75 2.46c-.33.83-1.61 2.88-6 2.74a10.17 10.17 0 0 1-2.53-3.22zm14.85 3.8a8.45 8.45 0 0 1-6 1.89 4.82 4.82 0 0 0 2.32-3.18 9.5 9.5 0 0 0 1.83.75 1.82 1.82 0 0 0 1.37.62 1.75 1.75 0 0 0 .48-.08zm-4.25-1.6c-.15.74-.87 3.31-3.56 3.26a10.59 10.59 0 0 1-3.78-1.64c3.84-.1 5.23-1.86 5.72-2.88a9.79 9.79 0 0 0 1.62 1.26zm-2.67-22.09a6.24 6.24 0 0 1-3.86-.72 23.78 23.78 0 0 1 2.16-2.11 7.23 7.23 0 0 0 3.4.95 11.7 11.7 0 0 0-1.7 1.88zm4.47-3.76h.38a9.88 9.88 0 0 0-2.44 1.32 8.23 8.23 0 0 1-3.67-.79c.59-.48 1.18-.91 1.77-1.32a11 11 0 0 0 3.96.79z"/></g></g></svg>